/* XPM */
static char *result[] = {
/* columns rows colors chars-per-pixel */
"48 48 132 2 ",
"   c black",
".  c #020202",
"X  c gray1",
"o  c #040404",
"O  c gray2",
"+  c #060606",
"@  c #070707",
"#  c #090909",
"$  c #0C0C0C",
"%  c gray6",
"&  c #101010",
"*  c #111111",
"=  c gray7",
"-  c #131313",
";  c gray8",
":  c #151515",
">  c #161616",
",  c gray9",
"<  c #191919",
"1  c gray10",
"2  c #1B1B1B",
"3  c gray11",
"4  c #1E1E1E",
"5  c gray12",
"6  c #281C18",
"7  c #202020",
"8  c gray13",
"9  c #222222",
"0  c gray15",
"q  c #282828",
"w  c gray16",
"e  c #2A2A2A",
"r  c #2D2D2D",
"t  c gray18",
"y  c gray19",
"u  c #313131",
"i  c gray20",
"p  c #343434",
"a  c gray21",
"s  c #373737",
"d  c gray22",
"f  c #393939",
"g  c #3A3A3A",
"h  c gray23",
"j  c #46312A",
"k  c gray25",
"l  c gray27",
"z  c gray28",
"x  c #494949",
"c  c #4B4B4B",
"v  c gray31",
"b  c #505050",
"n  c #515151",
"m  c gray32",
"M  c #535353",
"N  c gray35",
"B  c #5A5A5A",
"V  c #5B5B5B",
"C  c gray36",
"Z  c #5D5D5D",
"A  c gray37",
"S  c #5F5F5F",
"D  c #785447",
"F  c #795548",
"G  c #7B5649",
"H  c #79564A",
"J  c #7B594C",
"K  c #7D5C51",
"L  c #7F6257",
"P  c #606060",
"I  c gray38",
"U  c #626262",
"Y  c gray40",
"T  c #676767",
"R  c #6A6A6A",
"E  c #6C6C6C",
"W  c gray45",
"Q  c gray46",
"!  c #797979",
"~  c gray48",
"^  c #7C7C7C",
"/  c gray49",
"(  c #81645A",
")  c #82675E",
"_  c #8A7770",
"`  c #8B7872",
"'  c #8E7E78",
"]  c #8F807B",
"[  c #90837E",
"{  c #808080",
"}  c #818181",
"|  c #848484",
" . c gray52",
".. c #868686",
"X. c gray54",
"o. c #8D8D8D",
"O. c #918480",
"+. c #918580",
"@. c #918581",
"#. c #959595",
"$. c gray61",
"%. c gray64",
"&. c #A4A4A4",
"*. c #A5A5A5",
"=. c gray65",
"-. c #A9A9A9",
";. c gray68",
":. c #B1B1B1",
">. c gray70",
",. c gray71",
"<. c #B6B6B6",
"1. c #B7B7B7",
"2. c gray72",
"3. c #C6C6C6",
"4. c #D5D5D5",
"5. c #D7D7D7",
"6. c #D8D8D8",
"7. c gray85",
"8. c gray86",
"9. c gainsboro",
"0. c gray87",
"q. c gray90",
"w. c #E6E6E6",
"e. c #EFEFEF",
"r. c gray95",
"t. c #F3F3F3",
"y. c gray96",
"u. c #F6F6F6",
"i. c #F8F8F8",
"p. c #FEFEFE",
"a. c white",
"s. c None",
/* pixels */
"s.s.s.s.s.s.s.s.s.s.s.s.s.s.s.s.s.s.s.s.s.s.s.s.s.s.s.s.s.s.s.s.s.s.s.s.s.s.s.s.s.s.s.s.s.s.s.s.",
"s.s.s.s.s.s.s.s.s.s.s.s.s.s.s.s.s.s.s.s.s.s.s.s.s.s.s.s.s.s.s.s.s.s.s.s.s.s.s.s.s.s.s.s.s.s.s.s.",
"s.s.s.s.s.s.s.s.s.s.s.s.s.s.s.s.s.s.s.s.s.s.s.s.s.s.s.s.s.s.s.s.s.s.s.s.s.s.s.s.s.s.s.s.s.s.s.s.",
"s.s.s.s.s.s.s.s.s.s.s.s.s.s.s.s.s.s.s.s.s.s.s.s.s.s.s.s.s.s.s.s.s.s.s.s.s.s.s.s.s.s.s.s.s.s.s.s.",
"s.s.s.s.s.s.s.s.s.s.s.s.s.s.s.s.s.s.s.s.s.s.s.s.s.s.s.s.s.s.s.s.s.s.s.s.s.s.s.s.s.s.s.s.s.s.s.s.",
"s.s.s.s.s.s.s.s.s.s.s.s.s.s.s.s.s.s.s.s.s.s.s.s.s.s.s.s.s.s.s.s.s.s.s.s.s.s.s.s.s.s.s.s.s.s.s.s.",
"s.s.s.s.s.s.s.s.s.s.s.s.s.s.s.s.s.s.s.s.s.s.s.s.s.s.s.s.s.s.s.s.s.s.s.s.s.s.s.s.s.s.s.s.s.s.s.s.",
"s.s.s.s.s.s.s.s.s.s.s.s.s.s.s.s.s.s.s.s.s.s.s.s.s.s.s.s.s.s.s.s.s.s.s.s.s.s.s.s.s.s.s.s.s.s.s.s.",
"s.s.s.s.s.s.s.s.s.s.s.s.s.s.s.s.s.s.s.s.s.s.s.s.s.s.s.s.s.s.s.s.s.s.s.s.s.s.s.s.s.s.s.s.s.s.s.s.",
"s.s.s.s.s.s.s.s.s.s.s.s.s.s.s.s.s.s.s.s.s.s.s.s.s.s.s.s.s.s.s.s.s.s.s.s.s.s.s.s.s.s.s.s.s.s.s.s.",
"s.s.s.s.s.s.s.s.s.s.s.s.s.s.s.s.s.s.s.s.s.s.s.s.s.s.s.s.s.s.s.s.s.s.s.s.s.s.s.s.s.s.s.s.s.s.s.s.",
"s.s.s.s.s.s.s.s.s.s.s.s.s.s.s.s.s.s.s.s.s.s.s.s.s.s.s.s.s.s.s.s.s.s.s.s.s.s.s.s.s.s.s.s.s.s.s.s.",
"s.s.s.s.s.s.s.s.s.s.s.s.s.s.s.s.s.s.s.s.s.s.s.s.s.s.s.s.s.s.s.s.s.s.s.s.s.s.s.s.s.s.s.s.s.s.s.s.",
"s.s.s.s.s.s.s.s.s.s.s.s.s.s.s.s.s.s.s.s.s.s.s.s.s.s.s.s.s.s.s.s.s.s.s.s.s.s.s.s.s.s.s.s.s.s.s.s.",
"s.s.s.s.s.s.s.s.s.s.s.s.s.    * s.s.s.s.s.s.s.s.s.s.s.s.s.s.h v s.s.s.s.s.s.s.s.s.s.s.s.s.s.s.s.",
"s.s.s.s.s.s.s.s.s.s.s.s.s.    i :.~ O   s.s.s.s.s.i A d   O -.0.m s.s.s.s.s.s.s.s.s.s.s.s.s.s.s.",
"s.s.s.s.s.s.s.s.s.s.s.s.s..   s y.2.+   k >.I     | i.S   + <.e.N s.s.s.s.s.s.s.s.s.s.s.s.s.s.s.",
"s.s.s.s.s.s.s.s.s.s.s.s.s.E W q T { o   P a.o.    X.5.l . + f c 3 s.s.s.s.s.s.s.s.s.s.s.s.s.s.s.",
"s.s.s.s.s.s.s.s.s.s.s.s.s.$.p.Z   + f x M :.U + @ q 5 w :. .o     s.s.s.s.s.s.s.s.s.s.s.s.s.s.s.",
"s.s.s.s.s.s.s.s.s.s.s.s.s.Y 4.C   + <.t.d   : *.*.-   d u.,.O     s.s.s.s.s.s.s.s.s.s.s.s.s.s.s.",
"s.s.s.s.s.s.s.s.s.s.s.s.s.  7 e 0 & ;.w.p   < 9.9.<   q #.c l V 8 s.s.s.s.s.s.s.s.s.s.s.s.s.s.s.",
"s.s.s.s.s.s.s.s.s.s.s.s.s.    s 4.#.q t = - 1 } { z / z   + 2.r.B s.s.s.s.s.s.s.s.s.s.s.s.s.s.s.",
"s.s.s.s.s.s.s.s.s.s.s.s.s.% @ u q.1.+   b 5.Q     o.a.P   O =.7.n s.s.s.s.s.s.s.s.s.s.s.s.s.s.s.",
"s.s.s.s.s.s.s.s.s.s.s.s.s...&.i g V X   P a.o.    ^ ;.a 2 , 2 9 $ s.s.s.s.s.s.s.s.s.s.s.s.s.s.s.",
"s.s.s.s.s.s.s.s.s.s.s.s.s.$.a.P   X S / c ~ z 4 5 ; # y 6.%.O     s.s.s.s.s.s.s.s.s.s.s.s.s.s.s.",
"s.s.s.s.s.s.s.s.s.s.s.s.s.M 2.n   + 2.u.d   > 3.3.>   d y.=.o     s.s.s.s.s.s.s.s.s.s.s.s.s.s.s.",
"s.s.s.s.s.s.s.s.s.s.s.s.s.s.s.s.  O #.3.r   < 8.8.<   3 ! h s.6 j s.s.s.s.s.s.s.s.s.s.s.s.s.s.s.",
"s.s.s.s.s.s.s.s.s.s.s.s.s.s.s.s.s.s.s.s.O   $ R R * s.s.s.s.s.s.G s.s.s.s.s.s.s.s.s.s.s.s.s.s.s.",
"s.s.s.s.s.s.s.s.s.s.s.s.s.s.s.s.s.s.s.s.s.s.s.s.s.s.s.s.s.s.s.s.F s.s.s.s.s.s.s.s.s.s.s.s.s.s.s.",
"s.s.s.s.s.s.s.s.s.s.s.s.s.s.s.s.s.s.s.s.s.s.s.s.s.s.s.s.s.s.s.s.D s.s.s.s.s.s.s.s.s.s.s.s.s.s.s.",
"s.s.s.s.s.s.s.s.s.s.s.s.s.s.s.s.s.s.s.s.s.s.s.s.s.s.s.s.s.s.s.s.H s.s.s.s.s.s.s.s.s.s.s.s.s.s.s.",
"s.s.s.s.s.s.s.s.s.s.s.s.s.s.s.s.s.s.s.s.s.s.s.s.s.s.s.s.s.s.s.s.` s.s.s.s.s.s.s.s.s.s.s.s.s.s.s.",
"s.s.s.s.s.s.s.s.s.s.s.s.s.s.s.s.s.s.s.s.s.s.s.s.s.s.s.s.s.s.s.s.@.s.s.s.s.s.s.s.s.s.s.s.s.s.s.s.",
"s.s.s.s.s.s.s.s.s.s.s.s.s.s.s.s.s.s.s.s.s.s.s.s.s.s.s.s.s.s.s.s.O.s.s.s.s.s.s.s.s.s.s.s.s.s.s.s.",
"s.s.s.s.s.s.s.s.s.s.s.s.s.s.s.s.s.s.s.s.s.s.s.s.s.s.s.s.s.s.s.s.+.s.s.s.s.s.s.s.s.s.s.s.s.s.s.s.",
"s.s.s.s.s.s.s.s.s.s.s.s.s.s.s.s.s.s.s.s.s.s.s.s.s.s.s.s.s.s.s.s.' s.s.s.s.s.s.s.s.s.s.s.s.s.s.s.",
"s.s.s.s.s.s.s.s.s.s.s.s.s.s.s.s.s.s.s.s.s.s.s.s.s.s.s.s.s.s.s.s.L s.s.s.s.s.s.s.s.s.s.s.s.s.s.s.",
"s.s.s.s.s.s.s.s.s.s.s.s.s.s.s.s.s.s.s.s.s.s.s.s.s.s.s.s.s.s.s.s._ s.s.s.s.s.s.s.s.s.s.s.s.s.s.s.",
"s.s.s.s.s.s.s.s.s.s.s.s.s.s.s.s.s.s.s.s.s.s.s.s.s.s.s.s.s.s.s.s.J s.s.s.s.s.s.s.s.s.s.s.s.s.s.s.",
"s.s.s.s.s.s.s.s.s.s.s.s.s.s.s.s.s.s.s.s.s.s.s.s.s.s.s.s.s.s.s.s.F s.s.s.s.s.s.s.s.s.s.s.s.s.s.s.",
"s.s.s.s.s.s.s.s.s.s.s.s.s.s.s.s.s.s.s.s.s.s.s.s.s.s.s.s.s.s.s.s.) s.s.s.s.s.s.s.s.s.s.s.s.s.s.s.",
"s.s.s.s.s.s.s.s.s.s.s.s.s.s.s.s.s.s.s.s.s.s.s.s.s.s.s.s.s.s.s.s.( s.s.s.s.s.s.s.s.s.s.s.s.s.s.s.",
"s.s.s.s.s.s.s.s.s.s.s.s.s.s.s.s.s.s.s.s.s.s.s.s.s.s.s.s.s.s.s.s.[ s.s.s.s.s.s.s.s.s.s.s.s.s.s.s.",
"s.s.s.s.s.s.s.s.s.s.s.s.s.s.s.s.s.s.s.s.s.s.s.s.s.s.s.s.s.s.s.s.O.s.s.s.s.s.s.s.s.s.s.s.s.s.s.s.",
"s.s.s.s.s.s.s.s.s.s.s.s.s.s.s.s.s.s.s.s.s.s.s.s.s.s.s.s.s.s.s.s.O.s.s.s.s.s.s.s.s.s.s.s.s.s.s.s.",
"s.s.s.s.s.s.s.s.s.s.s.s.s.s.s.s.s.s.s.s.s.s.s.s.s.s.s.s.s.s.s.s.] s.s.s.s.s.s.s.s.s.s.s.s.s.s.s.",
"s.s.s.s.s.s.s.s.s.s.s.s.s.s.s.s.s.s.s.s.s.s.s.s.s.s.s.s.s.s.s.s.K s.s.s.s.s.s.s.s.s.s.s.s.s.s.s.",
"s.s.s.s.s.s.s.s.s.s.s.s.s.s.s.s.s.s.s.s.s.s.s.s.s.s.s.s.s.s.s.s.D s.s.s.s.s.s.s.s.s.s.s.s.s.s.s."
};
