/* XPM */
static char *result[] = {
/* columns rows colors chars-per-pixel */
"48 48 32 1 ",
"  c #000100",
". c #030B03",
"X c #061406",
"o c #071907",
"O c #081C08",
"+ c #0A240A",
"@ c #0C2B0C",
"# c #0E330E",
"$ c #0F390F",
"% c #103610",
"& c #113C11",
"* c #134413",
"= c #154C15",
"- c #175217",
"; c #185518",
": c #1A5B1A",
"> c #1D641D",
", c #1E6B1E",
"< c #1E731E",
"1 c #206F20",
"2 c #217421",
"3 c #237B23",
"4 c #258325",
"5 c #268A26",
"6 c #298D29",
"7 c #2A932A",
"8 c #2C9C2C",
"9 c #2DA42D",
"0 c #2FA92F",
"q c #30A630",
"w c #31AD31",
"e c #33B033",
/* pixels */
"eeeeeeeeweeeeeeeeeeeeeeeeeeeeeeee4*qweweeeeeeeee",
"ee09eee9weew9weee9weww9eee09eee90* :9weew9wee09e",
"9wee09eew09eww90eee9weww9weew9ee2. .,w90ewe9wwwe",
"9wwwe0wwewwwwe0w00e0wwwe0wwww0w4o   O60wwwe0wwee",
"e09eee09eee9weew90eew9wwew9ew92X    *38w90eew9we",
"ewwweee0eeeewwewewewewwww976468&   X6q2qwweeewwe",
"ew00wwe09866466663>--=*&#>47www7@ .19w7,w9www09e",
"8eee098>&O.&898q00>.     %qww9ee6@:wee9=,ee9weee",
"0e0eq>X    .,wwwwww;      *wwww71=qwww7OX4eww0we",
"e09865O     X4ww8qq8@....XO34>&X  :00w=  +8ew9we",
"ee82ww4.  .+*2:##@@+o>577888#     .29:.   -qeewe",
"we<8www>O:499w2.     #8wwwwq6X     @=.   O32ww9e",
"523e09w>;09eee8;      =q9wee0,..O&>83X  .>w24eee",
"#.-wew:..2w00ew7@@%&**;6>>;;;*#49ww00,. &9ee24we",
"4X.4e2.  O694;#oX4wwe9w9#     .,eee0we:-90ee4%8w",
"e<.+6+    &&.    @8eew0e7O     X4eew72&2w0ew* *q",
"ww= X.   *8:      *999888>XXOoO+=4:&O  O6ww2. .;",
"8e9#    %89w*  .@*1,@+OOXX&7879qw2.     @84X   X",
"ww97O  X6ee97%=68wwq#     .1ee99ee;     X:X    *",
"ewwe3. *eeew3@7ewwww8+     .4wwwewq#.+&,7q*   O7",
"ee00w> +8we3X #9w9ew7;@*-;::3,=***&+>9ewe99# O2e",
"9wwww9* *97@   *q4;@X.*w9wwww1.     @8w0e0e2&6we",
"9weew08@ ;;    O=.     >9eeew9:      *8wq8649wwe",
"e09wee94X..   +65+     .2857773@XXoOO#36459ew9we",
"ee0eeeew2.   X6ww5X .X#-26678888999999www0eeewee",
"ee09eee9w;   :eew9>@,89eeew9ewwq0e0w9weee9eee09e",
"90eew9eew9& X790e768wwew9wwww9eww09eww90eew90eee",
"9ewew0e0ww7@ >0w74w0wwwwwwwwwwwwewwwwe0ww0e0eeee",
"e09wee99eee2..3q,9wee90ee09ewew9eee99eee90eee90e",
"eewweeewwwee,.O>7weeeeweewwwwewwweeeweeew0eeee0e",
"we00ewe9wwww9= @q9www09weww9eww90ewe9weww9eee09e",
"9eeww9eeww9ewq@.2ew9weew9eeww9eee09eee90eew9weee",
"0w9eew00ewe00e7+.5wwwwwewwwww0e0ewe00ewe00e0e0we",
"ww9eee00eee90ee<.+8ew9weww9wee09eee90eee9eeew9we",
"eewweeee0eee0eee> &qwwwwwewweeew0eee0eeee0eeew0e",
"ww00e0e00eee00eew* :wwqwwwwqewe00ewe9wwww9ewww0e",
"9wee09eee99eee90e9@.<eew9wee09eee09eee90eew9weee",
"w09eee09eee00eww9w6XX4weww9eee00eee00ewe90eww9we",
"ew0eee00eee00eee9ww3.+8wew9ewe00eee00eee0weew0ee",
"ee00eee00eee0weewwwe: *weew0eee00eee0weew0eeew0e",
"0e00w0e0we0e0w0ww0e00* :0ew0e0e00w0e0e0we0w0ww0e",
"9eee09eee00eee90eew908+.<wew09eee00eee90eee9weee",
"e09eee09eee00eee90eee95Xo590ee09eee90eee90eew9we",
"ee0eeew0ewe0weee0eeee0w2.#9eeewweeew0eee0weee0ee",
"ee00eee00eee9weee9eeew9e; =9eee00eee9weee0eeew9e",
"9we0w0ewe00eww00e0e9weww9$.>09e0e00ewe00e0000e0e",
"9eee00e0e00eee000ee0wwww98+.49e0e00eee90eee900ee",
"e99wee99eew99eee90ee08wee0<o>e99eee99ee090eee9ee"
};
