/* XPM */
static char *fba41e4f3ed74797c335950f38715aa0Kt3GQocR97t2dfZm[] = {
/* columns rows colors chars-per-pixel */
"48 48 111 2 ",
"   c None",
".  c #062F0A",
"X  c #07320B",
"o  c #08340C",
"O  c #093B0E",
"+  c #0C3D11",
"@  c #09410F",
"#  c #0A4411",
"$  c #0B4C12",
"%  c #104215",
"&  c #144F1B",
"*  c #0C5314",
"=  c #0D5B16",
"-  c #0F5A18",
";  c #12571B",
":  c #19521E",
">  c #135A1B",
",  c #0E6117",
"<  c #0E6318",
"1  c #0F681A",
"2  c #12621C",
"3  c #116B1C",
"4  c #12741E",
"5  c #1B5621",
"6  c #1B5B21",
"7  c #166621",
"8  c #1E6326",
"9  c #176B22",
"0  c #1E6C27",
"q  c #187124",
"w  c #157C22",
"e  c #1A7B26",
"r  c #1C7C28",
"t  c #206026",
"y  c #23652A",
"u  c #256A2C",
"i  c #25732E",
"p  c #2A7432",
"a  c #267B30",
"s  c #2E7D37",
"d  c #178425",
"f  c #168A25",
"g  c #1D8A2C",
"h  c #1C952D",
"j  c #1B9A2C",
"k  c #1F9C31",
"l  c #228C31",
"z  c #31823A",
"x  c #209530",
"c  c #229D33",
"v  c #279D38",
"b  c #2C9C3B",
"n  c #32953E",
"m  c #22A434",
"M  c #22A835",
"N  c #27A539",
"B  c #2AA43B",
"V  c #26AD39",
"C  c #2AAC3C",
"Z  c #2BB03F",
"A  c #3D9647",
"S  c #369C43",
"D  c #3E9848",
"F  c #2FAA41",
"G  c #30A941",
"H  c #38AC47",
"J  c #2EB240",
"K  c #2BB840",
"L  c #34B244",
"P  c #31BA45",
"I  c #3EB24C",
"U  c #35BC48",
"Y  c #43A44E",
"T  c #43A94F",
"R  c #45A350",
"E  c #46AB52",
"W  c #4AAF55",
"Q  c #4AB256",
"!  c #47BB56",
"~  c #48BC56",
"^  c #50B65B",
"/  c #33C649",
"(  c #36CC4C",
")  c #3ECB52",
"_  c #42CD55",
"`  c #47CA58",
"'  c #48CC59",
"]  c #44D158",
"[  c #47D25A",
"{  c #4CD05D",
"}  c #4DD25E",
"|  c #56C763",
" . c #57C764",
".. c #50CE60",
"X. c #57C864",
"o. c #4BDF60",
"O. c #4EDD62",
"+. c #4FDE62",
"@. c #5EDF6E",
"#. c #62DF71",
"$. c #58E26A",
"%. c #58E66B",
"&. c #57E86A",
"*. c #5CEA6E",
"=. c #67E375",
"-. c #68E777",
";. c #64EA74",
":. c #6AEA79",
">. c #65F076",
",. c #65F276",
"<. c #74FB83",
/* pixels */
"                                                                                                ",
"                                                                                                ",
"                                                                                                ",
"                                                                                                ",
"                                                                                                ",
"                                                                                                ",
"                                                                                                ",
"                                                                                                ",
"                                                                                                ",
"                                                                                                ",
"                                                                                                ",
"                                                o                                               ",
"                                o               .           o                                   ",
"                                                p           o                                   ",
"                                  o           5 Q %       o                                     ",
"                                  o X         5 W %       o           X o                       ",
"                  o                 &         5 W +     X o         t %                         ",
"                    o       o       n y       5 X.u     u O       u A t         o               ",
"                    o o             e S %     5 :.E . 5 W #     y ! a         o                 ",
"                    o o       D :   3 L t     W >.S o Y H +   u ! b &       O o                 ",
"                      o o   # ^ s . O x Q + + ~ O.S 5 ..G o 5 ~ G #     ; 9 2                   ",
"                        X X + ~ #.u o g I + O B ( l Y ] r 5  ._ 3 o o 9 x 2                     ",
"            o o         # - + b &.E o d U s o h C > E L 6 X.*.B # o 9 c - o                     ",
"              o o         9 9 2 P ` z 3 V } z w w p } j i $.C - > v c 4 O                       ",
"                o o       > x q d V _ 0 h +.:.8 # R O.h 2 N - ; M V 4 @         o               ",
"                  o o       3 x ; f M > f [ <.D u ;.) f $ * > c j d $ o     o o                 ",
"                    o o     $ d r 2 f $ = Z ,.=.p ) M 1 O > c j 4 $ @ o # X X                   ",
"                    o o o     * x d < = * m ) @.y 2 q $ ; c j 4 @ # * # $ o                     ",
"                      o X O O o 3 c r * $ h Z &.~ & o ; c j 4 # # = * O o                       ",
"                        X O * O O 3 c r @ 3 m / P 3 ; c j 4 @ $ = $ O o                         ",
"            o o X o       X @ * @ O 3 j l q 3 x 7 > m j 4 @ # - * O o o O # @ X                 ",
"              X o $ $ o O O o @ - $ $ * h m q $ > c d * @ @ = * $ = = - * * @                   ",
"                  O O @ - * @ @ @ < = @ $ 4 g ; x f * @ = = $ @ < = * @ O                       ",
"                    o o o $ = = @ @ < < $ O O O 4 * * < < * @ @ $ @ o                           ",
"                          o O @ $ O @ < < $ @ O @ @ = = $ O # O o                               ",
"                              o O O O @ < - * @ @ $ $ O O o O                                   ",
"                                  o o o o $ - O O O o o X                                       ",
"                                        o o o o                                                 ",
"                                                                                                ",
"                                                                                                ",
"                                                                                                ",
"                                                                                                ",
"                                                                                                ",
"                                                                                                ",
"                                                                                                ",
"                                                                                                ",
"                                                                                                ",
"                                                                                                "
};
