/* XPM */
static char *result[] = {
/* columns rows colors chars-per-pixel */
"48 48 172 2 ",
"   c #D46B14",
".  c #DA6D13",
"X  c #C77117",
"o  c #C97516",
"O  c #CC7A14",
"+  c #DD7713",
"@  c #299E29",
"#  c #2CA52C",
"$  c #2FA92F",
"%  c #37A42B",
"&  c #34A92E",
"*  c #3DAA2F",
"=  c #31AE31",
"-  c #3AAD31",
";  c #33B033",
":  c #3BB033",
">  c #569826",
",  c #5C9D29",
"<  c #758F23",
"1  c #7C9522",
"2  c #739824",
"3  c #7D9A24",
"4  c #43A12A",
"5  c #45AA2E",
"6  c #4BA92E",
"7  c #59A82C",
"8  c #5BB02D",
"9  c #49AD31",
"0  c #55AF30",
"q  c #5BAE31",
"w  c #42B132",
"e  c #5EB330",
"r  c #6CAA2D",
"t  c #74A326",
"y  c #7DA827",
"u  c #79A828",
"i  c #64A830",
"p  c #65B431",
"a  c #76B630",
"s  c #7BBC3E",
"d  c #7BC045",
"f  c #AB8C1C",
"g  c #A4931E",
"h  c #B6A31E",
"j  c #B7B41F",
"k  c #829825",
"l  c #999320",
"z  c #89A726",
"x  c #9BAF25",
"c  c #8AB42C",
"v  c #9CBA23",
"b  c #99B52C",
"n  c #8AAE31",
"m  c #86B936",
"M  c #9BB931",
"N  c #A1A321",
"B  c #BAA520",
"V  c #B8B729",
"C  c #CC8314",
"Z  c #CD8814",
"A  c #D38514",
"S  c #DE8618",
"D  c #DC9218",
"F  c #E78F0F",
"G  c #E48515",
"H  c #EB8517",
"J  c #E08B16",
"K  c #EB8B18",
"L  c #E69616",
"P  c #E69819",
"I  c #EE9A18",
"U  c #F29515",
"Y  c #F2981A",
"T  c #D8A51E",
"R  c #D9AD1F",
"E  c #C7B81D",
"W  c #F9A414",
"Q  c #F5A31F",
"!  c #F7A91A",
"~  c #E7BE17",
"^  c #FBB91A",
"/  c #CF9D27",
"(  c #CE9C2D",
")  c #EF9D21",
"_  c #F49F20",
"`  c #D8A123",
"'  c #D8A825",
"]  c #D8A72F",
"[  c #C7B628",
"{  c #D9BA25",
"}  c #D9B32A",
"|  c #CFA334",
" . c #C7B637",
".. c #D2B63F",
"X. c #F4A524",
"o. c #F4A922",
"O. c #F4AB2B",
"+. c #F9B424",
"@. c #F6B825",
"#. c #F8B926",
"$. c #F5B32A",
"%. c #F5BA2E",
"&. c #E2BF38",
"*. c #F8B930",
"=. c #B5C22E",
"-. c #EBC61E",
";. c #FCC619",
":. c #FCCD1B",
">. c #FCD418",
",. c #CEC037",
"<. c #D7D53E",
"1. c #D7D838",
"2. c #EFC52A",
"3. c #FAC32C",
"4. c #F0CA2F",
"5. c #FBCC2B",
"6. c #FAD729",
"7. c #FDD928",
"8. c #E9C832",
"9. c #FBC731",
"0. c #FCC933",
"q. c #F8CA3D",
"w. c #F6D730",
"e. c #FCD132",
"r. c #FEDE32",
"t. c #FAD13B",
"y. c #FDDB3C",
"u. c #FEE327",
"i. c #FDE133",
"p. c #FFEA36",
"a. c #FEE13B",
"s. c #FFEF38",
"d. c #97BF42",
"f. c #D5B843",
"g. c #E7BE48",
"h. c #D4C85F",
"j. c #E6C541",
"k. c #FBCE45",
"l. c #E6D741",
"z. c #EBD94F",
"x. c #FBD64A",
"c. c #FCD649",
"v. c #F7CE51",
"b. c #ECD751",
"n. c #FCDE54",
"m. c #F8D959",
"M. c #FFE542",
"N. c #FDE34C",
"B. c #FFEC4E",
"V. c #FEF04D",
"C. c #FFEC53",
"Z. c #FDE45B",
"A. c #FDEC5A",
"S. c #FEF354",
"D. c #FFF857",
"F. c #FFF759",
"G. c #E5D66E",
"H. c #F9D964",
"J. c #FCDD6B",
"K. c #FADA77",
"L. c #FEED65",
"P. c #F8E869",
"I. c #FEF16A",
"U. c #FFFB69",
"Y. c #F9E676",
"T. c #FFF77B",
"R. c #FFFC86",
"E. c #FFFF94",
"W. c #F9F29C",
"Q. c #FFFE9E",
"!. c #FDFCAA",
"~. c #FBFEB2",
/* pixels */
"; ; ; ; ; ; ; ; ; ; ; ; = ; ; ; ; = ; ; ; ; ; ; ; ; ; = ; ; ; ; ; ; ; ; ; ; ; ; ; ; ; ; ; ; ; ; ",
"; ; $ # ; ; ; # $ ; ; = # = ; ; ; # = ; ; $ # ; ; ; $ $ ; ; ; # $ ; ; = # = ; ; ; # = ; ; $ # ; ",
"# = ; ; = # ; ; ; $ # ; = = # $ ; = ; # = ; ; = # = ; = = # ; ; = $ # ; = = # $ ; = = # = ; = ; ",
"# = = = = $ = = ; = $ ; = ; $ = = = ; $ = = = = $ = = = = $ = = ; = = = = ; $ = = = ; $ = = = ; ",
"; $ # ; = ; $ # ; ; ; # # ; ; ; # $ ; ; = # = = ; $ # = = ; $ # ; ; ; # $ ; ; ; # $ ; ; = # = ; ",
"; = = = ; ; ; = ; ; ; ; = ; ; ; = = ; ; ; $ = ; ; = = = ; ; ; = ; ; ; ; = = ; ; ; $ ; ; ; = = ; ",
"; ; $ $ ; = = # $ ; ; = # = ; = = # = ; = = # ; ; ; $ $ ; = ; # $ ; ; ; # = = ; = # ; = = = # ; ",
"# = ; ; $ # ; ; ; # # ; ; ; # $ ; ; = # = ; ; = # = ; ; $ # ; ; ; # # ; = ; # $ ; ; = # $ ; ; ; ",
"$ = $ = = $ ; $ ; = ; $ $ ; ; ; $ $ ; = = $ = ; $ ; $ = = = = $ ; = = & = ; = = $ = = = = $ = ; ",
"= = # ; ; ; $ # ; ; ; # $ ; ; ; # = ; ; = # = ; ; $ # ; ; ; $ # ; ; ; # $ ; ; ; # = ; ; = # = ; ",
"; ; = $ ; ; ; $ $ ; ; ; $ ; ; ; ; = = ; ; ; & ; ; ; = $ ; ; ; = = ; ; ; = = ; ; = $ ; ; ; ; = ; ",
"= ; $ $ ; ; ; $ $ ; = ; # = ; $ = # ; = = = $ = 8 c { 2.4.2.2.R y = = ; # = = = ; # = = = = # ; ",
"@ = ; ; $ # ; ; ; $ # ; ; ; # $ ; ; = # = = e =.w.7.i.M.B.S.D.V.e.' t ; ; ; # $ ; ; ; # = ; ; ; ",
"= = # ; ; ; $ $ ; ; ; $ $ ; = ; # = ; = 0 V 5.5.#.X.I / ( | ..n.U.S.#.h & = = ; $ $ = = = # = ; ",
"; = $ ; ; ; $ $ ; ; ; $ $ ; ; ; $ = : c 9.3.! Y D z i & ; ; $ i  .I.I.+.u ; ; ; # = ; ; = $ = ; ",
"; ; $ $ ; ; ; $ $ ; ; ; $ = ; ; = 5 } 9.@.Y P z - = $ $ ; ; ; $ *  .T.m.T = ; ; ; $ = ; = = = ; ",
"$ = = = ; # ; = = = = ; = = = = 5 } 0.^ W B 7 = $ = = $ = # ; $ = r v.R.%.u = = = = = = = = $ ; ",
"@ = = ; = # ; ; = = # ; = - @ 5 ' 3.;.^ x ; ; = # ; ; ; = # ; ; ; $ g.E.x.N # = = = = # = ; = ; ",
"; = @ ; ; ; # # = ; = # $ = 9 ] 5.:.;.b = # = ; = = # = ; ; $ # ; ; f.Q.J.I ; ; # = = = = # = ; ",
"; ; = ; = ; = = ; ; ; = = - ` 0.7.>.v ; ; & ; = ; = $ ; = ; = = ; = s !.K.P ; ; $ = ; ; = = = ; ",
"; ; $ $ ; ; ; # = = ; ; # z @.u.>.v ; ; ; = # ; ; ; = # ; ; ; $ $ ; d ~.K.L ; ; = # = ; ; = # ; ",
"# = = = = # ; = = = # ; * T r.u.~ 5 ; # = = = = # = = = = # ; = - = h.~.v.F $ = = = = $ = ; = ; ",
"# ; = ; = $ ; = ; $ = = 3 @.s.>.e = = # = = = = # ; = = = # ; = ; $ G.W.$.Z $ $ ; = = # = = = ; ",
"; = @ = ; ; # # ; ; ; % D y.p.j # $ ; ; = # = ; = = # ; ; ; # # = p P.Y.o.3 ; = # $ ; ; = # = = ",
"; ; = = ; ; = = = ; ; t ) B.6.z = = ; = ; = = ; ; ; = = ; ; = = = d.L.n.I 1 ; ; = = ; ; ; = = ; ",
"; ; = # ; ; ; # $ ; ; g q.D.-.w = $ ; = ; $ $ ; ; ; $ $ ; ; ; # - b.I.*.A - ; ; = # = ; ; = # ; ",
"@ = = = = # ; ; = $ $ G H.U.E & = = = $ = = ; = # = ; = = # ; ; d.I.x.U k = # $ ; ; = # = ; = ; ",
"$ ; = ; = $ = = ; = & S J.L.r = = = ; $ = = = = $ = = = = = = q z.L.O.A * ; & ; = = ; $ = = = ; ",
"= = @ = = ; $ # ; ; ; J H.A.a ; # $ = ; = # = ; = = # = = ; # ,.I.k.U 1 # ; ; ; # $ ; ; ; # $ ; ",
"; ; ; = ; ; = = = ; ; S c.V.a = = = ; ; ; = = = ; = = = = ; M A.Z._ f = = = ; ; = $ ; ; ; ; = ; ",
"= ; $ $ = = ; $ $ ; ; G q.S.a = = # = ; = = # = = ; $ $ ; b N.L.O.A 6 = # = ; = = # ; ; = $ # ; ",
"@ = ; ; = # ; = ; $ # l O.B.[ = ; ; = # = ; ; = # = ; = b N.F.O.A % # ; ; ; # $ ; ; = # = ; ; ; ",
"= = $ = ; = = $ = = ; 2 H k.t.r & = = = = & = ; = = * M N.Z.O.C 5 & ; $ $ ; = ; $ $ ; $ ; $ = ; ",
"; = # ; ; ; $ $ ; = ; # o O.y.,.% = ; ; = # ; ; ; n &.C.x.) O 4 ; ; ; # $ ; ; ; # ; ; ; = # = ; ",
"; ; = = ; ; ; = = = ; ; , S @.y.8.c w ; ; ; p m j.x.n.*.H f 6 = = ; ; ; = = ; ; ; $ ; ; ; ; $ ; ",
"= = $ $ = = = $ = = = = # l + Q y.a.l.<.<.1.a.y.k.$.K O 1 = ; $ $ ; = ; # = = = = # ; = ; $ $ ; ",
"@ = ; ; = # = = ; # # ; ; ; > O H X.%.3.3.#.X.K G O 3 - $ # ; ; ; # # ; ; ; # $ ; ; = # = ; ; ; ",
"= = # = = = = # ; ; ; $ # ; = = < o . . .   X 1 7 & # ; ; = $ $ ; ; = $ $ ; = = # $ ; = = # = ; ",
"; = $ = = ; = $ ; ; ; $ & ; ; ; # = ; ; = $ = ; = = $ ; ; ; $ $ ; ; ; $ $ ; ; ; $ = ; ; = # = ; ",
"; ; = $ ; ; = = = ; ; ; $ = ; ; = $ ; ; ; = $ ; = ; $ $ ; ; ; $ = ; ; ; $ = ; ; ; $ ; ; ; ; $ ; ",
"= = $ = = $ ; $ = = $ ; $ = = = = $ ; $ = = = = = = = = = $ ; $ = = = ; $ = = = = $ ; $ = = $ ; ",
"@ = ; = = # ; ; ; # $ ; ; ; # $ ; = ; # = ; = = # = = = = # ; = ; $ # ; ; = # $ ; ; = # = ; ; ; ",
"; = # = = ; # # ; ; ; $ # ; ; = # $ ; ; = # = = = = # = ; ; $ # ; ; ; # # ; ; ; # $ ; ; = # = ; ",
"= = = ; ; ; = = ; ; ; $ = ; ; ; = = ; ; = = = = = = = ; = ; = = ; ; ; = = ; ; ; $ = ; ; ; $ ; ; ",
"; ; = # = ; ; $ $ ; ; ; # = ; ; = $ = = ; = $ ; = ; $ $ ; ; ; # $ ; ; ; # = ; ; = # ; ; ; = # ; ",
"# = = = = $ ; = = $ $ ; = ; $ $ ; = = $ = = = = $ = = = = $ ; = = $ $ ; = = $ $ ; = ; # = = = ; ",
"# = = ; = # ; = ; $ $ ; ; = $ = ; = = $ = = - = # ; = ; = # = = ; $ $ ; ; ; $ $ ; = ; # = $ = ; ",
"; = @ = ; ; # # ; ; = # # ; ; = @ $ ; = = @ = ; ; $ @ = ; ; # # ; ; ; # # = ; = # $ ; = = # = ; "
};
