/* XPM */
static char *result[] = {
/* columns rows colors chars-per-pixel */
"48 48 182 2 ",
"   c #DE6914",
".  c #E6750F",
"X  c #E7790F",
"o  c #E36713",
"O  c #E46C13",
"+  c #EA6D13",
"@  c #E67312",
"#  c #EA7213",
"$  c #E77A11",
"%  c #E97C12",
"&  c #ED7E20",
"*  c #E78214",
"=  c #EA8413",
"-  c #EC8A14",
";  c #EC851A",
":  c #EB8C1D",
">  c #F18617",
",  c #F18B14",
"<  c #F18D1C",
"1  c #EE9016",
"2  c #EE921B",
"3  c #EE9918",
"4  c #F39415",
"5  c #F49B15",
"6  c #F2951B",
"7  c #F39B1B",
"8  c #F2A117",
"9  c #FAA214",
"0  c #F2AB15",
"q  c #FBAF16",
"w  c #F5A31C",
"e  c #F8A219",
"r  c #F5AB1C",
"t  c #F9AB1C",
"y  c #F3B316",
"u  c #FCB013",
"i  c #F5BD17",
"p  c #FCBF16",
"a  c #F6B21D",
"s  c #FAB41C",
"d  c #F6BC1B",
"f  c #FDBE19",
"g  c #ED8C20",
"h  c #F18A24",
"j  c #EE9220",
"k  c #EE9A21",
"l  c #EB9A2B",
"z  c #F19C23",
"x  c #F2912C",
"c  c #F59A2A",
"v  c #F4A423",
"b  c #F9A724",
"n  c #F6AC23",
"m  c #F8AA23",
"M  c #F7A42B",
"N  c #F6AF2D",
"B  c #F9AF2B",
"V  c #F4B322",
"C  c #FAB523",
"Z  c #F6BB25",
"A  c #FABC24",
"S  c #F3B12E",
"D  c #F8B52B",
"F  c #F7BB2C",
"G  c #F9BC2C",
"H  c #F6A234",
"J  c #F4AD31",
"K  c #F7AD3C",
"L  c #F7B732",
"P  c #F8B434",
"I  c #F9BD33",
"U  c #F7B73B",
"Y  c #F5BC39",
"T  c #F9BB3C",
"R  c #FAC616",
"E  c #FDCB14",
"W  c #F4C21E",
"Q  c #FBC419",
"!  c #F7C91B",
"~  c #FCCC19",
"^  c #FCD216",
"/  c #FDD61C",
"(  c #FDDC1C",
")  c #F7C424",
"_  c #FBC224",
"`  c #F6CC25",
"'  c #FDCA27",
"]  c #F7C22B",
"[  c #FCC32B",
"{  c #F6CE2D",
"}  c #FCCB2B",
"|  c #F9D626",
" . c #FDD52E",
".. c #FDDB2C",
"X. c #F7C435",
"o. c #FCC432",
"O. c #F6C832",
"+. c #FCCB33",
"@. c #F6C43C",
"#. c #FAC53C",
"$. c #FBCB3B",
"%. c #F7D232",
"&. c #FDD433",
"*. c #FEDA34",
"=. c #FBD33C",
"-. c #FDDB3C",
";. c #FEE323",
":. c #FDE42C",
">. c #FDE82E",
",. c #FEE334",
"<. c #FEEA35",
"1. c #FEE33C",
"2. c #FEEA3A",
"3. c #FABF42",
"4. c #F7BE56",
"5. c #F5C446",
"6. c #F8C344",
"7. c #F7CA43",
"8. c #FACB44",
"9. c #F7CE4D",
"0. c #FBCD48",
"q. c #FBD344",
"w. c #FDDC42",
"e. c #FBD44B",
"r. c #FDDB4C",
"t. c #F7CC53",
"y. c #F6C55C",
"u. c #F5CD5C",
"i. c #FAD657",
"p. c #FDDC52",
"a. c #F6D45C",
"s. c #FAD55B",
"d. c #FBDC5C",
"f. c #FEE343",
"g. c #FFEC43",
"h. c #FEE24A",
"j. c #FEEC4B",
"k. c #FEF24D",
"l. c #FDE354",
"z. c #FEED54",
"x. c #FCE45C",
"c. c #FEEB5B",
"v. c #FEF354",
"b. c #FFF956",
"n. c #FEF45C",
"m. c #FFF95A",
"M. c #F7D662",
"N. c #F9D463",
"B. c #FBDB65",
"V. c #F9D26A",
"C. c #FDE661",
"Z. c #FEED64",
"A. c #FBE569",
"S. c #FDEE6C",
"D. c #FEF464",
"F. c #FFFB62",
"G. c #FEF26B",
"H. c #FEFB6D",
"J. c #FAE677",
"K. c #FCED73",
"L. c #F9EA78",
"P. c #FDF272",
"I. c #FFFB75",
"U. c #FEF77D",
"Y. c #FEF97A",
"T. c #F8E584",
"R. c #FBED87",
"E. c #F8EA8B",
"W. c #FEF684",
"Q. c #FEFA84",
"!. c #FEFB8A",
"~. c #F8EF95",
"^. c #F9F195",
"/. c #FFFB97",
"(. c #F8F19F",
"). c #FFFD9C",
"_. c #F9F2A6",
"`. c #FEFCA4",
"'. c #FEFCAA",
"]. c #F9F7B0",
"[. c #FCFBB4",
"{. c None",
/* pixels */
"{.{.{.{.{.{.{.{.{.{.{.{.{.{.{.{.{.{.{.{.{.{.{.{.{.{.{.r r a C C a t t w e {.{.{.{.{.{.{.{.{.{.{.",
"{.{.{.{.{.{.{.{.{.{.{.{.{.{.{.{.{.{.{.{.{.{.{.{.r C _ '  .,.1.1.1.1.&.' A t w {.{.{.{.{.{.{.{.{.",
"{.{.{.{.{.{.{.{.{.{.{.{.{.{.{.{.{.{.{.{.{.{.A '  .,.<.2.g.j.v.v.b.b.b.v.g.*._ t w {.{.{.{.{.{.{.",
"{.{.{.{.{.{.{.{.{.{.{.{.{.{.{.{.{.{.{.{.A } ,.2.2.*.} ` [ o.#.8.e.l.c.F.F.m.k.*.A w w {.{.{.{.{.",
"{.{.{.{.{.{.{.{.{.{.{.{.{.{.{.{.{.{.C A  .*.} A w 6 , : 6 h h h x x H 3.p.F.I.F.f.A e e {.{.{.{.",
"{.{.{.{.{.{.{.{.{.{.{.{.{.{.{.{.n [ +.} _ r 4 , > < ; h {.{.{.{.{.{.{.{.c T x.I.I.l.A t w {.{.{.",
"{.{.{.{.{.{.{.{.{.{.{.{.{.{.{.A +.$.[ t 5 4 4 5 7 {.{.{.{.{.{.{.{.{.{.{.{.{.M p.Y.Y.p.C w {.{.{.",
"{.{.{.{.{.{.{.{.{.{.{.{.{.b G +.+.C 7 4 5 5 5 {.{.{.{.{.{.{.{.{.{.{.{.{.{.{.{.M r.Q.W.e.m e {.{.",
"{.{.{.{.{.{.{.{.{.{.{.{.m [ +.[ t 5 5 e e {.{.{.{.{.{.{.{.{.{.{.{.{.{.{.{.{.{.{.B c.!.K.o.w {.{.",
"{.{.{.{.{.{.{.{.{.{.{.b [ $.[ t 9 9 e w {.{.{.{.{.{.{.{.{.{.{.{.{.{.{.{.{.{.{.{.c 8.U.!.p.n w {.",
"{.{.{.{.{.{.{.{.{.{.v G +.[ s u q t {.{.{.{.{.{.{.{.{.{.{.{.{.{.{.{.{.{.{.{.{.{.{.U G./.S.A 5 {.",
"{.{.{.{.{.{.{.{.{.7 D [ [ p R p s {.{.{.{.{.{.{.{.{.{.{.{.{.{.{.{.{.{.{.{.{.{.{.{.K A./.W.+.e {.",
"{.{.{.{.{.{.{.{.z D [ ' Q R Q a {.{.{.{.{.{.{.{.{.{.{.{.{.{.{.{.{.{.{.{.{.{.{.{.{.K B.)./.0.t 6 ",
"{.{.{.{.{.{.{.l P +.' ~ E E A {.{.{.{.{.{.{.{.{.{.{.{.{.{.{.{.{.{.{.{.{.{.{.{.{.{.K B.).`.s.v 4 ",
"{.{.{.{.{.{.z B +. .~ ^ E Q {.{.{.{.{.{.{.{.{.{.{.{.{.{.{.{.{.{.{.{.{.{.{.{.{.{.{.{.d.`.[.N.w 6 ",
"{.{.{.{.{.6 b +.&.../ ^ E {.{.{.{.{.{.{.{.{.{.{.{.{.{.{.{.{.{.{.{.{.{.{.{.{.{.{.{.{.d.'.[.V.v 1 ",
"{.{.{.{.{.7 A ....( / R {.{.{.{.{.{.{.{.{.{.{.{.{.{.{.{.{.{.{.{.{.{.{.{.{.{.{.{.{.{.A.[.[.V.w 2 ",
"{.{.{.{.2 m &.:.;.^ R {.{.{.{.{.{.{.{.{.{.{.{.{.{.{.{.{.{.{.{.{.{.{.{.{.{.{.{.{.{.{.J.[.'.t.8 - ",
"{.{.{.{.6 [ ,.:.( R y {.{.{.{.{.{.{.{.{.{.{.{.{.{.{.{.{.{.{.{.{.{.{.{.{.{.{.{.{.{.4.R.[.(.@.8 = ",
"{.{.{.- t *.<.;.^ y {.{.{.{.{.{.{.{.{.{.{.{.{.{.{.{.{.{.{.{.{.{.{.{.{.{.{.{.{.{.{.y.^.[.T.Z 5 = ",
"{.{.{.1 A 2.<.( i {.{.{.{.{.{.{.{.{.{.{.{.{.{.{.{.{.{.{.{.{.{.{.{.{.{.{.{.{.{.{.{.u.~._.M.y - $ ",
"{.{.- 5 %.g.<.~ 0 {.{.{.{.{.{.{.{.{.{.{.{.{.{.{.{.{.{.{.{.{.{.{.{.{.{.{.{.{.{.{.{.a.E.E.9.r = {.",
"{.{.- n f.g.:.i {.{.{.{.{.{.{.{.{.{.{.{.{.{.{.{.{.{.{.{.{.{.{.{.{.{.{.{.{.{.{.{.7.x.L.J.7.8 $ {.",
"{.* - X.j.g./ y {.{.{.{.{.{.{.{.{.{.{.{.{.{.{.{.{.{.{.{.{.{.{.{.{.{.{.{.{.{.{.{.7.x.S.A.X.3 $ {.",
"{.- 3 q.v.2.W 0 {.{.{.{.{.{.{.{.{.{.{.{.{.{.{.{.{.{.{.{.{.{.{.{.{.{.{.{.{.{.{.{.q.Z.G.e.V - X {.",
"{.= S x.v.:.i {.{.{.{.{.{.{.{.{.{.{.{.{.{.{.{.{.{.{.{.{.{.{.{.{.{.{.{.{.{.{.{.5.l.G.C.I 8 % {.{.",
"* : 5.P.F...y {.{.{.{.{.{.{.{.{.{.{.{.{.{.{.{.{.{.{.{.{.{.{.{.{.{.{.{.{.{.{.{.i.D.S.0.v 1 $ {.{.",
"* j u.W.H.| y {.{.{.{.{.{.{.{.{.{.{.{.{.{.{.{.{.{.{.{.{.{.{.{.{.{.{.{.{.{.{.t.C.S.x.D 5 = {.{.{.",
"* g B.Q.D.` {.{.{.{.{.{.{.{.{.{.{.{.{.{.{.{.{.{.{.{.{.{.{.{.{.{.{.{.{.{.{.{.r.G.S.7.e - % {.{.{.",
"* : B.!.n.) {.{.{.{.{.{.{.{.{.{.{.{.{.{.{.{.{.{.{.{.{.{.{.{.{.{.{.{.{.{.{.#.x.G.d.V 6 = {.{.{.{.",
"* 2 B.Q.n.W {.{.{.{.{.{.{.{.{.{.{.{.{.{.{.{.{.{.{.{.{.{.{.{.{.{.{.{.{.{.L r.S.Z.#.7 , X {.{.{.{.",
"= k a.Y.v.W {.{.{.{.{.{.{.{.{.{.{.{.{.{.{.{.{.{.{.{.{.{.{.{.{.{.{.{.{.{.$.c.G.p.m 5 % {.{.{.{.{.",
"= 1 7.F.k.W {.{.{.{.{.{.{.{.{.{.{.{.{.{.{.{.{.{.{.{.{.{.{.{.{.{.{.{.{.o.l.G.C.I 6 = {.{.{.{.{.{.",
"= 3 $.n.v.` {.{.{.{.{.{.{.{.{.{.{.{.{.{.{.{.{.{.{.{.{.{.{.{.{.{.{.{.G r.S.S.8.7 > . {.{.{.{.{.{.",
"* - X.n.v.O.{.{.{.{.{.{.{.{.{.{.{.{.{.{.{.{.{.{.{.{.{.{.{.{.{.{.{.G w.D.Z.0.w - . {.{.{.{.{.{.{.",
"* * S z.v.%.{.{.{.{.{.{.{.{.{.{.{.{.{.{.{.{.{.{.{.{.{.{.{.{.{.{.G -.v.D.e.v - $ {.{.{.{.{.{.{.{.",
"{.* z q.z.-.r {.{.{.{.{.{.{.{.{.{.{.{.{.{.{.{.{.{.{.{.{.{.{.{.F w.v.n.8.v - @ {.{.{.{.{.{.{.{.{.",
"{.X ; L h.w.Z {.{.{.{.{.{.{.{.{.{.{.{.{.{.{.{.{.{.{.{.{.{.{.G -.c.c.0.M - $ {.{.{.{.{.{.{.{.{.{.",
"{.$ $ k q.h.O.n {.{.{.{.{.{.{.{.{.{.{.{.{.{.{.{.{.{.{.{.{.G w.z.x.5.v - $ {.{.{.{.{.{.{.{.{.{.{.",
"{.{.@ ; D w.-.F {.{.{.{.{.{.{.{.{.{.{.{.{.{.{.{.{.{.{.n X.h.c.l.Y 6 = $ {.{.{.{.{.{.{.{.{.{.{.{.",
"{.{.@ % 6 o.-.=.Z {.{.{.{.{.{.{.{.{.{.{.{.{.{.{.{.J P 8.c.c.r.S 2 % X {.{.{.{.{.{.{.{.{.{.{.{.{.",
"{.{.{.@ % 7 +.-.-.] V {.{.{.{.{.{.{.{.{.{.{.{.P T 0.l.z.p.@.k = % X {.{.{.{.{.{.{.{.{.{.{.{.{.{.",
"{.{.{.{.% % v [ -.w.+.] Z {.{.{.{.{.{.{.O.X.$.e.p.l.r.$.v - $ X {.{.{.{.{.{.{.{.{.{.{.{.{.{.{.{.",
"{.{.{.{.$ # % 7 [ *.f.f.w.q.$.=.=.-.-.*.1.f.f.h.=.G k = X . @ {.{.{.{.{.{.{.{.{.{.{.{.{.{.{.{.{.",
"{.{.{.{.{.{.@ # > t +.*.1.f.j.g.g.2.,.,. . .] n 1 $ X . @ {.{.{.{.{.{.{.{.{.{.{.{.{.{.{.{.{.{.{.",
"{.{.{.{.{.{.{.@ + # = 6 w V Z _ Z Z V w 6 > % # # . . {.{.{.{.{.{.{.{.{.{.{.{.{.{.{.{.{.{.{.{.{.",
"{.{.{.{.{.{.{.{.{.# O + O O O # @ @ O O O + + # {.{.{.{.{.{.{.{.{.{.{.{.{.{.{.{.{.{.{.{.{.{.{.{.",
"{.{.{.{.{.{.{.{.{.{.{.@ @ @ + o o       o {.{.{.{.{.{.{.{.{.{.{.{.{.{.{.{.{.{.{.{.{.{.{.{.{.{.{."
};
