/* XPM */
static char *eda36c625d0f4cc7b29ff307a14beb53jgl9gvhZnigmZRR8[] = {
/* columns rows colors chars-per-pixel */
"48 48 192 2 ",
"   c None",
".  c #1A1512",
"X  c #27221E",
"o  c #322C2A",
"O  c #353230",
"+  c #272426",
"@  c #44392E",
"#  c #2E334D",
"$  c #263467",
"%  c #266654",
"&  c #23637E",
"*  c #796B5F",
"=  c #54597E",
"-  c #47527C",
";  c #695B7E",
":  c #87657E",
">  c #A07175",
",  c #229A2E",
"<  c #4EB32B",
"1  c #59C01B",
"2  c #258044",
"3  c #B8B43B",
"4  c #CABD13",
"5  c #A0C10B",
"6  c #998A4D",
"7  c #A7845A",
"8  c #A8AA4E",
"9  c #9B8F71",
"0  c #B39062",
"q  c #BC867F",
"w  c #DF9F6A",
"e  c #C38777",
"r  c #CFA37B",
"t  c #D4B07E",
"y  c #D0A875",
"u  c #EAA86D",
"i  c #F2AD75",
"p  c #E7B47D",
"a  c #FABC7D",
"s  c #F3B57C",
"d  c #E8A972",
"f  c #01278F",
"g  c #042A95",
"h  c #022B9C",
"j  c #042992",
"k  c #0D359E",
"l  c #0F389F",
"z  c #113B9E",
"x  c #173498",
"c  c #0E388A",
"v  c #022DA4",
"b  c #022FAB",
"n  c #0631A5",
"m  c #0B35A3",
"M  c #0431AC",
"N  c #0B37AB",
"B  c #0E39AA",
"V  c #0F39A0",
"C  c #113BA4",
"Z  c #123DAB",
"A  c #1637A7",
"S  c #0332B4",
"D  c #0937B4",
"F  c #0F3CB3",
"G  c #0435BC",
"H  c #093ABD",
"J  c #0739BE",
"K  c #113DB3",
"L  c #103FBC",
"P  c #4E34BA",
"I  c #274599",
"U  c #3C5096",
"Y  c #3F4697",
"T  c #1A44AA",
"R  c #1642B3",
"E  c #1443BA",
"W  c #1C4AB9",
"Q  c #1C45B4",
"!  c #204CBE",
"~  c #2F4AB7",
"^  c #2250BF",
"/  c #3753BE",
"(  c #3953A2",
")  c #4C4B93",
"_  c #4D5492",
"`  c #60538F",
"'  c #6C5595",
"]  c #67619E",
"[  c #707296",
"{  c #7D6898",
"}  c #4A51AE",
"|  c #4E4DBB",
" . c #624AA2",
".. c #6A5FA2",
"X. c #7259B1",
"o. c #4863BA",
"O. c #5864AF",
"+. c #6265A1",
"@. c #7175A2",
"#. c #6F7BB2",
"$. c #6872A3",
"%. c #2816DF",
"&. c #0437C2",
"*. c #0538C5",
"=. c #093BC5",
"-. c #0137CA",
";. c #053ACC",
":. c #0B3ECB",
">. c #143FCB",
",. c #053CD3",
"<. c #0A3FD4",
"1. c #043DD9",
"2. c #311BED",
"3. c #2511F0",
"4. c #331FF9",
"5. c #2814E6",
"6. c #3C2AEE",
"7. c #422CCB",
"8. c #4432F1",
"9. c #0E41C9",
"0. c #194AC5",
"q. c #1345CE",
"w. c #1B4DCD",
"e. c #1A47C9",
"r. c #1C50CD",
"t. c #0B41D5",
"y. c #0A42D8",
"u. c #1247D4",
"i. c #164BD4",
"p. c #2448C4",
"a. c #2757CC",
"s. c #345ACF",
"d. c #3259D0",
"f. c #285AD4",
"g. c #556FC7",
"h. c #5D4BEB",
"j. c #8D738F",
"k. c #8F768F",
"l. c #A67B84",
"z. c #857DA5",
"x. c #798ECE",
"c. c #718EE2",
"v. c #96918E",
"b. c #998C94",
"n. c #BE8982",
"m. c #AB9788",
"M. c #B7998A",
"N. c #A38996",
"B. c #B29B90",
"V. c #B9A196",
"C. c #908CAE",
"Z. c #9B90A5",
"A. c #9290B3",
"S. c #8A8DA8",
"D. c #A191A2",
"F. c #B5B3B1",
"G. c #C18D83",
"H. c #DCB588",
"J. c #CBAB90",
"K. c #EBAE82",
"L. c #EEBE86",
"P. c #E8BD8C",
"I. c #F5BE86",
"U. c #C1BCBC",
"Y. c #EFC48F",
"T. c #FDC484",
"R. c #FEC986",
"E. c #FECE8E",
"W. c #F6C58A",
"Q. c #FFD08E",
"!. c #E9C89D",
"~. c #FCCE91",
"^. c #F5CC93",
"/. c #FED292",
"(. c #FCD599",
"). c #FEDB9D",
"_. c #F0CFA2",
"`. c #FCDAA4",
"'. c #FFE2A3",
"]. c #92A4D8",
"[. c #ACB6DC",
"{. c #C9CACA",
"}. c #DDDDDD",
"|. c gray82",
" X c #DCDCE1",
".X c #DDE2F2",
"XX c #E5E5E5",
"oX c #EAEAEA",
"OX c #E8E6E5",
"+X c #F4F1EF",
"@X c #F3F3F3",
"#X c #FBFBFB",
/* pixels */
"                                                                                                ",
"                                                                                                ",
"                                                                                                ",
"                                                                                                ",
"                                                                                                ",
"                                                                                                ",
"                                              ^ 0.0.0.w.a.                                      ",
"                                          W E &.&.&.*.-.:.q.a.                                  ",
"                                        R G G G &.*.-.;.;.;.<.w.                                ",
"                                      R S S G &.*.*.;.;.;.;.,.;.w.                              ",
"                                    F M S G G *.*.-.;.;.,.;.,.,.,.r.                            ",
"                                  R M M G p.U $ I :.,.,.,.,.,.,.;.w.f.                          ",
"                                  D b S D ].v.X + ( ,.,.,.;.,.:.c.[.-                           ",
"                                E S S S D - o . . = 0.} z.Z.#.g.XXF.O o                         ",
"                                S S S Z S.r 0 7 7 r J.I.R.Q.t * m.O X #                         ",
"                              F b b S Y W.'.).Q.a a R.Q.R.R.L.P.^.K.y V.                        ",
"                              v v b b x > ~.'.`.I.w u s a a R./.W.L.^.`.`.                      ",
"                  ! ! ! T T l k h v v h x j.K.(.).^.s d u i s I.~.`.'._.                        ",
"              E H =.*.H D N v v h h v v g h ) q I./.~.R.W.I.W.(.`.(.J.O.p.                      ",
"            F J ;.<.;.&.J S S M v h v v h h v A ` e i I.T.T.T.I.M.+.K S *.:.9.q.q.i.            ",
"          F *.;.:.:.*.&.J G S M b v v M h h h v v A ) : > > : ) A b b S ;.<.,.1.1.<.u.f.        ",
"        o.*.9.E E   B S *.&.D S b b v b b h h g f g g v h v h g h v b -.;.,.1.1.y.<.1.u.        ",
"      #X.X].        C M G *.&.S S M b v v v v k j j j g h g j f b b G ;.,.,.1.y.w.  E 9.r.      ",
"    +X#X#X+X          N S ;.=.J S S S b v x I _ m.M.M.B.b.[ U k b b *.;.;.,.1.y.      #.x..X    ",
"    #X#X#XoX          N S ;.;.*.*.J G R $.V.P.H.E.R.R./.Q.Q.Y.V.@.K ;.,.1.1.1.u.      F.OX#X    ",
"  oX@X@XoXoX          B S *.;.:.;.*.*.S.).~.~.E.~.~.E.E.E.E.E.Q.(.B.p.1.,.1.1.u.      {.OX@X#X  ",
"  }.OX+XOX            Z M G ;.;.;.t./ !.).Q.E.E.E.E.E.E.E.E.E.E.~.~.A.1.1.1.1.w.      {.|.}.oX  ",
"      @X                M S &.;.,.,.O.(.).E.E.E.~.E.E.E.~.E.E.E.E.~.!.d.1.1.<.w.        |.}.XX  ",
"                        N S G ;.,.,.s.L.)./.E.E.E.~.~.E.E.E.E.~.E.E.^.g.1.1.t.                  ",
"                        Z b S *.;.y.;.N.~.~.E.E.E.E.E.E.E.E.E.E.E.Q.!.s.1.1.q.                  ",
"                          N S G ;.,.1.p.n.I.~./.E.E.Q.~.E.E.E.E./.(.C.y.1.,.w.                  ",
"                            D S *.,.,.1.p.l.a R./.E.E.E.~.E././.^.Z.q.;.-.9.                    ",
"                            K M G *.;.,.,.q...G.s T.T.R.E.W.H.N.o.:.;.&.H W                     ",
"                              Z M G &.*.-.,.,.>.} { k.k.k.' ~ =.*.&.S D R                       ",
"                                B M S S &.-.;.;.,.;.<.;.;.-.*.&.S S D R                         ",
"                                  n v M S S G &.&.&.J &.&.G S S S M T                           ",
"                                  k h n M M M N b S b v M n m v v N                             ",
"                                  m n C     C A V l V z z     C v B                             ",
"                                  Z K                           m Z                             ",
"                                  C R                         % c I                             ",
"                                  % &                         , ,                               ",
"                                  1 <                         ` 5 8                             ",
"                                  9 3                         6 4 P 8.h.                        ",
"                                8.4.X.                          6 P 3.2.                        ",
"                              7.5.5.|                                . .                        ",
"                                ' '                                                             ",
"                                                                                                ",
"                                                                                                "
};
