/* XPM */
static char *result[] = {
/* columns rows colors chars-per-pixel */
"48 48 217 2 ",
"   c #191207",
".  c #1D1C20",
"X  c #26262F",
"o  c #493A29",
"O  c #503F2B",
"+  c #2E4425",
"@  c #366B3A",
"#  c #444139",
"$  c #2D355A",
"%  c #065F5E",
"&  c #237857",
"*  c #19557B",
"=  c #1C6979",
"-  c #1E7273",
";  c #2B726F",
":  c #237B69",
">  c #237978",
",  c #625A4B",
"<  c #717159",
"1  c #6F5F62",
"2  c #457669",
"3  c #567171",
"4  c #8D6D7D",
"5  c #857372",
"6  c #27942F",
"7  c #299E29",
"8  c #2C9A3A",
"9  c #329333",
"0  c #2CA52C",
"q  c #2FA92F",
"w  c #2CA232",
"e  c #2FA932",
"r  c #31AE31",
"t  c #35A53A",
"y  c #32AB39",
"u  c #33B033",
"i  c #3BB23B",
"p  c #56A833",
"a  c #5EC112",
"s  c #26894F",
"d  c #2B9648",
"f  c #2D9B4C",
"g  c #329947",
"h  c #278957",
"j  c #25835C",
"k  c #2C9354",
"l  c #2EA045",
"z  c #34A746",
"x  c #268363",
"c  c #288867",
"v  c #388E6A",
"b  c #258278",
"n  c #49885C",
"m  c #4AB149",
"M  c #56B856",
"N  c #6EA25F",
"B  c #44906A",
"V  c #6FB76E",
"C  c #5EC05E",
"Z  c #75C475",
"A  c #94BF2F",
"S  c #A6AA28",
"D  c #C6B21D",
"F  c #A0C71B",
"G  c #A88A5F",
"H  c #9A986A",
"J  c #C79475",
"K  c #D0A872",
"L  c #E6A56B",
"P  c #F1AE75",
"I  c #F4B57B",
"U  c #F3BC7F",
"Y  c #FCBE7E",
"T  c #A7CE72",
"R  c #001E98",
"E  c #08268E",
"W  c #022A9C",
"Q  c #082898",
"!  c #152897",
"~  c #0A349E",
"^  c #123B9E",
"/  c #2E3E98",
"(  c #001FA1",
")  c #0227A6",
"_  c #012CA4",
"`  c #012EAB",
"'  c #0631A5",
"]  c #0C35A3",
"[  c #0431AC",
"{  c #0A36AD",
"}  c #0D3DA9",
"|  c #1338A7",
" . c #032CB1",
".. c #002EB9",
"X. c #0332B4",
"o. c #0A36B1",
"O. c #0D3AB5",
"+. c #0335BC",
"@. c #0837BD",
"#. c #0B3BBD",
"$. c #123FB9",
"%. c #393BB0",
"&. c #19538D",
"*. c #134999",
"=. c #195699",
"-. c #294397",
";. c #2B5693",
":. c #3D569E",
">. c #1A648A",
",. c #1E6599",
"<. c #2D6E8C",
"1. c #21699F",
"2. c #0F40A5",
"3. c #154BA9",
"4. c #0F50AE",
"5. c #1841BD",
"6. c #1656B8",
"7. c #2947A7",
"8. c #3051B0",
"9. c #1B63A5",
"0. c #2868A7",
"q. c #2561B6",
"w. c #454993",
"e. c #515590",
"r. c #655D8D",
"t. c #71598A",
"y. c #56688D",
"u. c #65678E",
"i. c #706F93",
"p. c #4957A9",
"a. c #565DA8",
"s. c #4456B8",
"d. c #7C59B3",
"f. c #536AA8",
"g. c #4661BA",
"h. c #5668B9",
"j. c #6C75AE",
"k. c #002FC9",
"l. c #0336C2",
"z. c #0538C4",
"x. c #093CC3",
"c. c #0135CC",
"v. c #053ACC",
"b. c #0A3DCB",
"n. c #1239C6",
"m. c #0035D2",
"M. c #043BD4",
"N. c #093ED3",
"B. c #0035DA",
"V. c #033CDA",
"C. c #342FCA",
"Z. c #2915F5",
"A. c #3521E4",
"S. c #0D44C6",
"D. c #1646C6",
"F. c #1249CA",
"G. c #0B41D4",
"H. c #0740DC",
"J. c #1648D3",
"K. c #2248C3",
"L. c #3158CB",
"P. c #3063D4",
"I. c #637BC4",
"U. c #886B85",
"Y. c #977D8A",
"T. c #917A97",
"R. c #278087",
"E. c #598F95",
"W. c #7983AF",
"Q. c #7C92D5",
"!. c #9C9198",
"~. c #B78D89",
"^. c #AF9493",
"/. c #B9A89A",
"(. c #8C8BB0",
"). c #A39DB0",
"_. c #B0AAB0",
"`. c #CC9683",
"'. c #C59989",
"]. c #CBAB91",
"[. c #DBBA96",
"{. c #EEBD86",
"}. c #E4BD89",
"|. c #F4BD83",
" X c #E5BD93",
".X c #C3ADA3",
"XX c #88C98B",
"oX c #A8DBA6",
"OX c #EDC28C",
"+X c #F8C587",
"@X c #FECB84",
"#X c #FECE8E",
"$X c #FFD285",
"%X c #FFD38D",
"&X c #FFDB8D",
"*X c #F6CB94",
"=X c #FDCE91",
"-X c #FED391",
";X c #FAD697",
":X c #FEDA9C",
">X c #FFE29C",
",X c #FFEA9A",
"<X c #C8C5BD",
"1X c #FEDDA3",
"2X c #FFE7A4",
"3X c #92A7E3",
"4X c #BAC1DD",
"5X c #CCCDCD",
"6X c #D8D8D8",
"7X c #C2CAE6",
"8X c #E3E3E4",
"9X c #EAE9E9",
"0X c #F7F3EE",
"qX c #ECEFF8",
"wX c #F3F4F3",
"eX c #FAF9F3",
"rX c #FBFBFB",
/* pixels */
"u u u u u u u r r u u u u u u u u r u u r r y K.K.F.D.F.L.f u u u u u u u u r u u u u u u u u u ",
"u u q 0 u u u 0 q u u r 0 r u u r 0 u u y 9.=.x.#.S.z.v.F.6.q.f e u u r 0 r u u r 0 r u r r 0 u ",
"0 r u u r 0 u u r q 0 u r r 0 q u u r 0 =.5.@.+.l.l.z.v.v.b.J.6.l r 0 u r r 0 q u r u 0 r u r u ",
"0 r r r r q r r u r r r r u q r r r u >.O.X.@.+.l.z.v.v.v.v.M.F.,.l r u r u r r r r u q r r r u ",
"u q 0 u u u 0 0 u u u 0 q u u u 0 q > } X.X.l.c.c.z.v.v.v.v.M.M.G.<.z 0 q u u u 0 q u u r 0 r r ",
"u r r r u u u r r u u u r r u u y x } [ X...@.x.b.m.v.v.M.v.M.M.m.S.R.y q r u u r r u u r r r u ",
"u r q q r r u q q u u r 0 r u u f 3.' ` z.L.:.$ -.b.M.M.V.m.M.M.V.J.P.k q q u r r 0 r r r r 0 u ",
"7 u u u q 0 u u u q 0 u u r 0 q x o.` X.$.Q.i.. X 7.M.m.M.m.M.c.P.Q.I.@ u u 0 q u u r 0 r u u u ",
"q r q u u r r q r r r q q u r l >.X.X.X.| W.,     e.S.K.s.h.s.K.3X8XU.+ 9 r u u q r r r r q r u ",
"u r 0 u u u q q r u u q q u u x @.X.X.O.p.1 O O # 5 f.T./.[./.i._./.# . @ u u u 0 r u u r 0 r r ",
"u u r q u u u q r u u u r r y :  .X.X.:..XU K K K P U @X$X$X@XG H 5 o X N e e u r r u u u u r r ",
"r u q q r r u q r r r r 0 r : { `  .{ r.%X2X1X-XY I @X$X@X@X+XOX*X+X{.].T 0 r e r q r r r r q u ",
"7 u u u q 0 u u u q 7 r r u & _ _ ` ` -.J -X2X1X|.L L I Y Y @X=X#X|.OX;X2XT 0 q r r r 0 r r r u ",
"u q 0 u u r e q > 9.0.1.>.;.*.W W ` W ! w.'.+X1X;XOXI L L P I |.+X;X1X2XV y r r q q r r r q r u ",
"u r q u u u : >.3.D.$.O.| ] ' ~ W _ ' W ! :.Y.I &X:X*XU I I U +X1X2X,X[.f.c e r q r u u r q r u ",
"u u q q u h 3.#.b.v.z.@.o.[ ` _ W W _ _ Q Q / i.~.Y @X$X%X#X%X&X;X[.!.p.$.9.b > b R.c u u r q u ",
"q u u e k *.x.v.M.M.z.z.+.X.X.` W W ' _ W W _ ] w.U.`.`.Y Y P ].^.a./  ...b.S.S.F.S.6.c v u r u ",
"0 u u z &.l.b.b.6.4.l.l.@.+.[ [ [ _ _ [ W W W ) ) | w.t.4 4 4 r./ )  . .l.M.G.G.H.G.G.6.0.u u u ",
"r q z E.S.5.3.3.c >.{ +.z.+.o.[ ` ` ' [ _ W W W R R R ! ! ! ! E W ) ` ..v.M.M.V.H.G.F.G.F.w r r ",
"u i oX7XQ.- x x y - ' X.z.z.+.X.[ [ _ _ ` W W ~ E E E ( ( R R R W ` ` l.M.M.M.V.G.9.b 5.S.R.u r ",
"u XXrXrX0Xz u q r k *.[ @.v.l.+.X.X.[ _ W W | -.u.u.u.u.e.w.-.~ ) ` +.v.v.M.V.V.6.h u >.g.Q.XXr ",
"0 wXrXrXeXM u r r r - [ l.M.x.@.+.+.+.} 7.u.i.Y. X{.{.OX X].!.u.:.| +.v.M.M.N.V.9.r u y ).4XqXu ",
"M wXrXrX9XM u r r q = ' +.v.v.v.z.+.@.g.!. X%X+X-X$X@X&X-X&X&XOX/.f.5.M.V.N.V.G.9.r r m <X0XeXC ",
"9XwXwX9X9XM q 0 r r - { +.v.b.b.v.z.D./.2X-X#X%X=X*X#X#X%X=X%X-X:X}.j.N.V.V.V.G.9.q u z 4X8XwXeX",
"6X9X0X9XM u u u u u = { X.l.v.v.v.J.h.:X:X#X=X#X#X=X#X#X#X#X#X%X=X%X.XL.B.H.V.G.1.r u m 5X6X8X9X",
"M M wXV i u u q q u y = ` l.v.v.M.D.j.>X:X#X#X#X=X#X#X#X=X=X#X=X#X%X;XW.H.B.N.G.9.0 u u V 5X8X9X",
"0 u Z i q q u q r e 0 - X.+.z.M.M.G.j.&X:X%X#X#X=X=X=X#X=X#X#X=X#X#X;X).J.B.H.6.f r u 0 q V V Z ",
"q q u u r q u e r r e - {  .l.v.M.N.g.|.>X-X#X#X#X=X=X#X#X#X#X=X=X%X&X).J.H.H.9.r r u q u r u i ",
"u q 0 r u u 0 q u u u s *.[ +.z.N.V.D.!.@X#X=X=X#X#X#X#X#X#X#X#X%X&X&X(.H.V.G.1.0 r r r r 0 q u ",
"u u r r u u r r r u u y : } X.l.M.M.B.s.`.Y %X%X-X#X-X=X=X#X=X%X&X&X.XL.B.M.F.b r r u r u r r u ",
"r u q q r r u q e u u u 7 = X.+.v.M.M.V.s.~.Y @X&X#X%X%X%X%X&X%X%X.Xh.M.m.v.9.g r 0 r u u r 0 u ",
"0 u u u q 0 u r u e 0 u e x O. .l.v.v.V.V.8.Y.`.|.@X@X@X#X#XOX].(.g.v.c.l.5.> r u u r 0 q u u u ",
"q r q u r r r q r r r r q l >.[ X.z.v.v.m.V.n.a.Y.'.'.'.'.~.T.a.D.k.k.@.O.=.k r r r u r r q r r ",
"r q q u u u q q u u u 0 q u f *.' +.@.@.z.m.m.B.n.8.s.p.p.%.@.c.k.X.X.o.3.k i u 0 q u u r 0 r u ",
"u u q q u u u r r u u u r r r f 2.' ` X.l.z.c.v.m.m.B.k.m.m.z.l.X.X.o.3.j r u u u r r u u r r u ",
"r u q q u r r q q u r r 0 r r r h ' _  .X.X.+.+.l.@.@.k.l.+.X.o.X.` } : 0 r r r r 0 u r r r 0 u ",
"0 r r u q 0 u u u 0 q u u u 0 q s ~ W ' ` ` { {  . .` ` [ ' ] ' _ ' : r u u 0 q u u r 0 r u u u ",
"r q q u u r q q u r u 0 0 u r u s ~ _ *.g s | | ] | ] ~ ] j 8 *.` ' : q q u r u 0 r r r r 0 r u ",
"u r 0 u u u q q u u u q r u u u h { *.k u 0 j j j j & j j t r 8 * o.: e q u u u 0 r u u u 0 r u ",
"u u r q u u u q r u u u 0 r u u h O.=.u u r q r r r r r r u u 8 *  .; u q r r u u q r u u u q u ",
"r r q r r q r q r r r u q r r r s ^ =.q r r q u r r r r r q r 6 % ; t u q r r r r q r r r r q u ",
"7 u r r r q u r u 0 0 u u u 0 q t & : 0 r u u r 7 r r r r 0 r d 6 p w u u u 0 q u u r 0 r r u u ",
"r r 0 r r r q 0 u u u 0 0 u u r 8 a p y r 0 r u u r 0 r r u q 2 A F n d q u u u 0 q r u r 0 r u ",
"u r r u u u r r u u u r r u u u v A A r u q r r u r r u r u u < D 5 s.g.B u u u r r u u u q r u ",
"u r r q r r r q r r u u 0 r u g s.d.H r r r q u u r r q r r u p S 1 Z.A.:.r u u r 0 u r u r 0 u ",
"q r r r r q u r r r q u r u g :.Z.Z.p.w r r r r q r r r r q u r p 3 %.A.<.u q q u r r q r r r u ",
"q r r r r q r r r q q r u u : C.C.C.y.0 r r u r q r r r r q r r u q 2 t.n u 0 q u u u 0 r q r u ",
"r q 7 r u r q 0 u r r 0 q u u n t.y.u u r 7 r u r q 7 r r r q 0 u u r 0 0 u u r 0 q u r r 0 r u "
};
