/* XPM */
static char *c23f9bd72d6a4e329936d2bacb7673ba83eN5e5nDPasOAWb[] = {
/* columns rows colors chars-per-pixel */
"48 48 172 2 ",
"   c #382D15",
".  c #2B3C1D",
"X  c #353218",
"o  c #3B3319",
"O  c #353C1D",
"+  c #393A1C",
"@  c #443519",
"#  c #433F22",
"$  c #26421F",
"%  c #1C4E26",
"&  c #15572A",
"*  c #1D552A",
"=  c #155C2E",
"-  c #1B5C2E",
";  c #264320",
":  c #2B4724",
">  c #22542A",
",  c #0F6F38",
"<  c #146331",
"1  c #1B6131",
"2  c #126B36",
"3  c #196E3C",
"4  c #0F7137",
"5  c #0E743A",
"6  c #0E7B3D",
"7  c #137037",
"8  c #117539",
"9  c #147C3C",
"0  c #226334",
"q  c #28663C",
"w  c #246D3B",
"e  c #286E3F",
"r  c #27733E",
"t  c #524423",
"y  c #58462A",
"u  c #625232",
"i  c #1A7943",
"p  c #2F6F45",
"a  c #2B7445",
"s  c #2F7846",
"d  c #2C7448",
"f  c #307A48",
"g  c #397D52",
"h  c #0E813F",
"j  c #14833E",
"k  c #1E8B3F",
"l  c #258A3D",
"z  c #0E8541",
"x  c #0E8C43",
"c  c #148741",
"v  c #148C41",
"b  c #0F9446",
"n  c #139445",
"m  c #1C9443",
"M  c #149A47",
"N  c #1A9C46",
"B  c #269645",
"V  c #31954B",
"C  c #398552",
"Z  c #3C8956",
"A  c #398B58",
"S  c #2B9F51",
"D  c #329B56",
"F  c #1CA146",
"G  c #17A44A",
"H  c #1CA449",
"J  c #1DAD4A",
"K  c #1EB04B",
"L  c #27A447",
"P  c #2DA345",
"I  c #26A848",
"U  c #22AD4A",
"Y  c #29A949",
"T  c #35A545",
"R  c #39A146",
"E  c #3BAE46",
"W  c #34A64A",
"Q  c #39A949",
"!  c #2EB047",
"~  c #24B04A",
"^  c #2BB149",
"/  c #3BB047",
"(  c #34B249",
")  c #3CB449",
"_  c #428A5E",
"`  c #43915F",
"'  c #44995C",
"]  c #42AD46",
"[  c #49A64E",
"{  c #44B647",
"}  c #4BB747",
"|  c #4FB847",
" . c #43B649",
".. c #4BB74B",
"X. c #4CB84A",
"o. c #5AB646",
"O. c #54BA47",
"+. c #5BBB46",
"@. c #52BA4A",
"#. c #5BBB4D",
"$. c #5BAC59",
"%. c #44B650",
"&. c #55BA51",
"*. c #59BA57",
"=. c #63BC4C",
"-. c #64BD53",
";. c #6BBE54",
":. c #63B75C",
">. c #458F61",
",. c #5B8F6D",
"<. c #4C9367",
"1. c #4E9E61",
"2. c #4D9A6A",
"3. c #519F65",
"4. c #579771",
"5. c #639876",
"6. c #669D7A",
"7. c #59AF62",
"8. c #5DB363",
"9. c #57A173",
"0. c #5BA376",
"q. c #63A47B",
"w. c #65A879",
"e. c #69C157",
"r. c #6EC15B",
"t. c #72C15E",
"y. c #78C568",
"u. c #7CC66A",
"i. c #80C66D",
"p. c #87C977",
"a. c #8ACA7B",
"s. c #6BA783",
"d. c #6DAB82",
"f. c #77AE8B",
"g. c #79AC8D",
"h. c #7CB492",
"j. c #7EB995",
"k. c #81AB8F",
"l. c #80BA97",
"z. c #8AB69A",
"x. c #86BB9B",
"c. c #8DBFA0",
"v. c #93BEA3",
"b. c #9AD08F",
"n. c #9DD192",
"m. c #A1D396",
"M. c #94C4A7",
"N. c #96C4A8",
"B. c #9CCBAE",
"V. c #9ECBB0",
"C. c #A1CDB3",
"Z. c #A9CDB7",
"A. c #ABD4BC",
"S. c #B1D5BF",
"D. c #B2D6C0",
"F. c #B5D9C4",
"G. c #B8DAC6",
"H. c #BBDEC9",
"J. c #BFE2CD",
"K. c #C1E3CE",
"L. c #C2E4CF",
"P. c #C3E4D0",
"I. c #C3E5D1",
"U. c #C5E4D1",
"Y. c #C4E5D2",
"T. c #C6E6D3",
"R. c #C7E6D4",
"E. c #C7E7D4",
"W. c #C8E7D4",
"Q. c #C9E7D5",
"!. c #CAE8D6",
"~. c #CBE8D6",
/* pixels */
"T.T.T.Q.T.T.T.T.!.R.T.T.!.T.R.P.R.!.R.P.R.!.R.E.E.R.!.R.T.T.!.R.R.R.R.!.R.P.T.!.T.R.T.R.!.P.R.T.",
"K.K.T.T.T.K.K.T.E.J.P.T.P.T.J.P.R.R.J.P.R.P.P.J.P.R.R.J.P.T.P.T.J.P.R.T.J.P.T.T.T.J.P.T.R.J.P.R.",
"T.P.T.T.T.K.T.T.R.P.R.E.R.T.L.T.R.R.R.P.R.R.P.P.P.E.R.P.T.R.R.T.P.P.R.R.R.P.E.R.P.P.P.R.R.R.P.R.",
"T.T.R.Q.T.T.T.Q.E.R.P.R.!.T.T.T.E.!.P.R.!.E.E.R.E.E.E.T.T.R.R.T.T.R.!.R.P.R.!.E.R.T.R.!.E.P.R.!.",
"J.T.T.T.T.P.T.T.P.J.T.P.R.P.P.P.R.P.P.P.R.R.P.P.T.T.P.J.P.T.T.P.P.P.R.P.J.P.T.T.P.P.R.R.P.J.P.E.",
"L.T.T.T.L.K.T.T.R.P.T.R.R.P.P.R.P.T.P.P.R.R.P.P.P.T.R.P.T.T.R.P.P.P.T.P.T.T.T.T.P.P.P.R.R.P.R.R.",
"T.T.R.Q.T.T.T.R.!.R.P.R.R.R.R.P.E.!.T.T.R.!.R.R.E.!.E.R.P.R.Q.R.R.R.Q.R.R.P.Q.Q.E.E.E.E.R.R.R.E.",
"J.T.T.T.T.P.T.T.P.J.R.R.R.P.P.R.E.T.J.T.R.E.H.M.M.H.T.P.R.R.R.P.P.T.R.T.J.T.T.T.P.P.P.E.P.J.P.E.",
"P.T.T.T.P.J.T.T.T.P.T.T.R.P.P.P.T.T.T.T.D.C.w.[ [ w.V.A.T.R.R.P.J.T.P.P.P.R.R.T.P.J.T.T.T.P.T.R.",
"T.T.T.Q.T.R.R.R.R.T.T.R.Q.R.R.P.T.!.G.h.3.V W e.e.Q V 1.g.F.Q.T.T.R.R.Q.R.R.Q.R.T.T.T.R.R.T.T.R.",
"J.U.T.T.T.P.U.T.R.J.T.T.R.P.P.P.R.H.d.R T V #.t.t.&.W T T w.G.R.P.T.R.T.J.P.R.T.T.P.T.R.P.L.T.T.",
"K.T.T.T.P.J.T.T.P.P.T.P.R.P.J.R.H.d.7.@.L  .t.p.p.t.&.T ..8.w.D.P.P.T.P.P.T.T.T.P.L.T.P.T.P.T.P.",
"T.T.Q.Q.T.T.T.T.R.R.R.R.Q.Q.R.R.f.$.u...W *.y.b.b.i.r.] ] u.:.s.T.T.R.R.T.T.Q.Q.T.T.T.R.E.R.R.!.",
"K.T.T.T.T.T.T.R.T.P.P.R.R.P.P.D.1.o.+.Y &.r.y.n.m.u.r.*.Y +.o.' C.T.R.R.K.T.T.T.T.T.T.T.P.P.P.E.",
"K.T.L.T.P.J.T.P.P.P.P.P.T.P.J.x.R +.=.X...;.t.p.a.t.e.X.@.=.+.R d.T.T.P.K.T.T.P.P.J.T.T.P.P.T.P.",
"R.T.Q.T.T.P.T.T.R.T.R.R.R.T.c.S ( @.;.r.%.X.;.=.;.;.@.%.:.e.O.( S h.P.T.T.T.T.Q.T.P.T.T.T.T.R.T.",
"P.T.T.R.T.T.T.T.R.T.T.R.P.N.S ~ J { y.;.#.*.*.=.+.-.*.#.-.y...U U L l.P.P.T.R.R.R.R.R.R.!.P.T.T.",
"J.P.T.T.T.K.P.T.T.P.J.R.F.' U ) m L ) } | } =.t.r.=.O.X.X.) L m ) U A A.J.K.R.P.P.J.P.R.T.J.P.T.",
"R.T.T.R.T.P.T.T.R.T.R.R.C.D I ..] m M F U ) | y.u.O. .Y H M n E ..! V N.R.R.T.R.T.P.T.T.R.T.T.R.",
"R.P.T.Q.T.T.T.T.R.T.R.!.s.N J  .O.{ P G G U / O.X.) U G F P ] +.{ Y G 9.P.R.T.!.T.T.T.R.!.T.P.R.",
"J.P.T.P.T.L.P.T.T.J.P.T.q.N H E O.+...~ K H N U ~ F H K ~  .+.O.) H F <.H.U.T.T.T.J.P.E.T.J.P.E.",
"T.T.T.R.T.K.P.R.T.T.U.T.6.9 J H / } ( U ~ ) T ( ( W ) ~ K ( { ) J J j <.K.T.T.T.T.P.P.T.T.T.P.T.",
"R.P.T.Q.T.T.T.T.Q.R.T.H.4.5 N J G H U ~ ^ ! ) O.+. .( ^ ! U F H U F 6 >.G.P.T.Q.T.R.R.R.!.T.T.T.",
"J.P.T.R.T.K.T.R.R.J.P.v.i 6 c ( ~ J J J J G H  .) I N J K J J U ( n 6 i h.P.T.T.P.P.P.E.P.J.P.R.",
"T.T.T.T.P.K.P.R.T.T.G._ 9 B 6 N U K K G v n J H F J N n F J K J N i n j A F.T.Q.P.L.P.T.T.P.P.T.",
"R.P.T.Q.R.R.T.R.Q.R.S.d v n 6 6 j n v 6 5 9 G U Y G z 5 6 n n v 6 h b n s S.Q.Q.R.T.T.R.!.R.T.T.",
"J.P.T.T.R.P.P.R.R.K.S.d 5 z v 6 6 h 5 6 h 5 6 j j 6 6 z h 6 z h i x v 6 a A.T.T.T.P.T.T.R.J.P.R.",
"T.T.T.T.P.J.P.T.T.R.H.5.< 5 v b b b z 5 x n z 5 6 z z b 6 h b b b b 6 < ,.K.T.T.R.J.P.T.T.P.T.R.",
"T.T.E.R.R.R.R.R.Q.T.T.C.p = k Y M b h 2 h z b x z b x c 2 8 b n Y m < q v.R.Q.!.R.R.T.E.R.R.R.E.",
"L.T.R.T.R.P.P.R.T.K.T.K.5.& < l v h 2 = 2 c b n M b b 2 = = 5 j l 1 & >.H.R.T.R.P.T.R.E.P.P.P.E.",
"L.P.R.T.P.J.R.P.U.K.U.T.g.3 < < 5 5 , < 4 7 9 B B j 2 8 < < , 2 = = 2 5.J.T.T.P.P.J.P.T.P.P.P.T.",
"R.R.E.E.R.P.R.R.Q.T.T.Q.F.g 5 5 5 5 < = 7 5 2 = - = 5 5 = & , , , 5 p Z.R.T.!.E.P.T.R.R.R.T.R.!.",
"P.T.R.R.T.T.P.R.R.P.P.R.T.z.d 8 8 8 * % = , 6 7 , 5 5 = > % 7 2 4 e k.K.P.T.T.T.T.P.T.Q.T.P.T.R.",
"J.T.T.P.K.J.T.U.P.J.T.R.R.J.z.g 1 0 X X % < 7 8 6 7 1 % +   0 - s k.L.L.L.T.T.T.P.J.P.T.P.K.P.T.",
"T.T.R.R.T.U.T.T.R.R.R.R.T.J.j.<.a > @ t # . % = < % . # t @ : r ' h.J.R.T.T.Q.R.T.T.T.T.T.T.T.R.",
"P.T.R.R.U.T.T.T.R.P.P.R.T.C.2.A 1 * O t u @ o : ; X   u t : > - C <.B.R.P.T.T.T.T.P.T.!.T.P.T.R.",
"J.T.T.T.P.J.T.T.L.L.T.T.T.A.4.A 0 - * O O o @ y y @ o + O * = 0 C 2.C.P.L.T.T.T.T.J.U.T.P.K.T.T.",
"T.R.R.T.T.P.T.T.T.T.T.T.Q.T.B.0.Z w 1 - * ; $ $ ; ; $ * - 1 w C 9.M.P.T.T.T.R.T.T.K.T.T.R.T.T.R.",
"P.T.R.T.T.T.T.T.T.T.I.T.T.T.I.S.l.w.` f e e e e e e e e s _ q.j.A.L.!.R.P.T.T.T.T.T.T.Q.T.T.T.R.",
"J.T.T.T.P.K.T.T.P.J.T.T.T.L.L.T.K.J.A.C.C.C.V.B.C.C.C.B.C.A.J.J.L.T.T.L.J.T.T.T.K.K.T.T.P.J.P.T.",
"T.U.T.T.T.U.T.T.T.T.T.T.T.T.L.T.T.T.T.Q.R.Q.T.T.T.Q.Q.T.Q.R.T.T.P.T.T.P.T.T.T.T.U.K.T.R.T.T.T.T.",
"T.T.T.Q.T.T.T.T.!.T.T.T.!.T.T.T.T.Q.T.T.Q.Q.T.T.T.T.Q.T.T.T.Q.T.R.P.R.!.T.P.T.!.R.Q.P.R.Q.T.T.T.",
"J.K.T.T.T.K.U.T.T.L.L.T.T.T.L.T.T.T.K.K.T.T.T.K.T.T.T.K.L.T.T.T.P.T.T.T.J.P.T.T.P.P.R.R.R.K.K.T.",
"U.T.T.T.T.K.K.T.T.P.T.T.T.T.L.L.T.T.K.T.T.T.T.K.L.T.R.L.T.T.T.T.L.P.E.T.P.T.T.T.R.J.P.R.P.U.K.Q.",
"T.R.T.Q.T.T.T.T.Q.T.T.T.!.T.T.T.T.Q.T.T.T.Q.T.T.T.T.Q.T.K.T.Q.T.T.T.T.!.E.E.R.!.E.E.T.R.!.E.R.T.",
"K.P.T.R.T.T.U.T.T.K.J.T.T.T.K.T.T.T.K.T.T.T.U.T.T.T.T.K.T.T.T.T.P.T.T.R.P.P.T.T.T.P.P.T.R.J.P.T.",
"K.T.T.T.T.J.P.T.T.L.T.T.T.T.J.T.T.T.K.T.T.T.T.K.T.T.T.U.T.T.T.T.J.P.T.P.P.P.T.R.P.J.P.R.R.P.T.T.",
"R.T.T.Q.T.T.T.T.Q.T.T.T.Q.T.T.T.T.Q.T.T.T.Q.T.K.T.T.Q.T.T.T.Q.T.T.T.R.E.R.P.T.!.R.R.T.R.E.E.P.R."
};
