/* XPM */
static char *fd216787180446daec4aa27a77ee70f2qWMFSXORJto1Df3K[] = {
/* columns rows colors chars-per-pixel */
"48 48 214 2 ",
"   c None",
".  c #593A23",
"X  c #653A28",
"o  c #743A29",
"O  c #3F592F",
"+  c #344D36",
"@  c #39553C",
"#  c #3E5B37",
"$  c #4A5A1A",
"%  c #5B591F",
"&  c #5A551E",
"*  c #58421D",
"=  c #4F621E",
"-  c #5A6B1F",
";  c #55671F",
":  c #5D4728",
">  c #475B27",
",  c #565728",
"<  c #594A34",
"1  c #425D34",
"2  c #54593C",
"3  c #5C5D30",
"4  c #66452B",
"5  c #6D4D29",
"6  c #74422E",
"7  c #784B2C",
"8  c #6C5425",
"9  c #6B5A24",
"0  c #725725",
"q  c #6F4331",
"w  c #784934",
"e  c #6B5A3C",
"r  c #665B38",
"t  c #79523D",
"y  c #4C622E",
"u  c #546525",
"i  c #5A6624",
"p  c #566C24",
"a  c #5A6E23",
"s  c #54632A",
"d  c #5D6A2B",
"f  c #58602A",
"g  c #5D7422",
"h  c #5C732D",
"j  c #5F7824",
"k  c #48653C",
"l  c #466539",
"z  c #596936",
"x  c #5E7D35",
"c  c #54753C",
"v  c #57793C",
"b  c #5C7E3A",
"n  c #577535",
"m  c #6D6026",
"M  c #646B2B",
"N  c #65662A",
"B  c #736F27",
"V  c #756126",
"C  c #617623",
"Z  c #6A7324",
"A  c #637C24",
"S  c #64732B",
"D  c #68772B",
"F  c #6A7B2A",
"G  c #677D29",
"H  c #737227",
"J  c #737B27",
"K  c #747D29",
"L  c #757629",
"P  c #6D6339",
"I  c #696C34",
"U  c #746C3C",
"Y  c #796D3E",
"T  c #6D7B33",
"R  c #687631",
"E  c #727D34",
"W  c #74753A",
"Q  c #7C7D3A",
"!  c #375947",
"~  c #385E51",
"^  c #3B6353",
"/  c #3E695C",
"(  c #405841",
")  c #5E5044",
"_  c #575652",
"`  c #6E5941",
"'  c #635A45",
"]  c #735D43",
"[  c #70524E",
"{  c #6A5459",
"}  c #745B57",
"|  c #466A45",
" . c #42664B",
".. c #476948",
"X. c #51604B",
"o. c #566243",
"O. c #4C7145",
"+. c #4C734A",
"@. c #527741",
"#. c #577C41",
"$. c #406C59",
"%. c #446851",
"&. c #43705A",
"*. c #4C7856",
"=. c #656945",
"-. c #756340",
";. c #7A6346",
":. c #7A654A",
">. c #776944",
",. c #687643",
"<. c #7D7341",
"1. c #7C6A57",
"2. c #6E7355",
"3. c #416F61",
"4. c #437465",
"5. c #437668",
"6. c #467C6C",
"7. c #477864",
"8. c #5A746B",
"9. c #6E7065",
"0. c #834937",
"q. c #83553D",
"w. c #835D45",
"e. c #8C5943",
"r. c #9A5A45",
"t. c #8C6344",
"y. c #8D6449",
"u. c #836A4B",
"i. c #8A6F4F",
"p. c #806847",
"a. c #86714B",
"s. c #8A734C",
"d. c #8E794D",
"f. c #867946",
"g. c #917C4E",
"h. c #896F52",
"j. c #946F51",
"k. c #8D7251",
"l. c #887A5A",
"z. c #937553",
"x. c #967955",
"c. c #997B57",
"v. c #9D7D59",
"b. c #9E7051",
"n. c #926447",
"m. c #A37454",
"M. c #A77D5A",
"N. c #A57858",
"B. c #83786A",
"V. c #5F8038",
"C. c #678125",
"Z. c #6A8426",
"A. c #6E8A27",
"S. c #6B8429",
"D. c #6E8A2A",
"F. c #74832C",
"G. c #728D29",
"H. c #7A8C2A",
"J. c #758628",
"K. c #75932A",
"L. c #79952C",
"P. c #7C9B2D",
"I. c #638435",
"U. c #6A8A34",
"Y. c #628339",
"T. c #698736",
"R. c #7B8A34",
"E. c #798337",
"W. c #6F9033",
"Q. c #729231",
"!. c #7B9830",
"~. c #7EA02F",
"^. c #768452",
"/. c #809F2D",
"(. c #88953C",
"). c #85863E",
"_. c #83A42E",
"`. c #86A82F",
"'. c #88AA2E",
"]. c #86A930",
"[. c #8A8145",
"{. c #91814E",
"}. c #95884B",
"|. c #968351",
" X c #9C8453",
".X c #9D8954",
"XX c #9F805A",
"oX c #A3835C",
"OX c #AC845E",
"+X c #A98A5F",
"@X c #A38A58",
"#X c #AD935B",
"$X c #81886E",
"%X c #988460",
"&X c #A58660",
"*X c #A88760",
"=X c #AD8B62",
"-X c #B28E64",
";X c #BA8F66",
":X c #B59166",
">X c #B99569",
",X c #BE996C",
"<X c #B79368",
"1X c #C39C6E",
"2X c #C3946A",
"3X c #C89E70",
"4X c #CCA373",
"5X c #D1A775",
"6X c #D2A877",
"7X c #D6AB79",
"8X c #D8AD7A",
"9X c #DCB07C",
"0X c #A0988E",
"qX c #B6AFA6",
/* pixels */
"                                                                                                ",
"                                    6.5.  3.5.                                                  ",
"                              6.4.$.$.7.5.4.5.5.                                                ",
"                          / *.#.U.U.Q.Q.U.x O.$.5.6.5.                                          ",
"                        o.v L._.`.`.'.].].]._.D.| 3.5.                                          ",
"            @Xd.      g.E.P.[.!._.`.'.'.].].`.'.P.@.5./                                         ",
"            |.d.d.  f.{.H.}.f._._._.H.L L J./.`.`.P.O.6.5.                                      ",
"            g.@Xs.   X#X.Xf.K /.J 5 o 6 0.0.7 H._.'.U.4.$.                                      ",
"            |.#X;.  .X}.U I K.9 q.OXx.<X6X4XN.6 H.].~.O.                                        ",
"              |.r _ |.D K.L.8 y.4X7X-X5X8X8X4Xw.0 _.`.I.~                                       ",
"              g.2 2.[.K._.9 y.=X8X1X>X7X7X8X:Xk.w L._.W.^                                       ",
"              c.X.2.Q G.K n.4XoX-Xp.z.=X1X>XoX1Xy.J.`.!. .    E E R R R                         ",
"              W O.T a j N g.:X          z.>X6X8Xb.Z `.!.1   T           E E                     ",
"              n I.`.A = C C W           z.6X7X8Xm.H ].!.y M               (.                    ",
"              n G._.A a C.A C.g         u.>X6X6Xn.J.].K.s                 (.R.                  ",
"              h !.P.g g C S.C.S.      u.M.-X&Xc.5 L._.F                   (.                    ",
"            C.K.L.A C C j C.A A       u.=X6X6Xc.9 ].P.s                   E                     ",
"            K._.G $ , e M g C.D.    k.k.>X8X6Xt.H.].S.+                                         ",
"            C.G.9 - , v.P $ ; a   z.oXz.M.,Xb.B ].~.s                                           ",
"  f           g A.g e v.:.$ u   ] v.oX+X>Xp.5 _._.S.                  !                         ",
"              K.P.P [ c.k.    s.s.v.oX>X2X7 H.~.C.d             ! v U.U.k k G.                  ",
"              _.C.{ } :.    Q =Xc.k.c.:Xq.K K.g i             %.I._.`.'.U.c `.P.                ",
"            Z.K.S ' } :.  g |.>XM.c.z.t m _.C.C S   A A     ~ b `.`.`.~.Q.v _.].P.              ",
"  M       S L.S ( ) r I C.E.-XoXXXoXOX7 /.L.Z.F.K._.G.L.C.  | P.`._.P.Z.P.c _.~._.Z.            ",
"  d       d G.s _ { :.I u XX4Xk.z.c.q.H ~.F S G._.K.A._.A # b _._.G.g C G.n _.P.K.K.            ",
"            2     1.h.  f f.{.s.s.p.4 F S u g A C.A P.P.- @ Q.`.P.- : , | Y.`._.A.A             ",
"                        z.>XoX<.Y P M G.u         g Z.j > l ~._.A < :.4 ( !.`.]._.-             ",
"                        *X>XoXz.s.6 J P.y     C.p G.P.; ! c `.~.i M F c O._.].].`.P.C A.S.g     ",
"                        ,X1X:Xc.x.6 H.L.#     ^.A S.C.    V.`.K.a K.K.+.T.'._._.]._.P._.L.A.K.g ",
"                        6X7X7X>X=Xo K L.#     $XC.S.d     T.`.G., h | v _.].P.K.C g Z.K.A.A.A.  ",
"                        6X7X7X6X6X0.Z K.#     d G ^.c   ^ ^.P.S.,  .@.P._.].].Z . ,   a K.K.=   ",
"                        1X7X7X7X,X0.V _.v ! 2.2.z ,.    @ V.V.%.| x A.G._.].S.. j.    K.P.i     ",
"                        :X>X>X+Xv.=X0././.z %.8.9.y  ./ ^ +.#.U.P.`._.K.A.G . y.u.    K.a       ",
"                        4X4X1X1X6X7Xq.0 `.].Q.I.x G U.Q.!.P.`.`._._.`._.C . t.,X    G A.s       ",
"                        ,X8X8X8X7X8X;Xo B `.`.`.`.`.].`.`._._._.`._.A.% 4 &Xv.oX    p W =.      ",
"                        =X7X7X7X8X6XOXj.0.0 H.`.].].].].].`._.P.C.& . t x.7Xx.        9.B.<     ",
"                          :X4X4X>Xv.oX5X1Xe.o 0 B J.H.K.J.Z % * . w -X3X&X1X        :.qX0X      ",
"                            =X-X=X,X7X8X8X-XM.N.e.q 4 X X X q.M.N.oX8X1XOX            1.    ]   ",
"                            =X4X7X7X8X8X5XoX4X8X6Xv.=X1X1XoX<X9X,X=X4XoX                    :.  ",
"                              =X4X7X7X1XoX-X7X8X5Xx.,X8X8X=X1X7X%Xl.                        u.  ",
"                                  d.[.h.=X6X7X5X:X=X7X8X,Xx.=Xf.Y.&.                        k.  ",
"                                  Y Q.z     &X    &Xl.<.u.u.] -.F x ..                    ` :.  ",
"                                  i.R.U.+           1 d s.c.  ` P N g 1 +                 ]     ",
"                                    d.!.I.^ ^ ^ ^ ..a Y z.]       p.P S p > 1 #         ] ]     ",
"                                    oXf.!.Q.Y.b V.C I u.s.          ] :.<.W R.T.R I U XXi.      ",
"                                      v.|.Q F.F S Y x.oX`                 v.<XXX+XoXoXz.        ",
"                                        *X-X&X=XoX*X-Xs.                                        ",
"                                            x.oXoXu.                                            "
};
