/* XPM */
static char *_468eb024f2448a4e06bd63b03169ff9hUADnsKH1gM6JrLy[] = {
/* columns rows colors chars-per-pixel */
"48 48 216 2 ",
"   c #B9260D",
".  c #B62B0A",
"X  c #B9270D",
"o  c #BB340C",
"O  c #BD3A0C",
"+  c #B83C06",
"@  c #BF2418",
"#  c #C03B0F",
"$  c #C12B17",
"%  c #C4241C",
"&  c #C32B18",
"*  c #C02717",
"=  c #C53B16",
"-  c #C62220",
";  c #CB2923",
":  c #CF2A29",
">  c #C82321",
",  c #CE3D22",
"<  c #BA4209",
"1  c #C3550D",
"2  c #CA481A",
"3  c #CA5B15",
"4  c #CF6619",
"5  c #D3671D",
"6  c #DA761E",
"7  c #D6442A",
"8  c #D64A28",
"9  c #DD552D",
"0  c #DE5231",
"q  c #E25935",
"w  c #DA6F23",
"e  c #DA7323",
"r  c #E1692E",
"t  c #E17C27",
"y  c #E3762A",
"u  c #E96B36",
"i  c #E57232",
"p  c #EE7C3B",
"a  c #EC7839",
"s  c #F37E3D",
"d  c #DC851E",
"f  c #DC891F",
"g  c #D7841C",
"h  c #E0841F",
"j  c #DE8621",
"k  c #DC8B21",
"l  c #DE962A",
"z  c #DB9E3B",
"x  c #D99D38",
"c  c #E18522",
"v  c #E18D23",
"b  c #E4832B",
"n  c #E8832C",
"m  c #E58A2C",
"M  c #EA8B2F",
"N  c #E49225",
"B  c #E69529",
"V  c #E9972C",
"C  c #E49C2C",
"Z  c #EB9C2D",
"A  c #EB8531",
"S  c #EA8C32",
"D  c #F1873A",
"F  c #EC9233",
"G  c #E39F34",
"H  c #ED9D32",
"J  c #F19D35",
"K  c #F69E3D",
"L  c #F4953B",
"P  c #DFA039",
"I  c #E6A22B",
"U  c #EAA22C",
"Y  c #E5A334",
"T  c #EBA331",
"R  c #EDAC35",
"E  c #E4A33A",
"W  c #EEAF38",
"Q  c #EAA33B",
"!  c #F1A234",
"~  c #F4A23A",
"^  c #F3AC3C",
"/  c #FAA23E",
"(  c #EFB139",
")  c #F3B33C",
"_  c #F6B83E",
"`  c #F8BA3F",
"'  c #D59E43",
"]  c #F88E42",
"[  c #FE974A",
"{  c #FF9C4D",
"}  c #F79043",
"|  c #DCA242",
" . c #D6A049",
".. c #DAA34B",
"X. c #D6A046",
"o. c #DEAE5D",
"O. c #D9A755",
"+. c #E3A74A",
"@. c #FCA142",
"#. c #FFA14B",
"$. c #F5B743",
"%. c #F9B542",
"&. c #F6B944",
"*. c #FABC43",
"=. c #FBB74A",
"-. c #F4BE4E",
";. c #FABD4A",
":. c #E1AA50",
">. c #EDBD56",
",. c #EABC5B",
"<. c #EABA5B",
"1. c #F2BE53",
"2. c #FBBF54",
"3. c #F0BF58",
"4. c #FDBF5A",
"5. c #DDB56F",
"6. c #E0AF60",
"7. c #E6B464",
"8. c #E6BC61",
"9. c #E9BE62",
"0. c #E7BF6A",
"q. c #F0BA60",
"w. c #E7BD78",
"e. c #FDC146",
"r. c #FCC24C",
"t. c #F5C04E",
"y. c #F5C154",
"u. c #FBC253",
"i. c #F3C059",
"p. c #FBC259",
"a. c #EAC167",
"s. c #E6C06C",
"d. c #EBC36B",
"f. c #E7C277",
"g. c #EAC574",
"h. c #E4C279",
"j. c #E8C67D",
"k. c #EECA7A",
"l. c #EDC975",
"z. c #F1CC7C",
"x. c #F9C879",
"c. c #F8C46E",
"v. c #E9C985",
"b. c #EACD8C",
"n. c #EAC786",
"m. c #F5CE8D",
"M. c #F5D184",
"N. c #F6D68F",
"B. c #EDCA90",
"V. c #F2CE94",
"C. c #EDD096",
"Z. c #EED49B",
"A. c #F4D491",
"S. c #FAD992",
"D. c #F1D69B",
"F. c #FBDC9C",
"G. c #FCD697",
"H. c #FFEE9F",
"J. c #F3DAA3",
"K. c #FFDFA4",
"L. c #F1D7A4",
"P. c #FEE2A4",
"I. c #FFEAA3",
"U. c #FFF2AF",
"Y. c #FDE4B4",
"T. c #FFEBB5",
"R. c #FAE5B9",
"E. c #FDEABC",
"W. c #F6E1B4",
"Q. c #FFF5B9",
"!. c #FEECC2",
"~. c #FEEECB",
"^. c #FFF2C4",
"/. c #FFF3CC",
"(. c #FFFDCC",
"). c #FFF9C6",
"_. c #FFF4D4",
"`. c #FFFBD4",
"'. c #FFF5DB",
"]. c #FFFBDD",
"[. c #EEEEEE",
"{. c #F3EFE6",
"}. c #F0EFEC",
"|. c #EEF0EF",
" X c #F7F1E5",
".X c #FDF5E3",
"XX c #FFFAE3",
"oX c #F4F2EE",
"OX c #FBF6EA",
"+X c #FFFAEA",
"@X c #EEEEF0",
"#X c #F3F3F3",
"$X c gray95",
"%X c #F1F1F1",
"&X c #F6F5F2",
"*X c gray96",
"=X c #F4F4F4",
"-X c #F6F6F6",
";X c gray97",
":X c #F6F5F5",
">X c #F4F4F3",
",X c #F9F7F1",
"<X c #F9F7F3",
"1X c #F6F8F7",
"2X c #FBF9F4",
"3X c #F6F7F9",
"4X c #F6F7F9",
"5X c #F7F9F8",
"6X c #F8F8F8",
"7X c #F9F9F9",
"8X c #FBFBFB",
"9X c #F9FAFA",
"0X c #FDFDFD",
"qX c #FDFDFE",
"wX c #FAFAFA",
"eX c #F9F7F8",
/* pixels */
"qX[.8X;X#X9X@X0X[.wXoX4X;X%X0X[.0X}.8X=X%X8X@XqX[.9X%X*X4X@XqX[.0X|.;X&X;X8X@XqX[.qX%X;X1X%XwX[.",
"[.0X%X;X4X#X0X@X8XoXeX=X%X8X}.wX{.2X.X.XXX].XX_.XX'.XXXXXX+X X;XoX;X>X1X;X%X9XoX8X%X8X>X>X3X%XqX",
"8X%X;X;X;XeX%X8X%XwX>X;XeX%X2XOXXX/.E.P.N.M.M.k.k.z.M.S.K.T.`.'.2XoX3X*X&X;X%X0X%X8X%X;X1X>X8X|.",
"%X8X%X;X;X#X8X%XeX>XeXoXOXXX_.!.D.v.0.,.>.>.t.y.t.1.1.>.,.0.v.Z.R.].XX+X&X%XwX%X8X%X;X;X1X3X%X8X",
"8X%X;X%X#X;X%X;X#X4X>XOX`.P.k.a.,.y.y.t.t.&.&.&.$.$.-.e.1.y.i.,.a.l.P./.+X&X>X3X%XeX=X4X;X=X;X%X",
"&X;X;X;X;X=X&X&X,XOX'.!.b.8.y.r.;._ R R R Y I I I I I Y R W _ ;.r.>.8.v.R.XX.XoX&X;X4X=X=X;X;X;X",
"=X=X;X;X1X&X;XoX+X_.S.9.>.y.e.( U I I P x Y U U U U U U I I I U ( ;.u.>.8.N.`.OX,X=X;X;X=X;X=X4X",
"eX=X1X;X&X,XoX+X!.b.,.t.;.W I I I Y | c.x.+.Y U U U U U U U U I I U ) ;.r.<.n.)..X,X%X;X;X=XeX%X",
"%XeX>X;X;X X+XE.f.>.u.$.T I U U I z m.`.].Y.+.I U U U U U U U U U U U U &.r.>.f.^..XOX1X*XeX%X8X",
"0X%X;X&X>XXXE.j.1.r.) I I U U U U z K.`.].Q.+.I U U U U U U U U U U U U U ) e.y.h.)..X,X;X%X8XoX",
"%X9X>X,XOX/.k.>.u.) I U U U U U I P <.P.U.x.E U U U U U U U U U U U U U U I ( u.>.f._. XoX1X%XqX",
"qX@X8X X_.D.>.r.( I U U Y E P +.4.+.z +...z Y U U U U U U U U U U U U U U U I ) r.>.B.`.OX%XwX[.",
"[.8X%XXXP.8.u.&.I I I U E ..V.^.H.P E Y Y Y U U U I U U U U U U U U U U U U U I *.y.,.F..X;X%XqX",
"qX}.2X_.d.y.;.U I T Y E O.P.].`.7.z T U U H H L J J H U U U U I U U U U U U U U U ;.t.g./. X;X@X",
"%X2X'.D.,.r.W I U T P O.E.].`.C.z T T U H ~ { 4 w #.J U U U U U U U U U U U U U I W r.,.J.]. X8X",
"8X X^.h.i.&.I I U E X.P.XXXXQ.O.E I U T H b u o O i m ! U U U U U U U U U U U I I U &.y.f.^.+X%X",
"%XXXH.8.y.W I U G z C.].+X].w.P Y U U T J 4   : > . e T U U U U U U U U U U U U U I R r.,.F..X1X",
"&X'.j.t.;.U I T G <.`.+X+XY.X.T U U U U T [ , % @ q #.Z T U I Z U U U U U U U U U U U *.-.k.'.&X",
"+X~.a.r.) I U Q ' K.XX+X`.5.z T U U U U H L < 8 2 3 / U U U U U U U U I U U U U U U I _ t.a./.OX",
".XR.,.e.R I T z w.].+XXXS.X.Q U Z T U U U Z n [ [ S H I U U J U U U U ! ! U ! U U U U R e.,.W.OX",
".XL.,.e.R I Y ' !.+X+X/.O.Y T Z J J Y I I ! ! J J ! U I U U J J ! I Z N N N B U U U U T e.y.L._.",
"/.Z.>._ U U C 3.`.XX].b.z T / L 1 } @.J U I U U U I U U ! / ] 1 D M h h h h h h v Z T U &.>.C.`.",
"`.b.>.` I T C <.Q.).G.' Q F s 0   8 D F ! I U U I U U ! S s 0   8 r t c h h h h h h I U &.i.b.^.",
"Q.b.i._ I I T G o.o.| E T M o * : @ < S ! I U U U U U ! A + % : & = y c v h c c c h h U *.y.b.(.",
"`.b.1.&.I U U T I I T U U @.a * % $ D ~ U U U U U U U H / r $ % & u A c c c c c c v d N *.>.v.E.",
"^.b.i.` I I U U U U I U I / i + 0 O b ! U I U U U U U J F 5 # 7 # r n c c c c c c c c f %.y.b.(.",
"].C.>.*.U U U U U U U U I U m M #.F B ! U U U U U Z ! V c 6 y s y t c c c c c c c c c f *.>.C./.",
"'.J.,.*.R I U U U U U U U U ! ! I U ! U U U H J J J Z h h b c c n c c c c c c c c c c v ;.,.L.].",
"+XW.,.e.R C U U U U U U U U U Z U U U U U ! #.e 5 [ n c c c c c c t c c c c c c h j d C ;.,.R..X",
"oX/.d.e.) I U U U U U U U U U U U U U Z U m a # o r y h c c c c c c c c c c c c h c g ~ r.8.~.,X",
"&X].k.y.;.I U U U U U U U U U U U U U U ! 4   ; ; X 3 n b c c h c c c c c c h h c f k =.2.z.].&X",
"3X'.F.,.r.R I U U U U U U U U U U U U ! H [ 7 - % 7 s b c c h h c c c v c c c c c d C p.<.F.XX%X",
"%X+X^.f.y.&.I I U U U U U U U U U U U U U K 2 = 2 2 y c c c c c c c c c c c c c j j %.3.f.!..X9X",
"wX X].J.,.r.W I U U U U U U U I U U U U I J a D s y b c c c c c c v c c c c c j d G r.,.D.'.2X%X",
"@X2XoX~.d.t.;.U U U U U U U U U U U U U U J K c t n c c h h c c c c h h c j v d k =.2.s./.+XoXwX",
"qX@XeXXXF.a.y._ I U U U U U U U U U U U U U Z d h c c c c h c c c c c h c j j k %.4.<.P..XoX8X[.",
"}.0X%XOX].b.>.r.) C U I U U U U U U U U U T Z d h c c c c c h h c c v c c j d ~ r.<.A._.OX1X[.qX",
"0X%X1XoX X`.g.>.r.) I U U U U U U U U U U U Z f c c c c c c c c c c c c j g T 4.1.k.~.OX&X%XwX[.",
"@X8X;X;X,X X).h.y.e._ I I I U U U U U U U U T N h c c c c c c c c v c j f ^ ;.1.j.R.+X>X&X3X%XwX",
"8X%X4X*X;XOX.X^.f.>.u.*.U I U U U I U U U U U Z f v c c c c c c c h g k %.u.1.g.R.XX X;X;X>X8X%X",
"%X;X%X;X;X%X,X'.).v.,.r.;.) U I I U U U U U U T Z d c c c c c j d k T ;.;.<.n.!.+XoX;X;X&XeX;X;X",
"4X;X;X*X;X;X*X&X.X_.A.8.>.u.&.) U I I I U U U Y U Z v d j d d v T =.p.3.9.A./.+XOX;X%X;X;X=X;X=X",
";X&X;X*X*X;X;X&XoXOX].R.v.a.1.e.e._ W R I I I I I U H l N Y ^ ;.u.1.,.v.E.].OX,X&X;X&X;X;X;X;X#X",
"%X1X#X;X;X%XeX%X3X>X;X+X).P.z.8.,.y.y.u.r.;.&.$.$.$.;.;.2.p.i.,.,.x.P._..X>X;X%X;X%X1X;X%X;X;X4X",
"8X>X1X;X&X;X%X8X%X8X%X&XOX.X'.!.Z.v.0.,.>.1.-.;.-.1.1.1.,.0.j.Z.E._.XXOXOX4X#X8X%X8X%X;X;X%X8X}.",
"|.wX%X;X;XoX8X%X9X%X3X;X#XeXoX2X'.).T.F.N.M.k.z.l.z.M.N.K.T./.].oX2X%X4X4X%X8X%X8X%X1X;X;X;X%X9X",
"qX>X3X>X>X8X%XwX%X9X%X;X;X%X;X{.2X X+XXXXXXX'.XX_.XX'..XXX.X+X X2XoX;X&X#X8X%X0X@XwX>X;X;X>X9X@X",
"[.wX%X1X;X%XqX[.qX@X8X>X*X8X[.qX[.wX%X*X;X%X9X[.qX[.8X=X>X3X|.wX[.0XoX;X;X%X0X[.qX}.eX>X:XwX@XqX"
};
