/* XPM */
static char *_2427a9ba2d244c4869d84bfc4ad07c9FSbrMMktGJoOFqgO[] = {
/* columns rows colors chars-per-pixel */
"48 48 202 2 ",
"   c #100B03",
".  c #230F01",
"X  c #281504",
"o  c #2B1808",
"O  c #351C07",
"+  c #35240A",
"@  c #3D220C",
"#  c #393506",
"$  c #333011",
"%  c #35312F",
"&  c #4F0906",
"*  c #4B2504",
"=  c #4B2B05",
"-  c #452509",
";  c #442C0A",
":  c #532E09",
">  c #48370E",
",  c #5B330E",
"<  c #53380A",
"1  c #5D3C0C",
"2  c #4A2C11",
"3  c #552B16",
"4  c #543111",
"5  c #5C3512",
"6  c #5D3C15",
"7  c #612F0E",
"8  c #633611",
"9  c #643A14",
"0  c #6B3D14",
"q  c #713E13",
"w  c #4D392B",
"e  c #6B2B33",
"r  c #554509",
"t  c #5A5806",
"y  c #4C4911",
"u  c #594515",
"i  c #66490C",
"p  c #73480F",
"a  c #6A560B",
"s  c #795B0E",
"d  c #634314",
"f  c #6B4B13",
"g  c #684618",
"h  c #734215",
"j  c #7C4617",
"k  c #774A17",
"l  c #6A5819",
"z  c #775717",
"x  c #7C5B16",
"c  c #6A6708",
"v  c #74670A",
"b  c #7E6C0D",
"n  c #7B7609",
"m  c #6A691F",
"M  c #79641A",
"N  c #58512F",
"B  c #6D4E22",
"V  c #6F5728",
"C  c #6D5231",
"Z  c #6C6624",
"A  c #797426",
"S  c #796631",
"D  c #761B43",
"F  c #752F48",
"G  c #51494A",
"H  c #554D4E",
"J  c #615846",
"K  c #645B5C",
"L  c #6E6C4E",
"P  c #766D6A",
"I  c #AF1401",
"U  c #932611",
"Y  c #844B15",
"T  c #864B18",
"R  c #845813",
"E  c #885917",
"W  c #945219",
"Q  c #9A5819",
"!  c #A75C1B",
"~  c #81660E",
"^  c #836B0C",
"/  c #847B0C",
"(  c #876718",
")  c #8A651A",
"_  c #976918",
"`  c #8D7111",
"'  c #987817",
"]  c #AA691A",
"[  c #B3631E",
"{  c #B76A1D",
"}  c #A77715",
"|  c #BA771B",
" . c #84552D",
".. c #8E6B2D",
"X. c #847925",
"o. c #957427",
"O. c #AF7122",
"+. c #C17D1D",
"@. c #871F4A",
"#. c #8E734A",
"$. c #857B74",
"%. c #299E29",
"&. c #2CA42C",
"*. c #2FA92F",
"=. c #31AE31",
"-. c #33B033",
";. c #898209",
":. c #8D890C",
">. c #938C0B",
",. c #999409",
"<. c #9E9A0D",
"1. c #8C8714",
"2. c #9A8713",
"3. c #989414",
"4. c #A19D0D",
"5. c #B08719",
"6. c #A49916",
"7. c #B89A16",
"8. c #A8A20E",
"9. c #B5AF0F",
"0. c #BCB60F",
"q. c #ACA313",
"w. c #B8A712",
"e. c #B3AB11",
"r. c #888428",
"t. c #978E2F",
"y. c #9B9429",
"u. c #8B8634",
"i. c #928C3A",
"p. c #A88C2E",
"a. c #B98A26",
"s. c #A2982D",
"d. c #A89938",
"f. c #B0A62F",
"g. c #BAB427",
"h. c #BAB438",
"j. c #C38A1A",
"k. c #C9971A",
"l. c #C3A617",
"z. c #CCB314",
"x. c #D7BA17",
"c. c #C3892A",
"v. c #C79A24",
"b. c #CCB02E",
"n. c #D8B830",
"m. c #CAC415",
"M. c #D3CC13",
"N. c #DDD513",
"B. c #E5CD15",
"V. c #E5D814",
"C. c #ECE216",
"Z. c #F2EA16",
"A. c #F1E81B",
"S. c #CAC539",
"D. c #D2CC3C",
"F. c #E6DA31",
"G. c #ECE432",
"H. c #F2E53B",
"J. c #918A4D",
"K. c #9B9557",
"L. c #A9924C",
"P. c #A29958",
"I. c #A9A545",
"U. c #B9B448",
"Y. c #A9A459",
"T. c #B5B255",
"R. c #918E6E",
"E. c #AD9666",
"W. c #AAA767",
"Q. c #A7A578",
"!. c #B8AC75",
"~. c #CDB045",
"^. c #C1BC6C",
"/. c #CEC94F",
"(. c #DBD542",
"). c #DBD657",
"_. c #E1C04F",
"`. c #E1D945",
"'. c #E1DC58",
"]. c #F1EC4A",
"[. c #D4D06A",
"{. c #C9C577",
"}. c #F3D56B",
"|. c #F3EE66",
" X c #EFEA76",
".X c #918884",
"XX c #A19F91",
"oX c #AAA68C",
"OX c #B7B596",
"+X c #AEAEA1",
"@X c #BBB9A7",
"#X c #C8B793",
"$X c #CECB8F",
"%X c #E0DD90",
"&X c #F5F292",
"*X c #CECCAD",
"=X c #E6DDAE",
"-X c #E7E5B5",
";X c #F6F4B7",
":X c #D9D8CA",
">X c #EFEDD6",
",X c #F5F5E6",
/* pixels */
"-.-.-.-.-.-.-.-.=.-.-.-.-.-.-.-.-.-.-.-.-.-.=.-.-.-.=.=.-.-.-.-.=.-.-.-.=.-.-.-.-.-.-.-.-.-.-.-.",
"-.-.*.&.-.-.-.&.=.-.-.=.&.=.-.-.-.&.=.-.-.< *.=.-.k *.&.< 1 X O X X O X &.=.-.-.=.&.=.-.-.*.&.-.",
"&.=.-.-.=.&.-.-.=.*.&.-.=.=.&.*.-.-.-.&.=.R w.r o R z.< , 2.= * , < * - O X *.*.-.-.=.&.=.-.=.-.",
"&.=.=.=.=.*.=.=.=.=.=.=.=.-.*.=.=.*.( *.=.* 1 ; * : v r * >.v - 1 i * = = * X =.=.=.-.*.=.=.=.-.",
"-.*.&.-.-.-.*.&.-.-.-.&.&.-.-.-.&.*.l.q.; - ; / = - 4 g d d g 2 = = = 1 i * * . &.*.-.-.=.%.=.-.",
"-.=.=.=.=.-.-.=.=.-.-.-.=.-.4.-.=.O 7.A./ - < w.< - u K.^.^.{.J.V 5 * 1 i * * O =.*.-.-.-.-.=.-.",
"-.=.*.*.-.=.-.&.=.=.=.-.&.=.x.4.u u ] B.>.0 5 2.1 0 9 C P.#.#.P.{.P.i * @ ; * - -.&.=.-.=.=.&.-.",
"%.-.-.-.*.&.-.-.-.*.&.c n 4 } p.( ( g p 0 h h k 9 h j g < d Y h S K.K.k * < : : a -.=.&.=.-.-.-.",
"=.=.&.-.=.=.=.*.-.=.=.a ( M ( ) E W ..#.#.B z j k j 0 2 3 a 7.x.w.j S K.V = = i a =.-.*.=.*.=.-.",
"% G K -.-.-.*.&.-.-.-.l o.E o.K.!.~._.b.!.Q.o.j q j 9 2 2 ' w.m.V.l.R C J.9 - ' a =.-.-.=.&.=.-.",
"H P .X1.,.-.-.=.=.@ 4 h Y L.#X>X}.z.L.!.=XY.6.T h 6 5 q : k.}.^.4.0.7.j S #.< 5.r . -.-.-.-.*.=.",
"K P .XI.G.N.0.*.=.- 5 h E.;X,X-Xa.7.[.-X}.2.6.k 0 3 0 j a _.*X$X).S.6.R g K.B : = X =.=.n A % =.",
"K P .XoX=X&X).t r a S !.-X,X>X!.b.U.r...a.>.' h 2 ; Y j ~ L._ 1.h.$X[.3.h N l = * > c &.;.A G =.",
"K P $.J.Y.P.$Xb.D.).d.W.W.Q.Y.(.[.d.3.| Y s z 5 5 0 9 8 j ! ] e.C.g.I.%Xy.l l r i g.F.S.S.A G =.",
"% K oXF.V.V.S.!.W.K.[.).'.). X$Xd.z.<.k.[ [ W 8 4 h T ! [ j.6.m.Z.C.<.K.%X%X).'.[.I.t.T.-XR.G -.",
"% K OXG.A.V.0.>.3.n S J.K.P.#.A Q a.6.e.{ [ [ ! 0 W [ [ [ k.8.V.e.>.<.u.Q.Y.Y.J.P A 9.N.I.J K -.",
"% J E.c.} ;.n :.,.5.s / z.B.} ^ b x ` w.k.[ [ [ [ [ [ [ +.x.<.4.<.3.J.*X XN.N.:.r.R.1.,.8.A $.-.",
"&.w ! E ` 3.oX@X/.5.^ ,.2.Z.V.5.s b b ^ B.+.[ [ [ [ [ [ j.w./ >.r.OX>X&XA.C.M.:.3.+XQ.1.:.V P -.",
"-.9 E <.3.OX,X;X`.] ^ 4.~ B.].&Xn.} a & ^ x.{ [ [ [ { k.a.U f P.*X;X XG.A.Z.M.:.<.@X>XT.,.V K -.",
"-.u 3.6.OX:X{.F.j.! ^ 4.E B.|.,X;X(.i & & ^ c.[ [ [ ~.b.I I #.R.K.y.,.M.Z.Z.M.:.3.@X,X].w.H L t ",
"-./ 1.R.XX-.-.( [ ! ^ <.E B.|.>XOXW.) q & 7 [ [ [ z.|.#XU #.oXL *.-.-.e.Z.Z.M.:.3.@X;XG.| C M v ",
"&.=.=.=.*.*.-.=.! ! ^ <.R B.|.OXr.u b ` E ! [ [ j.A.&X>XOX*XP -.-.=.*.;.C.Z.M.:.3.@X&Xx.Y 0 h > ",
"&.=.-.-.*.*.-.*.T ! b <.E x.'.W.y.E R l 1 8 W [ j.C.!.R.OX$.=.=.-.*.*.-.M.Z.M.:.3.@X X/ =.=.-.-.",
"=.=.&.=.-.-.*.&., Q b <.T z.g./.X.x _ y.V e F e  . .D #.*XN *.&.-.-.-.&.n N.M.:.3.@X*X=.=.%.=.-.",
"=.-.=.=.-.-.-.=.-.j ^ 4.Y ] g.F.l g k d.U.k e D @.D D E.#.q 4 o =.-.-.=.=.` z.:.3.oX.X=.-.=.-.-.",
"-.-.*.*.-.=.-.&.*.; v <.d o.H.H.M E ( t.i.x _ 3 & 3 s.D.l Y 9 q 5 =.-.-.8 Q ~ ^ 3.J -.=.-.*.*.-.",
"&.=.=.-.=.&.-.-.-.*.r v =.X.H.].r.f p.).I.u ..E C U.^.Q.#X .9 T 9 @ *.-.j [ ! x t -.=.*.=.=.=.-.",
"&.-.=.=.=.*.=.=.-.*.=.=.=.R n.].y.f S I.i.S U.o.B Z oX:X@XoX..9 9 5 =.=.W ! W k c c -.*.=.=.=.-.",
"=.=.&.=.-.-.*.&.-.-.-.&.&.z k.H.y.R ~./.I.S d._ 4 $ r.L +X-X~., T 0 -.3 ! T _ l.3.*.-.-.=.&.*.-.",
"-.=.=.=.=.-.-.=.=.-.-.-.q R a.n.S.u u.I.U.X.) 9 -.-.X.y % J.d.0 T 0 o 9 [ ( m.e.# =.-.-.-.=.=.=.",
"=.-.*.*.-.=.-.&.*.-.=.*.Q E a.n.].M d.'./.V g o =.-.*.*.=.X.X._ j 5 4 W c.s.1.1.=.*.=.-.=.=.*.-.",
"&.=.-.=.=.&.-.-.-.*.&.q a.t.' v.H.y.l L.U.J.2 4 2 O -.-.*.u.A p.9 q 9 O.n.s.t.f.=.-.=.&.=.-.=.-.",
"*.=.*.=.-.=.=.*.-.=.=.O.f.y ' v.F.f.j d.'.J.Z X.X.9 @ =.-.y =.l g h k c.D.w.5.l *.=.-.=.=.*.=.-.",
"=.=.&.-.-.-.*.&.-.-.l y.Z -.M o.b.D.x f X.U.u.i.r.l 2 o -.-.y d.E 4 Q ~.g.8./ r &.=.-.-.=.&.=.-.",
"-.-.=.=.-.-.-.=.=.-.-.-.o u h._ 5.n.y.l E o.t.I.J...> @ X y Z A l f a.(.(.A -.-.-.=.=.-.-.-.=.=.",
"=.=.*.*.=.=.-.*.*.-.=.=.1 M O.z k.v.b.( u x x x o.S x k i z > f x s.(.`.h.> -.*.=.&.=.=.=.=.&.-.",
"%.=.-.-.*.&.-.-.=.*.*.. @ u 5 + ( j.v.n.t.l f ( i z m m l M l A h.(.(.S.y._ &.*.-.=.=.&.=.-.-.-.",
"=.=.&.-.-.-.*.*.-.=.< 5 @ 2 O -.5 ) a.v.b.b.r.X.y.h.S.S.S.S.S.S.(.(.(.y.0.x.5.-.&.=.=.=.=.&.=.-.",
"-.=.*.=.=.-.*.*.-.-.4 0 - 2   -.8 - ; ( } k.S.D.D.(.D.D.S.(.D.(.(.h.r.*.*.>.3.f ; -.-.-.=.*.-.-.",
"-.-.=.*.-.-.-.*.=.-.-.O @ 2   -.=.; , ( e.2.r.y.f.y.y.y.y.y.y.y.y.q.-.-.*.=.-.-.=.*.-.-.-.=.*.-.",
"*.=.*.=.=.*.-.*.=.=.O o X v t =.*.h 8 _ V.z.*.s w.l.q.# =.+ 2 W a.M.*.-.*.=.=.=.-.*.-.*.=.=.*.-.",
"&.-.-.=.*.&.-.-.=.*.- 0 4 v t ; q Y 8 W k./ -., ] j.<.-.*.z x ! | N.n -.-.-.&.*.-.-.=.&.=.-.-.-.",
"=.=.&.=.-.-.*.&.=.-.-.@ ; ) / / v 8 O Y ] &.*.-.Y h &.-.q.2.' g W z.3.&.&.-.-.=.&.*.-.-.=.&.=.-.",
"=.=.=.-.-.-.=.*.-.=.$ < u < R / n a # 1 0 &.=.-.-.; y :.V.M.' < -._ n =.=.-.-.-.*.=.-.-.-.*.-.-.",
"-.-.=.&.-.-.-.Z u.I.d.Z - 2 , f b n ,.,.;.n c ,.>.<.e.:.0.M.y *.*.-.-.-.*.=.-.-.-.&.-.-.-.=.&.-.",
"&.=.=.=.=.*.-.=.=.*.*.-.=.-.*.*.f ( ^ v v r n m.C.8.M.<.n 0.-.=.=.=.*.=.*.-.*.*.-.*.-.&.=.=.=.-.",
"&.-.-.-.*.*.=.=.-.*.*.-.-.-.*.*.@ 1 1 < ; X # 9.8.-./ :.=.n =.=.-.*.*.-.-.-.&.*.-.-.-.&.=.=.=.-.",
"-.*.%.=.-.-.&.&.-.-.-.&.&.-.-.-.o @ @ o *.%.*.t # *.%.-.-.-.&.&.-.-.=.&.&.-.-.=.&.*.-.-.=.%.=.-."
};
