/* XPM */
static char *_4ad3ad51f8e41bcfe2a9c23b25e3656ETtRfrHyJBrbbgKm[] = {
/* columns rows colors chars-per-pixel */
"48 48 243 2 ",
"   c None",
".  c #100B03",
"X  c #231404",
"o  c #2B1604",
"O  c #2B1808",
"+  c #351C07",
"@  c #230F01",
"#  c #3D220C",
"$  c #35240A",
"%  c #393506",
"&  c #333011",
"*  c #393535",
"=  c #302D28",
"-  c #4F0906",
";  c #442204",
":  c #4B2504",
">  c #4B2B05",
",  c #43250B",
"<  c #492A0D",
"1  c #442C0A",
"2  c #522E0D",
"3  c #532E07",
"4  c #4A3509",
"5  c #53330C",
"6  c #5B330E",
"7  c #533A0C",
"8  c #5D3C0C",
"9  c #533A06",
"0  c #4A2C11",
"q  c #552B16",
"w  c #543111",
"e  c #5C3512",
"r  c #5D3C15",
"t  c #473812",
"y  c #633611",
"u  c #643A14",
"i  c #6B3D14",
"p  c #713E13",
"a  c #612F0E",
"s  c #6B2B33",
"d  c #4D392B",
"f  c #3E4100",
"g  c #554509",
"h  c #5A5806",
"j  c #594515",
"k  c #4C4911",
"l  c #66490C",
"z  c #6A560B",
"x  c #795B0E",
"c  c #634314",
"v  c #6B4B13",
"b  c #684618",
"n  c #734215",
"m  c #7B4415",
"M  c #7D4A19",
"N  c #774A17",
"B  c #6A5819",
"V  c #7C5B16",
"C  c #775717",
"Z  c #73480F",
"A  c #6A6708",
"S  c #7E6C0D",
"D  c #74670A",
"F  c #7B760A",
"G  c #7B7707",
"H  c #79641A",
"J  c #6A691F",
"K  c #58512F",
"L  c #6D4E22",
"P  c #695729",
"I  c #745727",
"U  c #6D5231",
"Y  c #6C6624",
"T  c #7B6528",
"R  c #797426",
"E  c #786638",
"W  c #761B43",
"Q  c #752F48",
"!  c #4D4549",
"~  c #554D4E",
"^  c #5D554B",
"/  c #645B5C",
"(  c #615846",
")  c #6E6C4E",
"_  c #786C6D",
"`  c #746F65",
"'  c #7D5160",
"]  c #932611",
"[  c #AF1401",
"{  c #844B15",
"}  c #864B18",
"|  c #835314",
" . c #845B13",
".. c #885917",
"X. c #945219",
"o. c #9A5819",
"O. c #A45B1B",
"+. c #AA5E1C",
"@. c #836B0C",
"#. c #81660E",
"$. c #847B0C",
"%. c #8A651A",
"&. c #876718",
"*. c #976918",
"=. c #8D7111",
"-. c #987817",
";. c #AA691A",
":. c #B3631E",
">. c #B76A1D",
",. c #BA771B",
"<. c #A77715",
"1. c #84552D",
"2. c #946424",
"3. c #837B23",
"4. c #857726",
"5. c #957427",
"6. c #877937",
"7. c #8C6730",
"8. c #AF7122",
"9. c #C17D1D",
"0. c #871F4A",
"q. c #897846",
"w. c #8A7153",
"e. c #857B74",
"r. c #9E684A",
"t. c #8D890C",
"y. c #898209",
"u. c #928D0B",
"i. c #968A0B",
"p. c #9B950D",
"a. c #9E9A0D",
"s. c #989308",
"d. c #8C8714",
"f. c #9A8713",
"g. c #999312",
"h. c #989415",
"j. c #A19D0D",
"k. c #A88618",
"l. c #B7881A",
"z. c #A49916",
"x. c #B89A16",
"c. c #A8A20E",
"v. c #BCB60F",
"b. c #ACA313",
"n. c #B3AB11",
"m. c #B8A712",
"M. c #B5AF0F",
"N. c #888428",
"B. c #968927",
"V. c #9B942A",
"C. c #9A9328",
"Z. c #8B8634",
"A. c #928C3A",
"S. c #99953A",
"D. c #A88A28",
"F. c #B98A26",
"G. c #A2982D",
"H. c #A89938",
"J. c #A98E38",
"K. c #BAB427",
"L. c #BAB438",
"P. c #B0A62F",
"I. c #C38A1A",
"U. c #C9971A",
"Y. c #C3A617",
"T. c #D6A919",
"R. c #C4BB12",
"E. c #D7BA17",
"W. c #C2BC0E",
"Q. c #C3892A",
"!. c #C79A24",
"~. c #D9B62D",
"^. c #D7BB34",
"/. c #CCB02E",
"(. c #CAC415",
"). c #D3CC13",
"_. c #D7C816",
"`. c #DDD513",
"'. c #E5CD15",
"]. c #E3DB13",
"[. c #E8D416",
"{. c #ECE216",
"}. c #F2EA16",
"|. c #F1E81B",
" X c #C9C32A",
".X c #CAC539",
"XX c #D2CC3C",
"oX c #D7C734",
"OX c #DCD63A",
"+X c #E7D839",
"@X c #E5DC2C",
"#X c #F2E53B",
"$X c #ECE432",
"%X c #9B9557",
"&X c #918A4D",
"*X c #A29958",
"=X c #A9924C",
"-X c #A9A545",
";X c #B9B448",
":X c #A9A459",
">X c #B5B255",
",X c #918E6E",
"<X c #AD9666",
"1X c #AAA767",
"2X c #A7A578",
"3X c #B8A778",
"4X c #B8B56F",
"5X c #CDB045",
"6X c #C1BC6C",
"7X c #DBD542",
"8X c #DBD657",
"9X c #CEC94F",
"0X c #E1D945",
"qX c #E1DC58",
"wX c #E1C04F",
"eX c #F1EC4A",
"rX c #C9C577",
"tX c #D4D06A",
"yX c #F3D56B",
"uX c #F3EE66",
"iX c #EFEA76",
"pX c #948586",
"aX c #8C8C82",
"sX c #A19F91",
"dX c #A9A487",
"fX c #B7B596",
"gX c #ABA992",
"hX c #BBB9A6",
"jX c #BAB9AB",
"kX c #AEAEA1",
"lX c #C8B793",
"zX c #CECB8F",
"xX c #F5F292",
"cX c #CECCAD",
"vX c #E6DDAE",
"bX c #E7E5B5",
"nX c #F6F4B7",
"mX c #E0DD90",
"MX c #D9D8CA",
"NX c #E9E8DC",
"BX c #F7F6DF",
"VX c #F0ECC4",
"CX c #F5F5E6",
/* pixels */
"                                                                                                ",
"                                          7       N     5 8 o + o o + X                         ",
"                                           .m.g o  .R.9 6 f.> : 6 9 : ; + o                     ",
"                                    &.    : 8 1 ; 5 D 9 : i.D ; 8 l : > > : o                   ",
"                                    Y.b.1 ; 1 $.> ; w b c c L < > > : 8 l : : X                 ",
"                            j.    + x.|.$.< 5 m.7 , r %X6X6XrX&XI 6 : 8 l : > +                 ",
"                            E.j.j j ;.'.i.i e f.8 i u U *Xq.q.*XrX*Xc : # 1 : ;                 ",
"                      A F w <.D.&.&.b Z i n n N u n M b w i { n E %X*XN : 9 3 3 z               ",
"                      z &.H %.%.%...7.r.q.L C m N m i 0 q z x.E.m.M E %XI > > l z               ",
"= ~ /                 B 5...5.*X3X5XwX/.3X2X5.M n m u 0 0 -.m.(.].Y.| U &Xu : -.z               ",
"~ _ pXd.s.        # w n } =XlXVXyXT.=X3XvX:Xz.} n r e p 3 U.yX6Xc.v.x.m E q.w k.g @             ",
"/ _ pX-X$X`.v.    , e n <XVXBXbXl.x.tXbXyXf.z.N i q i M z wXcXzX8X Xz.| b %XL 2 : o     F R =   ",
"/ _ pXdXbXxX8Xh g z E 3XbXBXNX4X X;XN.6.F.u.-.n 0 < { m #.=X2.d.L.zXtXh.n K L > : 4 A   y.3.!   ",
"/ _ e.&X:X:XzX5XOX8XH.1X1X2X:XOXtXH.g.,.{ x C e e i u y m O.;.n.{.K.-XmXC.B B g l K.@X.X.XR !   ",
"* ~ dX@X].`. X4X1X%XtX8XqX8XiXzXJ.R.p.U.:.:.X.y w n { O.:.I.b.(.}.{.a.%XmXmXqXqXtX-XS.>XbX,X!   ",
"* / fX$X{.].v.u.g.F E &X%X*Xw.R o.l.z.m.>.:.:.O.i X.:.:.:.U.c.].M.u.a.Z.2X:X:X&X` R n.`.-X( /   ",
"* ( <XQ.<.y.G d.s.k.x $.W.[.<.@.@.V =.m.U.:.:.:.:.:.:.:.9.E.p.c.a.h.&XcXiX`.`.t.N.,Xd.s.c.R e.  ",
"  d +...=.h.dXhX9Xl.@.s.f.}.[.l.x S S @.'.9.:.:.:.:.:.:.I.m.G i.N.fXNXxX|.}.).t.h.kX2Xd.u.P `   ",
"  u ..p.h.fXCXnX0X;.@.j. .'.eXxX~.<.z - @.E.>.:.:.:.>.U.x.] v *XcXnXiX$X|.}.).t.a.hXNX>Xs.P /   ",
"  j h.z.fXMXrX@XI.O.@.j. .'.uXCXnX0Xl - - @.Q.:.:.:.5X/.[ [ w.aX%XC.s.).}.}.).t.h.hXBXeXm.~ ) h ",
"  $.d.,XsX    %.:.O.@.j...'.uXNXfX1X%.n - a :.:.:.T.uXlX] r.gX)       n.}.}.).t.h.hXnX$X,.U H D ",
"                O.+.@.a. .'.uXfXN.j S =...O.:.:.I.|.xXVXfXcX`         y.{.}.).t.h.hXxXE.{ i n 4 ",
"                { +.S a. .E.qX1XV... .B 8 u X.:.I.{.rX,XfXe.            ).}.).t.g.hXiX=.        ",
"                6 o.S a.| T.K.9X4.V *.B.I s Q s 1.1.s ' cXK             F `.).t.g.hXcX          ",
"                  m S j.| ;.K.+XB b N H.;XN s W 0.W W <Xq.p w O           =.W.t.h.gXaX          ",
"                  1 D a.i 5.#X#XH ..&.S.A.V *.q - q G.XXB } u n e       y o.#.@.g.^             ",
"                    g D   3.#XeXN.v D.8X-Xj 4...U ;X6X2XlX1.u } u #     m :.+.V h               ",
"                          V ~.eXB.v T -XA.T ;X5.L Y dXMXjXgX7.u u e     X.+.X.N A A             ",
"                          C !.#XG. .5X9X-XT H.2.w & N.) kXbX5X6 } i   q +.} *.Y.g.              ",
"                        p | F.~..Xj Z.-X;X4.2.u     3.k = &XH.i } i O u :.&.(.n.%               ",
"                        o...F.~.eXH H.qX9XP b O           3.3.*.M e w X.Q.G.d.d.                ",
"                      p F.B.-.!.#XC.B =X;X&X0 w 0 +       Z.R D.u p u 8.^.G.B.P.                ",
"                      8.P.k -.!.+XP.m J.qXS.Y 4.4.u #     k   B n n M Q.XXY.k.B                 ",
"                    B V.Y   H 5./.OXV v 4.;XZ.A.N.B 0 O     k H...w o.5XK.b.$.g                 ",
"                        O j L.*.k.^.C.B ..5.S.-XA.6.t # X k J R B v F.7X7XR                     ",
"                        8 H 8.C U.!./.&.j C C V 5.T V N l C t v C G.7X0XL.t                     ",
"                      X # j e $ &.I.!.^.B.B v &.c C J J B H B R L.7X7X.XC.*.                    ",
"                    6 e # 0 +   6 %.F.!././.N.3.C.L..X.X.X.X.X.X7X0X7XC.v.E.k.                  ",
"                    w i , 0 .   y , 1 &.<.!..XXXXXXXXXXX.XXXXX7X7XL.N.    u.g.v 1               ",
"                      + # 0 .     < 6 &.n.f.N.V.P.G.G.V.V.V.V.V.V.c.                            ",
"                    + O X D h     p y *.[.R.  x m.Y.b.%   $ 0 X.l._.                            ",
"                    , i 5 D h 1 p { y X.U.$.  6 ;.I.j.    C V O.9.`.F                           ",
"                      # 1 %.$.$.D y + { +.      { p     b.f.-.b X.T.g.                          ",
"                    & 7 j 7  .$.G z % 8 i         1 k t.].).-.7   =.F                           ",
"              Y Z.-XH.Y ; 2 6 v S G s.s.y.G A s.u.a.n.t.v.).k                                   ",
"                                v &.@.D D g G (.{.c.).j.F v.                                    ",
"                                # 8 8 5 < X % M.c.  $.t.  F                                     ",
"                                O # # o       h %                                               "
};
