/* XPM */
static char *_1653c6f1e034db1fb75fe65786a4d73xlCBltHy0cal8vjd[] = {
/* columns rows colors chars-per-pixel */
"48 48 32 1 ",
"  c #33B033",
". c #33B133",
"X c #32AF32",
"o c #33AF33",
"O c #2FA92F",
"+ c #2EA72E",
"@ c #2DA62D",
"# c #2FAA2F",
"$ c #2CA42C",
"% c #31AD31",
"& c #32AE32",
"* c #30AC30",
"= c #2DA52D",
"- c #2AA12A",
"; c #31AC31",
": c #31AE31",
"> c #2CA32C",
", c #2EA82E",
"< c #30AB30",
"1 c #2AA02A",
"2 c #30AA30",
"3 c #2CA52C",
"4 c #299F29",
"5 c #2BA22B",
"6 c #2FA82F",
"7 c #2BA32B",
"8 c #2DA72D",
"9 c #34B134",
"0 c #2BA12B",
"q c #299E29",
"w c #289D28",
"e c white",
/* pixels */
" . X  .oX ..X o..X  . X  . X  .oX ..X o..X  . X ",
"  O+   @#  X$%  &$X  *=   O+   @#  X$%  &$X  *= ",
"-&XX*$ XXO@.&X@O &X$; X:>&XX*$ XXO@.&X@O &X$; & ",
",X;X%#X; <*&% #%%% O&;&XOX;X%#X; <*&% #%%% O&;&.",
" <-X .+$   $+   -<  &1%  <-X .+$   $+   -<  &1% ",
"  &&   :& . %X .X%  .X%   &&   :& . %X .X%  .X% ",
"XoO, X @2 XX3% X&$&oX*= XoO, X @2 XX3% X&$&oX*= ",
"4X  <5   +=.  $O. X5;. %-X  <5   +=.  $O. X5;.  ",
"<&6XX%%O %&<2 ;&#; *XO: ;&6XX%%O %&<2 ;&#; *XO%.",
" *$  .O@  .@O   $;  &7&  *$  .O@  .@O   $;  &7& ",
" .%*  .;%   <& . <X .X<  .%*  .;%   <& . <X .X< ",
";X#OX%o,<X%X@%&%&@X:&;+X%X#OX%o,<X%X@%&%&@X:&;+ ",
"4X..#5...8=9  >O9 X-%. %-X..#5...8=9  >O9 X-%.  ",
"&%3X X2@ XX,, &X@< &&3% &%3X X2@ XX,, &X@< &&3%.",
" %+ o <O  .O<   +:  X8X  %+ o <O  .O<   +:  X8X ",
" .*#  .#*   ,:  X,X .&,  .*#  .#*   ,:  X,X .&6 ",
"OX*<&#o#;%< O&;;XOX<%%#X#X*<&#o#;%< O&;;XOX<%%# ",
"1o  <$. .++.  $2. X5%. %5o  <$. .++.  $2. X5%.  ",
" <5X  ,$   =+  X7#  &0%  <5X  ,$   =+  X7#  &0%.",
" X< o %; o.*%   <&   2Xo X< o %; o.*%   <&   2X ",
"  #,   ,<   @%  X=X  %@   #,   ,<   @%  X=X  %@ ",
"=&:%%+ %&<, ;XO2 *X+%X;&8&:%%+ %&<, ;XO2 *X+%X; ",
"$oX *8 & OO X 8* X =&Xo&=oX *8 & OO X 8* X =&XX ",
" <-X  +7   $8  o-#  :1%  <-X  +7   $8  o-#  :1% ",
"  %X  X:Xo.&&oo.:&   %X   %X  X:Xo.&&oo.:&   %X ",
"  O+   @#  X$%  &$X  *=   O+   @#  X$%  &$X  *= ",
"-&XX*$ XXO@.&X@O &X$; X:>&XX*$ XXO@.&X@O &X$; & ",
",X;X%#X; <*&% #%%% O&;&XOX;X%#X; <*&% #%%% O&;&.",
" <-X .+$   $+   -<  &1%  <-X .+$   $+   -<  &1% ",
"  &&   :& . %X .X%  .X%   &&   :& . %X .X%  .X% ",
"XoO, X @2 XX3% X&$&oX*= XoO, X @2 XX3% X&$&oX*= ",
"4X  <5   +=.  $O. X5;. %-X  <5   +=.  $O. X5;.  ",
"<&6XX%%O %&<2 ;&#; *XO: ;&6XX%%O %&<2 ;&#; *XO%.",
" *$  .O@  .@O   $;  &7&  *$  .O@  .@O   $;  &7& ",
" .%*  .;%   <& . <X .X<  .%*  .;%   <& . <X .X< ",
";X#OX%o,<X%X@%&%&@X:&;+X%X#OX%o,<X%X@%&%&@X:&;+ ",
"4X..#5...8=9  >O9 X-%. %-X..#5...8=9  >O9 X-%.  ",
"&%3X X2@ XX,, &X@< &&3% &%3X X2@ XX,, &X@< &&3%.",
" %+ o <O  .O<   +:  X8X  %+ o <O  .O<   +:  X8X ",
" .*#  .#*   ,:  X,X .&,  .*#  .#*   ,:  X,X .&6 ",
"OX*<&#o#;%< O&;;XOX<%%#X#X*<&#o#;%< O&;;XOX<%%# ",
"1o  <$. .++.  $2. X5%. %5o  <$. .++.  $2. X5%.  ",
" <5X  ,$   =+  X7#  &0%  <5X  ,$   =+  X7#  &0%.",
" X< o %; o.*%   <&   2Xo X< o %; o.*%   <&   2X ",
"  #,   ,<   @%  X=X  %@   #,   ,<   @%  X=X  %@ ",
"=&:%%+ %&<, ;XO2 *X+%X;&8&:%%+ %&<, ;XO2 *X+%X; ",
"$ X *+ & OO X 8* X =&Xo&= X *+ & OO X 8* X =&XX ",
" #q&  @-   5=  X4O  %w;  #q&  @-   5=  X4O  %w;."
};
