/* XPM */
static char *result[] = {
/* columns rows colors chars-per-pixel */
"48 48 158 2 ",
"   c #F40511",
".  c #F40C13",
"X  c #F41214",
"o  c #F41B16",
"O  c #F52417",
"+  c #F52419",
"@  c #F42E1A",
"#  c #F5351D",
"$  c #F5391F",
"%  c #F53C20",
"&  c #977F23",
"*  c #9A7F24",
"=  c #B07A21",
"-  c #F3401B",
";  c #F24F1B",
":  c #CB661D",
">  c #C46B1F",
",  c #CD691E",
"<  c #D16D1E",
"1  c #C9721E",
"2  c #D3731E",
"3  c #DB761E",
"4  c #D67A1D",
"5  c #DE791E",
"6  c #EA6B1E",
"7  c #F0651D",
"8  c #E37D1F",
"9  c #EF781E",
"0  c #F64823",
"q  c #F64E2F",
"w  c #F55226",
"e  c #F65827",
"r  c #F65C29",
"t  c #CD6C23",
"y  c #C5742A",
"u  c #DA7420",
"i  c #D77F25",
"p  c #D47935",
"a  c #F6662C",
"s  c #F6682C",
"d  c #E47C22",
"f  c #F6712E",
"g  c #F37B29",
"h  c #F77630",
"j  c #F67D32",
"k  c #299E29",
"l  c #2CA52C",
"z  c #2FA92F",
"x  c #34A62E",
"c  c #31AE31",
"v  c #3AAC32",
"b  c #33B033",
"n  c #449D2B",
"m  c #569F2F",
"M  c #788B26",
"N  c #6B952B",
"B  c #6A992B",
"V  c #78912A",
"C  c #48A52F",
"Z  c #4EAD2D",
"A  c #54A22F",
"S  c #54AE2C",
"D  c #59B32E",
"F  c #45AC33",
"G  c #4BAC33",
"H  c #55AA32",
"J  c #5EB73F",
"K  c #7DB72B",
"L  c #67AB37",
"P  c #79AA34",
"I  c #75AD39",
"U  c #7CB836",
"Y  c #50B845",
"T  c #AF8433",
"R  c #8AA934",
"E  c #8DAB3A",
"W  c #ABA625",
"Q  c #A9B825",
"!  c #BABB24",
"~  c #B2A839",
"^  c #E3831F",
"/  c #ED861F",
"(  c #E28E1D",
")  c #F0811F",
"_  c #E5941E",
"`  c #E99F1D",
"'  c #E0A51F",
"]  c #EEA41D",
"[  c #F2AD1D",
"{  c #E9BF1F",
"}  c #F6B41D",
"|  c #F8B71D",
" . c #F1BA1C",
".. c #F9BA1D",
"X. c #E78220",
"o. c #ED8520",
"O. c #E68E26",
"+. c #EE8A23",
"@. c #F18D25",
"#. c #EE9324",
"$. c #F1962B",
"%. c #F68434",
"&. c #F68B35",
"*. c #F59435",
"=. c #F49C33",
"-. c #F79538",
";. c #F79D3A",
":. c #D4B728",
">. c #C8A83B",
",. c #D3A73E",
"<. c #DEA63C",
"1. c #F8AE28",
"2. c #EEB025",
"3. c #F9B22B",
"4. c #F7A436",
"5. c #F7A53D",
"6. c #F8A739",
"7. c #F7A93E",
"8. c #EAC01F",
"9. c #F4C31E",
"0. c #FFC41D",
"q. c #FFC81D",
"w. c #89B04D",
"e. c #8AB85C",
"r. c #8BBD61",
"t. c #DA8649",
"y. c #EEAB4E",
"u. c #F7A642",
"i. c #F6AC43",
"p. c #F7AA4D",
"a. c #ECAC51",
"s. c #F7AC53",
"d. c #F7AE58",
"f. c #F9B652",
"g. c #F7B15E",
"h. c #E59E6B",
"j. c #CBB768",
"k. c #D1B665",
"l. c #F7B367",
"z. c #F5B66E",
"x. c #F8B569",
"c. c #F7B670",
"v. c #F7B979",
"b. c #F8BB7B",
"n. c #8DC666",
"m. c #B8CD7E",
"M. c #FAC37B",
"N. c #F6BE85",
"B. c #F8BD84",
"V. c #F8BF89",
"C. c #F5C687",
"Z. c #F8C293",
"A. c #F8C69C",
"S. c #FBD49C",
"D. c #F9C1A5",
"F. c #F9C9A5",
"G. c #F9CAAC",
"H. c #F9CDB3",
/* pixels */
"b b b b b b b b c b b b b b b b b c b b b b b b b b b c b b b b b b b b b b b b b b b b b b b b ",
"b b z l b b b l c b b c l c b b b l b b b z l b b b z z b b b l z b b b l z b b b l b b b z z b ",
"l c b b c l b b c z z b c c l z b c c l c b b c l c b c z l b b b z l b b b z z b b c l c b b b ",
"l c c c c z c c b z c c c b z c c c b z c c c c z c c c c z c c b z c c z b z z z z b z b z b b ",
"b z l b c b z l b b b l x b b b l z b b c l c b b z l b b b z l b b b l l b b b l z b b z l z b ",
"b c c c b b b c c c b b c c b b b z b b b c c b b c c c b b b c b b b b c b b b b b b b b c c b ",
"b b z z c c b l c c c b l c c c c l c c c z l b b b z z b c b l z b b b l c b c z z c c b z z b ",
"l c b b z l b b b z l b b b l c b b b l c b b c l c b b z l b b b l l b b b l z b b b l z b b b ",
"z c z c b z z z b b c z c c c c z z b z b z c b z c x b b c c z b c c z c b c c z z b z c z b b ",
"c c l b b b z z b b b z c c c c l b J U :.2. .9.9.9.9.:.K D x l b b b l z b b b z c b b c l b b ",
"b b c z b b b z z b b b c c b c Y m.C.f.6.4.3.1.1.` _ ` | 9.! Z z b b b z c b b b z b b b c z b ",
"c b z z b b b z z b z b l c c n.S.x.u.5.5.5.5.5.*.o.d 3 4 ] 0.q.Q D c c z c c c c z b c b z z b ",
"k b b b z l b b b z z b b b r.M.7.4.5.5.5.5.u.5.5.;.@.+.3 : 4 ..0.8.Z b b b l z b b b l b b b b ",
"c c l b b b z z b b b z z e.b.5.4.5.5.5.5.5.5.5.5.7.4.+./ 8 : 4 } 0.{ S z b z c z z b z z l z b ",
"b c l b c b z z b b b z w.C.u.4.5.5.5.5.5.5.5.5.5.5.5.4.+./ 8 : 4 ..0.8.S b b b z c b b b z b b ",
"b b c z b b b z z b b I N.g.4.5.5.5.7.5.5.5.5.5.5.5.5.i.=.o./ 3 : _ 0.0.Q b b b c z c b b c z b ",
"z c c z c z b z c c v j.b.4.4.5.5.5.%.5.5.5.u.5.5.7.5.s 4.$.+.^ , , [ 0.0.Z c c c x b z z b z b ",
"l b b b z l b b c z L Z.s.5.v.B.i.&.+ %.5.u.5.5.4.-.f X s &.o.o.3 < ` 0.0.W l c b b c l z b b b ",
"c z l b b b z l b v k.V.5.u.A.D.q O . + 0 &.7.5.-.$ . . . # g / X.< _ 0.0.' A b l z b b c l b b ",
"b b z b b b c z c I N.b.4.5.l.x.e . .   w 5.5.5.u.j X   X h =./ o.< 2 | q.[ B b z c b b b z b b ",
"b b z z b b b z c E A.b.u.5.4.7.%.X X . %.i.5.5.7.&.O $ o j 6./ / 3 : ( q.| = b b l b b b z z b ",
"l c c c c l b c c a.D.G.s.5.u.5.%.r &.r %.7.5.5.5.&.%.5.%.&.4.@.+.5 : < | ..1 z b z z z b b z b ",
"l c c b z z b c b y.F.G.s.4.5.5.5.i.5.7.4.5.5.5.5.5.i.5.7.5.4.+.o.8 : : ] ..1 z b b b l b c b b ",
"b z l b b b z l b a.F.G.d.4.5.5.5.5.5.5.5.5.u.5.5.5.5.5.5.u.5.+.o.8 : t ( } 1 c l z b b z l z b ",
"b b c b b b c c z a.G.H.l.4.5.5.u.5.5.5.5.5.5.5.5.5.5.5.5.7.5.+./ 8 , , 4 ] > c c c b b c c b b ",
"b b z l b b b z z y.F.H.v.4.5.5.5.5.5.7.5.5.5.5.u.5.5.5.5.5.5.+./ 8 , , 4 ( t b c z c c b z z b ",
"l c b b z l b c b i.A.F.v.u.5.5.5.7.5.r -.i.5.5.5.5.5.7.7.a j #./ 5 : : < 2 > z c c c z c b c b ",
"l c z b b z b z c ,.Z.G.s.4.5.5.5.&.f X w %.;.5.5.5.5.&.f o # 6 9 3 : < , , M c c c c z c c c b ",
"b z l b b b z l b I z.G.d.5.5.5.;.% . . . o %.7.5.5.5.e . . . o 7 2 : , t.p N b l z c b c l c b ",
"b b z b b b b z c L a.G.v.4.5.5.7.&.o   . a 7.5.5.5.7.;.@     ; ^ , : t h.y m b c c b b b c z b ",
"b b z z b z b z c c ~ B.A.u.4.u.7.-.+ $ + s i.5.5.5.5.;.$ - @ ; 2 , : t.h.& c c c z c b c c z b ",
"l b b b z l b b c x C p.Z.p.6.5.5.-.%.7.-.&.5.5.5.5.5.5.&.#.9 6 : : , h.T v l c c c c l c b c b ",
"z b z c c c c z c z b R z.c.4.5.5.5.7.5.7.7.5.5.5.5.5.5.$.) / 2 : , t p N b z c z c b c b z z b ",
"c z l b b b z z b b c z ,.z.p.5.5.u.5.5.5.5.5.5.5.u.5.;.@.o.3 : , , , M z b b b l c b b b l b b ",
"b b z c b b b z c b b b H <.p.5.5.5.5.5.5.5.5.5.5.5.;.+.o.3 , , , , * C c c b b b z b b b b z b ",
"c b z z b b b z z b c b z G E 5.5.5.5.5.5.5.7.5.5.4./ / 3 , , , , V z c l c c c c l b z b z z b ",
"l z b b z l b b b l l b c b l P >.5.5.5.5.5.u.u.=.+.^ 2 , , , , V z l b b b l z b b z l z b b b ",
"b z l b b c z z b b b l x b c c x L >.<.5.4.=.@.^ 3 , , , t * n b b b z z b c c z z b b b l b b ",
"b b z b b b z z b b b c c b b b z z b F R O.i u , > > = N A c z b b b z z b b b z z b b b z b b ",
"b b z z b b b z c b b b l c b b b z b c c c z b b b z z c b b z z b b b z c b b b z c b b z z b ",
"z b z c c z c z c c c c z c c c c z b c c c z b c c c c c z c z c c z b z c z b b z c z c c z b ",
"l c b c z z b c b l z b b b l c b c c l c c b c l c c c c z b c b z z b b b z z b b c l c b b b ",
"c c l c b b z l b b b l c b c c l z b b c k c b c c l c c c z l b b b z z b b b l z b b b l c b ",
"c c c b c b c c b b b c c c b c c c b b c c c b c c c b b b c c b c b z z b b b z c b b b z c b ",
"b c c z b c b z z b b b l c c c c l b b b c l b b c c z c c c z z b b b z z b b c z c b b c z b ",
"z c c c c z b c c z z b c c x c c c c z c c c b z c c c c z b c b z z b z b z z b z c z z b z b ",
"z b c c z z c c b z z b b b l z b b b l c c c c l c c c c z b c b z z b c b z z b b b z b z b b ",
"c z k c b c z l b b b l l b b b k z b b c k c b b c k c b c z k b c b l l b b z l z b b z l z b "
};
