/* XPM */
static char *_c6dde58943b4351c44c2afb78ff07fdC02hzw7FB45gu2k9[] = {
/* columns rows colors chars-per-pixel */
"48 48 121 2 ",
"   c None",
".  c #F40E13",
"X  c #F51214",
"o  c #F51C17",
"O  c #F51F18",
"+  c #F42517",
"@  c #F32B17",
"#  c #F52519",
"$  c #F52D1B",
"%  c #F5331D",
"&  c #F53C1E",
"*  c #F53C20",
"=  c #F4421E",
"-  c #F24F1C",
";  c #F1531C",
":  c #F15C1C",
">  c #CC671D",
",  c #CD691E",
"<  c #D26E1E",
"1  c #D4731D",
"2  c #D9741E",
"3  c #D67A1D",
"4  c #DD791F",
"5  c #E0651D",
"6  c #EB6D1E",
"7  c #EF761E",
"8  c #E17B1F",
"9  c #EE7D1F",
"0  c #F0731F",
"q  c #F54322",
"w  c #F54A24",
"e  c #F55526",
"r  c #F65827",
"t  c #F65C29",
"y  c #F64838",
"u  c #CE6C23",
"i  c #D1722C",
"p  c #D37733",
"a  c #D37834",
"s  c #D67D3C",
"d  c #F6632B",
"f  c #F66C2D",
"g  c #EF7A20",
"h  c #F6732F",
"j  c #F67730",
"k  c #F67B31",
"l  c #F6793C",
"z  c #DC841D",
"x  c #DE891D",
"c  c #E7801F",
"v  c #EC851F",
"b  c #E28C1D",
"n  c #E5951D",
"m  c #EE931F",
"M  c #E99E1D",
"N  c #F49C1F",
"B  c #F2AE1D",
"V  c #F5B31D",
"C  c #FAB71E",
"Z  c #FBBC1D",
"A  c #EE8720",
"S  c #EE8A23",
"D  c #F08524",
"F  c #F08F27",
"G  c #F08F28",
"H  c #F1922B",
"J  c #F68333",
"K  c #F68C36",
"L  c #F59335",
"P  c #F49C35",
"I  c #F69538",
"U  c #F69C3A",
"Y  c #F5A326",
"T  c #F9AF2C",
"R  c #FAB52B",
"E  c #F7A733",
"W  c #F9AD33",
"Q  c #F7A53D",
"!  c #F7A83E",
"~  c #F9B030",
"^  c #FBB832",
"/  c #FEC21D",
"(  c #D98445",
")  c #DE8E54",
"_  c #DF925A",
"`  c #F79C55",
"'  c #F7A642",
"]  c #F7A846",
"[  c #F7AA4B",
"{  c #F7AD54",
"}  c #F7AF5A",
"|  c #F7B05D",
" . c #E49E6B",
".. c #F7B264",
"X. c #F7B46B",
"o. c #F8BA6E",
"O. c #E6A271",
"+. c #EAAB7D",
"@. c #F7B772",
"#. c #F8B976",
"$. c #F8BA7C",
"%. c #FDCB4A",
"&. c #ECAF83",
"*. c #EDB288",
"=. c #F8BD83",
"-. c #F8BF8A",
";. c #F9C282",
":. c #F8C08D",
">. c #F8C292",
",. c #F9C994",
"<. c #F8C59B",
"1. c #FDDD92",
"2. c #FAD098",
"3. c #FDDC9D",
"4. c #F8C6A1",
"5. c #F8C8A5",
"6. c #F9CBAC",
"7. c #FCDCA5",
"8. c #FBD5A8",
"9. c #FEE3A4",
"0. c #FCE3BB",
/* pixels */
"                                    / R C Z / / / / / / / /                                     ",
"                              %.%.^ T T Y C / / / / Z / / / / / Z                               ",
"                          1.7.2.o.] Q Q W R T Y N N m b b M V / / / Z                           ",
"                      9.0.,.| ' Q Q Q Q Q Q Q Q H S v v i < 1 n V / / / /                       ",
"                    9.8.} Q Q Q Q Q Q Q Q Q Q Q Q U F v A v 2 , 3 M Z / / / /                   ",
"                  3.;.' Q Q Q Q Q Q Q Q ' Q Q Q Q Q U F A A v 2 , > 3 V / / / /                 ",
"                3.;.Q Q Q Q Q Q Q Q Q Q Q Q Q Q Q Q Q E F v A v 2 , > 3 V / / / /               ",
"              :.=.Q Q Q Q Q Q Q Q Q Q Q Q Q Q Q Q Q Q Q E F A A v 2 > > 3 B / / / /             ",
"            =.>.[ Q Q Q Q Q Q Q Q Q Q Q Q Q Q Q Q Q Q Q Q Q H v A v 8 > > 3 V / / / /           ",
"          X.4...Q Q Q Q Q Q Q Q Q Q Q Q Q Q Q Q Q Q Q Q Q Q P F v A v 1 > > x Z / / / /         ",
"        [ -.=.Q Q Q Q Q Q Q Q Q Q Q Q Q Q Q Q Q Q Q Q Q Q Q Q P S v A c < > > M / / / /         ",
"        $.<.[ Q Q Q Q Q Q Q Q Q Q Q Q Q Q ' Q Q Q Q Q Q Q J U E F v A v 2 > > 3 V / / / /       ",
"      } <.#.Q Q Q ] ] U ' Q k r Q Q Q Q Q Q Q Q Q Q Q Q I # f ! P v v S c 1 > , n / / / /       ",
"      =.<.[ Q Q ..<.-.] Q Q q o J Q Q ' Q Q Q Q Q Q Q Q t . % U Q H S A v 4 , 3 x V / / / M     ",
"    } 4.$.Q Q ' :.6.6.` J f o . q J K I Q Q Q Q Q f w * o . X % q r 9 v S c 1 1 M Z / / / V     ",
"    #.6.} Q Q ' -.6.4.y X X . . . X O t Q Q Q Q Q j O . . X X . . e D v S v 2 > 3 C / / / V u   ",
"  ' -.6.{ Q Q Q } :.=.l O . . . . X q I Q Q Q Q Q Q j o . . . X r Q H v A A 4 , , n / / / V z   ",
"  ] <.<.' Q Q Q Q ' ' Q d X . . . % U Q Q ' Q Q Q Q U $ . . . o J Q P A v A 9 < > 1 C / / / z   ",
"  | 6.-...' Q Q Q Q Q Q d . . X . $ U Q Q Q Q Q Q Q K # o * # . d ! E S v v v < , > x / / / z > ",
"Q X.6.5.<.[ Q Q Q Q Q Q w O r f % # K Q Q Q Q Q Q Q J w k Q K r d Q U F v S v 1 , > 1 V / / z > ",
"Q $.6.6.4.[ Q Q Q Q Q Q k K Q Q U h I Q Q Q Q Q Q Q U Q Q Q Q Q U Q Q F v A v 4 > , > n / / z > ",
"Q #.6.6.4.[ Q Q Q Q Q Q Q ! Q Q Q Q Q Q Q Q Q Q Q Q Q Q Q Q Q Q Q Q Q F v A A 4 , , > z / / z > ",
"Q $.6.6.4.[ Q Q Q Q Q Q Q Q Q Q Q Q Q Q Q Q Q Q Q Q Q Q ' Q Q Q Q Q Q H v D A 8 > , , 1 V / z > ",
"Q =.6.6.5.{ Q Q Q Q Q Q Q Q ! Q Q Q Q Q Q ' Q Q Q Q Q Q Q Q Q Q Q Q Q H v v v 4 , , , , M Z z > ",
"Q $.6.6.6.X.Q Q Q Q Q Q Q Q Q Q Q Q Q Q Q Q Q Q Q Q Q Q ! Q Q Q Q Q Q H v v v 8 > , , > M V 1 , ",
"Q $.6.6.6.X.Q Q Q Q Q ' Q Q Q Q ! Q Q Q Q Q Q Q ' Q Q Q Q Q Q Q Q Q Q H v v v 8 , , u > x V , , ",
"Q #.6.6.6.-.Q Q Q Q Q Q Q ! Q Q Q Q Q Q ' Q Q Q Q Q Q Q Q Q Q Q Q Q Q H v A A 4 > , , , z n , , ",
"Q ..6.6.4.>.[ Q ! Q Q Q Q Q Q Q K k Q Q Q Q Q Q Q Q Q Q Q Q Q ' L f U F S A v 2 , , , > 3 x , , ",
"Q | 6.6.-.X.{ Q Q Q Q Q Q Q Q Q q $ U Q ' Q Q Q Q Q Q Q Q Q Q Q d o J S v v v 1 > , , , , , , , ",
"Q { 4.6.<.] Q Q Q Q Q Q Q Q U k O X d U U Q Q Q Q Q Q Q Q Q U J # . = 9 v v c , > , , , > , ,   ",
"  Q -.6.<.] Q Q Q Q Q Q k * $ # . . O $ * h Q Q Q Q Q Q I q # O X . X o + - 9 , , , , , ( u ,   ",
"  Q X.6.5.} Q Q Q ' Q Q I q . . . X . . $ K Q Q Q Q Q Q Q h o . . . . . @ 7 4 > , , > a +.i >   ",
"  Q { 4.6.$.Q Q Q Q Q Q Q U * . X . . % K Q Q Q Q Q Q Q Q Q f X X . . + 0 v 1 > , , > )  .> ,   ",
"    ' =.6.>.] Q Q Q Q Q Q ! r . . . . w Q Q Q Q Q Q ' Q Q Q j X . . . @ v 4 , > , > u &.) >     ",
"    Q | 4.6...Q Q Q Q Q Q Q q X % q X $ U Q Q Q Q Q Q Q Q ! t o = ; @ o 7 < , , , , s &.i ,     ",
"      Q #.5...Q Q Q Q Q Q U e h U Q k e I Q Q Q Q Q Q Q Q Q j k F A 7 : 5 , , , , , O._ >       ",
"      Q [ <.@.Q Q Q Q Q Q Q U ! Q ! ! Q Q Q Q Q Q Q Q Q Q Q Q P A A v 9 < > , , , ( *.a         ",
"        Q X.>.{ Q Q Q Q Q Q Q Q Q Q Q Q Q Q Q Q Q Q Q Q Q Q P F A A v 2 > > , , , i a ,         ",
"          ' =.$.Q Q Q Q Q Q Q Q Q Q Q Q Q Q Q Q Q Q Q Q Q Q H A A A 8 < > , , , , , ,           ",
"          Q ] @.{ Q Q Q Q ' Q Q Q Q ' Q Q Q Q Q Q Q ' Q Q U F A A v < > > , , , , ,             ",
"            Q ' } ] Q Q Q Q Q Q Q Q Q Q Q Q Q Q Q Q Q ! P S v A c < > , , , , , , ,             ",
"              Q ' Q Q Q Q Q Q Q Q Q Q Q Q Q Q Q Q Q Q P S v A c < > , , u , , ,                 ",
"                  Q Q Q Q Q Q Q Q Q Q Q ! Q Q Q Q Q P S A A 9 < , , , , , , ,                   ",
"                    Q Q Q Q Q Q Q Q Q Q Q Q Q ' Q P S v v 4 < , , , < , , ,                     ",
"                        Q Q Q Q Q Q Q Q Q Q Q P F A A c 2 , , , , , , , ,                       ",
"                            Q Q Q Q Q Q Q E H S v c 8 < , , , , , < ,                           ",
"                                  Q E P H S v 9 4 1 > > , , , , u                               ",
"                                      S A i 2 < > > > > , ,                                     "
};
