/* XPM */
static char *_c4b11c5ea124a8a81720387654e6e87WWqHcKEzJGZiLvRz[] = {
/* columns rows colors chars-per-pixel */
"48 48 236 2 ",
"   c None",
".  c #0B0201",
"X  c #140403",
"o  c #1E0905",
"O  c #090B18",
"+  c #1C0414",
"@  c #18161E",
"#  c #290606",
"$  c #3C0504",
"%  c #3D0B02",
"&  c #370804",
"*  c #3B1405",
"=  c #270B18",
"-  c #380716",
";  c #31160C",
":  c #362B0D",
">  c #160928",
",  c #01073E",
"<  c #090736",
"1  c #191539",
"2  c #21112D",
"3  c #322B2D",
"4  c #430503",
"5  c #4A0B03",
"6  c #460904",
"7  c #560902",
"8  c #481706",
"9  c #4A0B17",
"0  c #570B14",
"q  c #680D07",
"w  c #740B0B",
"e  c #7C0A0A",
"r  c #6C1306",
"t  c #7E1407",
"y  c #781614",
"u  c #6D1213",
"i  c #433304",
"p  c #49311C",
"a  c #52331C",
"s  c #4A2B0B",
"d  c #632300",
"f  c #762F00",
"g  c #663800",
"h  c #7A3704",
"j  c #76221B",
"k  c #573726",
"l  c #4B3029",
"z  c #754000",
"x  c #594737",
"c  c #5B432C",
"v  c #65452B",
"b  c #634C36",
"n  c #694C37",
"m  c #785438",
"M  c #6E523C",
"N  c #5D4A0B",
"B  c #040845",
"V  c #120C41",
"C  c #040D5C",
"Z  c #161350",
"A  c #2E1A4D",
"S  c #363358",
"D  c #2C2C4C",
"F  c #0A1173",
"G  c #221E7B",
"H  c #373464",
"J  c #282A79",
"K  c #312F72",
"L  c #1C2557",
"P  c #423C77",
"I  c #442C6B",
"U  c #584A44",
"Y  c #695747",
"T  c #785D44",
"R  c #665453",
"E  c #7C6447",
"W  c #7B6152",
"Q  c #574776",
"!  c #73597D",
"~  c #694C6F",
"^  c #880C0C",
"/  c #940D0D",
"(  c #980E0B",
")  c #881309",
"_  c #991607",
"`  c #971815",
"'  c #851415",
"]  c #BE090A",
"[  c #A71707",
"{  c #B5160A",
"}  c #A61010",
"|  c #AD1111",
" . c #AE1D14",
".. c #B31212",
"X. c #BC1213",
"o. c #BC1B17",
"O. c #A90F10",
"+. c #802B00",
"@. c #843B02",
"#. c #833705",
"$. c #9C2F02",
"%. c #AA2A02",
"&. c #B72A03",
"*. c #BE3602",
"=. c #B72D25",
"-. c #C40B0B",
";. c #C41313",
":. c #CC1414",
">. c #C51E18",
",. c #D31414",
"<. c #DB1515",
"1. c #FA0D0D",
"2. c #E21616",
"3. c #EB1616",
"4. c #EC191A",
"5. c #FA1515",
"6. c #F41818",
"7. c #FA1A1A",
"8. c #F21717",
"9. c #E70D0D",
"0. c #C23302",
"q. c #CA3E01",
"w. c #C4271F",
"e. c #CA2F25",
"r. c #FA2323",
"t. c #FA2A2A",
"y. c #F72B2B",
"u. c #F83433",
"i. c #884200",
"p. c #994903",
"a. c #884F0A",
"s. c #BA4E01",
"d. c #9D7600",
"f. c #916B05",
"g. c #A37A00",
"h. c #944932",
"j. c #B05732",
"k. c #926A37",
"l. c #BF6033",
"z. c #CB4301",
"x. c #C04B03",
"c. c #D44801",
"v. c #C75601",
"b. c #D75C00",
"n. c #C24F15",
"m. c #E95E00",
"M. c #E45B00",
"N. c #D16909",
"B. c #ED6400",
"V. c #ED6B01",
"C. c #E36300",
"Z. c #F06600",
"A. c #F16A00",
"S. c #EE7D00",
"D. c #F27400",
"F. c #D24131",
"G. c #86664B",
"H. c #8C7158",
"J. c #936F4E",
"K. c #A4774C",
"L. c #A67B57",
"P. c #A96E4C",
"I. c #896D78",
"U. c #CB5042",
"Y. c #E74B4B",
"T. c #FA4C4C",
"R. c #ED5858",
"E. c #FA5454",
"W. c #FA5D5D",
"Q. c #FA6262",
"!. c #FA6C6C",
"~. c #DF6751",
"^. c #AA8500",
"/. c #A2802F",
"(. c #D88F09",
"). c #F48600",
"_. c #F58C00",
"`. c #E69506",
"'. c #F69400",
"]. c #F69B00",
"[. c #FA9A00",
"{. c #E78901",
"}. c #D8A709",
"|. c #D1A511",
" X c #EDA200",
".X c #ECAA00",
"XX c #F9A400",
"oX c #FCAA00",
"OX c #F1A700",
"+X c #EBB304",
"@X c #F5B800",
"#X c #FEC400",
"$X c #FFCC00",
"%X c #F2C300",
"&X c #F7C904",
"*X c #A88358",
"=X c #B5875B",
"-X c #AE8966",
";X c #B48D6A",
":X c #BA9679",
">X c #AC9068",
",X c #C4996C",
"<X c #D2936D",
"1X c #D3A77A",
"2X c #C9A276",
"3X c #E4AC7D",
"4X c #121986",
"5X c #0E1989",
"6X c #17218A",
"7X c #232A8A",
"8X c #2B348B",
"9X c #343D9A",
"0X c #2B3695",
"qX c #2430A4",
"wX c #403F98",
"eX c #3944AB",
"rX c #3A46B0",
"tX c #504B8D",
"yX c #5F619A",
"uX c #5554A4",
"iX c #444DAD",
"pX c #7E76A1",
"aX c #615395",
"sX c #4C5AD0",
"dX c #8A7895",
"fX c #B2958B",
"gX c #968598",
"hX c #DCAD80",
"jX c #DBB585",
"kX c #CDAC8F",
"lX c #E4BC8A",
"zX c #E7C28E",
"xX c #E8C492",
"cX c #E3CAB0",
"vX c #F1D4CE",
"bX c #CBC6C1",
/* pixels */
"                                                                          7.1.                  ",
"                                                                      r.Q.W.                    ",
"                                                                    r.T.r.7.                    ",
"                                                                  7.E.t.1.1.                    ",
"                                                                  r.Q.7.1.1.                    ",
"                                                    1.      r.r.t.Q.Q.7.1.1.  1.7.r.r.7.        ",
"                                                      1.  r.E.W.W.W.r.1.1.1.7.t.E.W.Q.W.r.1.    ",
"                                                        t.T.r.5.5.5.1.1.1.5.E.E.r.5.5.7.T.7.1.1.",
"                                          1.1.1.1.r.r.t.Q.r.1.1.1.7.r.r.7.5.5.5.1.1.1.1.5.      ",
"                                              1.5.E.!.Q.W.5.1.1.t.Q.Q.W.E.5.1.1.1.1.1.          ",
"                                                  7.E.u.t.r.1.5.E.R.4.3.3.1.1.1.r.r.            ",
"                                        7.;.X.{ X.;.4.Y.R.R.y.1.3.e.e.;.-.9.1.r.E.E.u.          ",
"                                  6.;.X.O.= s * X X ^ X.;.;.Y.X.` P.<Xo.-.-.8.W.7.7.T.W.        ",
"                            6.X...| a 2 1 J k.S.d * X t  .e.X.=.l U ~.o.w.-.2.T.7.1.5.r.!.      ",
"                          7...8 3 c :XpXiXiXK |.{.p.X X h.1XU.<XbXvXu.e.<XU.;.9.1.              ",
"                        8...k J.1X,X>XkXuXeX7X|.@Xg : @ a J.,XhXcXvXW.3XhXfXo.-.                ",
"                        2.; :XlXlX*Xb E 7XqXG N.@X'.|.K 3 : v 1XzX2X1XzX2XK.o.-.]               ",
"                        3.y G.hXzXzXjXb V C F N.#X$X%XW I.J.p G.1X=X,X,XK.J.>.                  ",
"                        7.2.* -XlXzXxXfXD < Z #.g.^. X+XP :XK.p E L.L.K.G.y 2.                  ",
"                          3.w a G.H.>XeXiXtXU x x x p.|.K gX1XK.p N G.G.t 2.7.                  ",
"                          7.3.e q 7 l F 9XkXxXcXkXH.b f.Y uXdXdXR }.z d ( 3.                    ",
"                              7.7.8.w V Z L.hX2X;XY Y : |.yXqXF R `.V.h.; <.                    ",
"                                  7.8.w X l ,Xk.x ;X; g }.tXR G.`.V.q.8XV ^ 3.                  ",
"                                    7.2.# $ n a 8 M z C.`.k.`.XXV.z.u wXF + ,.                  ",
"                                      8.^ 7 . . 6 7 &.z.Z.'.A.z.+.7 V eX7X+ ,.                  ",
"                                      4.^ X , B < 5 7 7 f h f 7 p U ! dXS y 3.7.                ",
"                                      2.# $ < B F B B B , O K K c ,X=Xb # <.5.4.( <.^ ^ 3.      ",
"                                    6.) a._ f 7 < B B B < 9 K sX2 ;X=XT a u e y m j T E y <.    ",
"                                7.4.) @..Xb.m.q.r 7 7 7 f _ a.S O b 1X3X=XH L @ -X@ b M ` 4.    ",
"                            7.3.^ r f. X#XoX[.V.c.q.{ z.'.{.+X^.i.#.v b U 0X8Xl c k E G.y 3.    ",
"                          7.8.t h d.@X$X#X[.'.A.Z.m.&.M._.'.].#XoX Xg.i.h > < v k : x b ` 3.    ",
"                      7.3.e r f..X$X$X$X$XoX[.A.Z.m.&.M.V.].oX&X$X$X#XoX Xg.i.a *XE # ^ 8.      ",
"                    7.3.e @.g.&X$X$X$X#X]._._.A.B.0.[ m.Z._._.'.#X$X$X$X$X$X Xp.c b ` 6.        ",
"                7.7.3.w r `.$X$X#X]._.).V.B.0.&.d % 5 %.&.0.m.Z.)._._.'.#X$X$X`.# / 8.          ",
"              7.3.w 7 q z.).#X$X#XXXB.0.%.d $ 4 / } ( 6 $ 6 %.&.0.M.A.XX#X$X#X(.* <.            ",
"            7.4.q q $.b.B.Z.S.v.x.x.%.5 4 / O.| 4.  6...| ( 6 4 ( &.*.S.).).).b.* ,.            ",
"            4.q r z.Z.A.V.Z.B.c.[ ( 7 ( ..8.              7...( 4 # 6 b.B.B.Z.b.% :.7.          ",
"            2.& s.Z.Z.Z.Z.Z.V.B.[ 5 ( 8.                      7.O.# p.B.Z.Z.Z.C.t q 2.          ",
"            2.4 v.Z.Z.Z.Z.Z.m.&.) $ ,.                          <.$ %.B.A.A.D.[.v.& ,.          ",
"          7.<.* s.XXD.A.D.B.%.6 $ | 8.                          <.$ ) b. XOX+X@XN.8 <.          ",
"        5.2.0 K p }.@XOX XN.5 } ;.8.                            8...$ * i i i s 8 { 8.          ",
"        3.0 Z j.Q 3 : : i 8 # ,.                                  <.o C 8X8XwXa.& ,.            ",
"      7.<.= I l.aX8XC + } ;.;.8.                                  <.= F 6XrXuXn.* :.7.          ",
"    7.2.9 P l.aXwX6X2  .6.                                        7.X.> F 6XtXj.A - ,.5.        ",
"  7.,.9 Z tXj.K 5X> | 7.                                            <.= F 5X6XH h.A - ,.7.      ",
"7.<.9 A j.l.I 4XC = ,.                                              <.# 8X9X9X9XQ h.Z - :.6.    ",
"3.9 H h.~ tX9X0X> ..7.                                              <.$ = 2 = = = 6 = X 7 <.    ",
"2.# O o O O O O X :.                                                6.<.,.,.,.:.<.,.:.<.,.7.    "
};
