/* XPM */
static char *_f9c594cfba341a2902ec9bee6e0e553trVT0tSYgHjBrKlW[] = {
/* columns rows colors chars-per-pixel */
"48 48 198 2 ",
"   c #140403",
".  c #1E0905",
"X  c #090B18",
"o  c #1C0414",
"O  c #130E12",
"+  c #290606",
"@  c #3C0504",
"#  c #390903",
"$  c #3B1405",
"%  c #31160C",
"&  c #270B18",
"*  c #380716",
"=  c #362B0D",
"-  c #160928",
";  c #090736",
":  c #01073E",
">  c #191539",
",  c #21112D",
"<  c #322B2D",
"1  c #470803",
"2  c #460904",
"3  c #560902",
"4  c #481706",
"5  c #4A0B17",
"6  c #570B14",
"7  c #680D07",
"8  c #780B0B",
"9  c #6C1306",
"0  c #7E1407",
"q  c #6D1213",
"w  c #781614",
"e  c #4A2B0B",
"r  c #433304",
"t  c #49311C",
"y  c #52331C",
"u  c #632300",
"i  c #762F00",
"p  c #733407",
"a  c #4B3029",
"s  c #573726",
"d  c #5D4A0B",
"f  c #5B432C",
"g  c #594737",
"h  c #634C36",
"j  c #6B4C33",
"k  c #694C37",
"l  c #040845",
"z  c #120C41",
"x  c #040D5C",
"c  c #161350",
"v  c #2E1A4D",
"b  c #333154",
"n  c #0A1173",
"m  c #1F2269",
"M  c #333269",
"N  c #312F72",
"B  c #433471",
"V  c #584A44",
"C  c #6C574B",
"Z  c #7C6447",
"A  c #7B6152",
"S  c #574776",
"D  c #6E5376",
"F  c #880C0C",
"G  c #940D0D",
"H  c #980E0B",
"J  c #881309",
"K  c #991607",
"L  c #971815",
"P  c #B01509",
"I  c #A90F10",
"U  c #AB1311",
"Y  c #B31212",
"T  c #BC1213",
"R  c #BC1B17",
"E  c #8E2D01",
"W  c #843904",
"Q  c #AA2A02",
"!  c #B72A03",
"~  c #BE3602",
"^  c #B72D25",
"/  c #C40B0B",
"(  c #C41313",
")  c #CB1515",
"_  c #D31414",
"`  c #DB1515",
"'  c #E70D0D",
"]  c #FA0D0D",
"[  c #E21616",
"{  c #EB1616",
"}  c #EC191A",
"|  c #F21717",
" . c #FA1515",
".. c #F41818",
"X. c #FA1A1A",
"o. c #C53702",
"O. c #C4271F",
"+. c #CA2F25",
"@. c #FA2323",
"#. c #F72B2B",
"$. c #FA2A2A",
"%. c #F83433",
"&. c #884905",
"*. c #994903",
"=. c #BA4E01",
"-. c #916B05",
";. c #9D7600",
":. c #A37A00",
">. c #944932",
",. c #B05732",
"<. c #926A37",
"1. c #BF6033",
"2. c #C84502",
"3. c #CE4A08",
"4. c #C75601",
"5. c #D75C00",
"6. c #E45B00",
"7. c #E95E00",
"8. c #D16909",
"9. c #E36300",
"0. c #ED6400",
"q. c #ED6B01",
"w. c #F06600",
"e. c #F16A00",
"r. c #EE7D00",
"t. c #F27400",
"y. c #86664B",
"u. c #936F4E",
"i. c #8C7158",
"p. c #A4774C",
"a. c #A77854",
"s. c #896D78",
"d. c #CB5042",
"f. c #FA4C4C",
"g. c #EB5353",
"h. c #FA5454",
"j. c #FA5D5D",
"k. c #DF6751",
"l. c #FA6262",
"z. c #FA6C6C",
"x. c #299F29",
"c. c #2CA42C",
"v. c #2FA92F",
"b. c #31AE31",
"n. c #33B033",
"m. c #AA8500",
"M. c #D88F09",
"N. c #E78901",
"B. c #F48600",
"V. c #F58C00",
"C. c #E69506",
"Z. c #F69400",
"A. c #F89B00",
"S. c #D8A709",
"D. c #D1A511",
"F. c #EDA200",
"G. c #ECAA00",
"H. c #F9A700",
"J. c #EBB304",
"K. c #F5B800",
"L. c #F5C703",
"P. c #FEC400",
"I. c #FFCC00",
"U. c #A88358",
"Y. c #B5875B",
"T. c #B48D6A",
"R. c #B3916F",
"E. c #C4996C",
"W. c #D2936D",
"Q. c #C9A276",
"!. c #D3A77A",
"~. c #E4AC7D",
"^. c #0F1988",
"/. c #17218A",
"(. c #262F8E",
"). c #2B348B",
"_. c #343D9A",
"`. c #2430A4",
"'. c #403F98",
"]. c #3945AC",
"[. c #504B8D",
"{. c #615395",
"}. c #6F6C9E",
"|. c #444DAD",
" X c #5554A4",
".X c #4C5AD0",
"XX c #8A7895",
"oX c #968598",
"OX c #B2958B",
"+X c #CDAC8F",
"@X c #DCAD80",
"#X c #DBB585",
"$X c #E4BC8A",
"%X c #E7C28E",
"&X c #E8C492",
"*X c #E3CAB0",
"=X c #CBC6C1",
"-X c #F1D4CE",
/* pixels */
"n.n.n.n.n.n.n.n.n.n.n.n.n.n.n.n.n.b.n.n.n.n.n.n.n.n.n.n.n.n.n.n.n.n.n.n.n.X.] n.n.n.n.n.n.n.b.n.",
"n.n.v.c.n.n.n.c.v.n.n.b.c.b.n.n.n.c.n.n.n.v.c.n.n.n.v.c.n.n.n.c.v.n.n.@.l.j.n.n.n.c.b.n.n.b.c.n.",
"c.b.n.n.b.c.n.n.n.v.c.n.b.b.c.v.n.b.b.c.b.b.n.b.c.b.b.n.b.c.n.n.n.v.@.f.@.X.c.v.n.n.n.c.b.b.n.n.",
"c.b.b.b.b.v.b.b.n.v.b.b.b.n.v.b.b.b.n.v.b.b.b.n.v.n.b.b.b.v.b.b.n.X.h.$.] ] v.b.b.v.n.v.b.b.b.n.",
"n.v.c.n.b.n.c.c.n.n.n.c.c.n.n.n.c.v.n.n.b.c.b.n.n.v.c.n.b.n.v.c.n.@.l.X.] ] n.n.c.v.b.n.b.c.v.n.",
"n.b.b.b.n.n.n.n.b.n.n.n.b.n.n.n.n.v.n.n.b.b.b.n.n.b.] b.n.n.@.@.$.l.l.X.] ] n.] X.@.@.X.n.b.b.n.",
"b.n.v.v.n.b.n.c.b.n.n.n.c.b.n.b.b.c.b.b.b.v.c.n.b.n.v.] n.@.h.j.j.j.@.] ] ] X.$.h.j.l.j.@.] c.n.",
"x.n.n.n.v.c.n.n.n.c.c.n.n.n.c.v.n.n.n.c.b.n.n.b.c.n.n.b.$.f.@. . . .] ] ]  .h.h.@. . .X.f.X.] ] ",
"b.b.v.b.n.v.n.v.n.b.b.v.v.n.b.b.b.b.b.b.b.] ] ] ] @.@.$.l.@.] ]  .X.@.@.X. . . .] ] ] ]  .v.b.n.",
"b.b.c.n.n.n.v.c.n.n.n.v.v.n.n.n.c.b.n.n.b.c.b.]  .h.z.l.j. .] ] #.l.l.j.h. .] ] ] ] ] n.b.c.n.n.",
"n.n.b.b.n.n.n.b.b.n.n.n.v.n.n.n.b.b.n.n.n.b.b.b.b.X.h.#.#.@.]  .h.g.} { { ] ] ] @.@.n.n.n.n.v.n.",
"b.n.v.c.b.b.n.v.v.n.v.n.c.b.n.b.b.c.b.b.X.( T P T ( } g.g.g.#.] { +.+.) / ' ] @.h.h.%.v.n.v.v.n.",
"x.b.n.n.v.c.n.n.n.v.c.n.n.n.c.v.b...( T I & e $     J T ) ( g.T L p.W.R / / | j.X.X.f.j.v.n.n.n.",
"b.b.c.n.n.n.v.v.n.n.n.v.v.n.| T Y Y y , > N <.N.u $   0 U +.T ^ a V k.( O./ [ f.X.]  .@.z.c.b.n.",
"n.b.v.n.b.n.v.v.n.n.n.v.v.X.Y 4 < g R.XX|.|.N D.N.*.O   >.!.d.W.=X-X%.+.W.d.( ' ] v.n.n.b.v.n.n.",
"n.n.v.v.n.n.n.v.v.n.n.n.| Y s u.!.R.R.+X X]./.D.K.p = O y u.E.@X*X-Xj.!.~.OXR / n.v.n.n.n.b.v.n.",
"b.b.b.b.b.v.b.b.b.b.b.n.[ % R.$X$XU.k Z /.`.m 8.K.Z.D.N < = f !.&XQ.!.%XQ.p.R ( T v.b.v.b.b.v.n.",
"x.b.b.b.b.v.b.b.n.c.v.n.{ w u.!.&X%X#Xh z x n 8.P.I.L.A s.u.y y.!.Y.E.E.p.u.) v.b.b.b.c.v.n.n.n.",
"n.b.c.b.b.b.v.x.b.n.n.c.X.[ $ T.$X%X&XOXb ; c W :.m.F.J.B R.p.t Z a.U.p.y.w [ n.c.v.n.n.n.c.b.n.",
"b.b.b.n.n.b.b.b.n.b.b.b.b.{ 8 y y.i.T.].|.[.V g V g *.D.N oX!.p.t d y.y.0 [ X.n.v.b.n.n.n.v.n.n.",
"n.b.b.v.b.b.b.b.b.b.n.b.c.X.{ 8 7 3 a n _.+X&X*X+Xi.h -.C  XXXXXC D.p u H { b.b.n.c.n.n.n.v.c.n.",
"v.b.b.b.b.v.n.b.b.b.b.n.b.n.v.X.X.{ 8 ; c U.@XQ.T.C C = D.}.`.n C C.q.>.% ` b.b.n.b.n.c.b.n.b.n.",
"v.b.b.b.b.v.b.b.b.b.v.b.n.n.c.b.n.X.| 8   a E.<.g T.% p D.[.C A C.q.o.).z F { b.n.b.n.c.b.b.b.n.",
"b.b.x.b.b.b.b.c.b.n.b.c.c.n.n.n.c.v.X.[ + @ k y 4 k p 9.C.<.C.H.e.2.q '.n o _ b.c.v.n.n.b.c.v.n.",
"b.n.b.b.b.n.b.b.n.b.n.b.b.n.n.n.b.n.n...F 3     4 3 ! 2.q.Z.e.2.E 3 z ].(.o _ b.b.b.b.b.b.b.n.n.",
"n.n.b.v.n.n.b.v.v.n.n.n.c.b.n.n.b.c.n.} F   : l ; 2 3 3 i p i 3 t V D XXb w } X.b.v.b.b.n.v.v.n.",
"x.n.b.b.b.c.n.b.b.v.v.n.b.b.c.v.n.b.n.` + @ ; l n l l l : X N N s E.Y.h + `  .} H ` F F { n.b.n.",
"v.b.b.b.b.b.b.b.n.b.v.b.b.n.v.b.b.b...J &.K i 3 ; l l l ; 5 N .X, T.Y.Z y q 8 w j w Z Z w ` b.n.",
"b.b.x.b.b.n.v.c.n.n.n.c.v.n.n.n.X.} J W G.5.0.o.9 3 3 3 i K &.b X h !.~.Y.M m O R.O k k L } b.n.",
"n.n.b.b.b.n.b.b.b.n.n.n.b.n.X.{ F 9 -.F.P.H.A.q.3.o.T 2.Z.N.K.m.&.W f j h ).).a h s Z i.w { b.b.",
"b.n.b.v.n.b.n.v.v.n.b.n.c.X...0 p ;.K.I.P.A.Z.e.e.7.! 6.V.Z.A.P.H.F.:.&.p , ; f s = g k L { v.n.",
"x.b.n.b.b.c.b.b.n.v.c.X.{ 8 9 -.G.I.I.I.I.H.A.e.w.7.! 6.q.H.H.L.I.I.P.H.G.:.&.y U.Z + F ..n.b.n.",
"b.b.v.b.b.b.b.v.b.b.X.{ 8 W :.I.I.I.I.P.A.N.B.q.0.o.P 6.0.V.V.Z.P.I.I.I.I.I.F.*.f h L ..n.v.b.n.",
"n.b.v.n.n.n.v.v.X.X.{ 8 9 C.I.I.P.A.V.B.q.0.o.! u # 1 Q ! o.7.w.B.V.V.Z.P.I.I.C.+ G | n.b.c.b.n.",
"n.b.v.b.n.n.n.X.} 8 3 7 2.B.P.I.P.H.0.o.Q u @ 1 G I H 2 @ 2 Q ! o.6.e.H.P.I.P.M.$ ` b.n.n.n.b.b.",
"b.b.v.v.b.b.X.} 7 7 E 5.0.w.r.4.2.=.Q 2 1 G I U } b...Y U G 2 2 G ! ~ r.B.B.B.5.$ _ b.b.b.b.c.n.",
"x.b.b.b.b.c.} 7 9 2.w.e.q.w.0.3.P G 3 K Y | n.b.c.b.n.n.v.X.Y H 1 + 2 5.0.0.w.5.# ) X.c.b.n.n.n.",
"b.b.v.b.b.b.[ @ =.w.w.w.w.w.w.w.P 1 G | b.c.b.n.b.b.c.n.n.n.v.X.I + *.0.w.0.e.9.0 7 [ b.b.c.b.n.",
"n.b.v.b.b.n.[ 2 4.w.w.w.w.w.7.! J @ _ n.b.v.b.n.n.b.v.n.n.n.v.v.` @ Q 0.e.e.t.A.4.# _ n.n.c.n.n.",
"n.n.b.v.n.X.` $ =.H.t.e.t.0.Q 1 @ U | n.n.b.v.b.n.n.v.v.n.n.n.v.` @ F 5.F.F.J.K.8.4 ` n.n.b.v.n.",
"b.b.b.b. .' 6 M y S.K.H.F.8.2 I ( ..b.v.b.b.b.b.v.n.v.b.b.v.n.v.| Y @ $ r r r t 4 P ..b.b.b.v.b.",
"x.b.b.b.{ 6 c ,.S < = = r 4 + _ n.b.n.c.b.n.n.b.c.b.n.n.b.c.n.n.b.` . x ).).|.&.# _ b.c.b.b.n.n.",
"b.b.c.X.` & B 1.{.).x o I ( ( ..c.v.n.n.b.c.b.b.n.v.c.b.n.n.c.c.b.` & n /.]. X=.$ ) X.b.b.c.b.n.",
"n.b.X.} 5 N 1.{._./., Y ..n.n.n.b.b.n.b.n.v.b.b.n.n.v.n.b.n.b.b.b.X.T - n /.[.,.v * _  .b.b.b.n.",
"n.X._ 5 c [.,.N ^.- U X.c.b.n.n.b.c.n.n.n.b.c.n.n.n.v.v.n.n.n.v.b.n.` & n ^./.M >.v * _ X.b.c.b.",
"X.` 5 v ,.1.B ^.x & _ n.b.n.c.v.n.b.b.v.b.n.b.b.c.b.b.b.b.c.n.b.b.v.` + )._._._.S >.c * ) ..b.b.",
"{ 5 M >.D [._.(.- Y ..n.n.n.c.n.n.b.n.c.b.b.b.b.c.n.n.n.b.v.n.b.n.v.` @ & , & & & 2 &   3 ` b.n.",
"` + X + X X X X   ) n.c.c.n.n.n.x.v.n.n.b.x.b.n.n.v.x.b.n.n.c.c.b.n...` _ _ _ _ ` _ _ ` _ X.b.n."
};
