/* XPM */
static char *_2e5088ef6e6413ac88b36dc945c3eacSlVeY6GtFM4HSpYc[] = {
/* columns rows colors chars-per-pixel */
"48 48 169 2 ",
"   c #040C05",
".  c #070508",
"X  c #0A0B0B",
"o  c #061307",
"O  c #071907",
"+  c #071208",
"@  c #09150A",
"#  c #091B0A",
"$  c #100E15",
"%  c #0F1D10",
"&  c #121115",
"*  c #111A15",
"=  c #14131A",
"-  c #19181D",
";  c #0C230C",
":  c #0D2C0D",
">  c #0F320F",
",  c #0F2611",
"<  c #0F2F10",
"1  c #132D15",
"2  c #162419",
"3  c #1C251E",
"4  c #162C18",
"5  c #103411",
"6  c #133B13",
"7  c #19361C",
"8  c #163918",
"9  c #1A3B1C",
"0  c #1B1721",
"q  c #1E1D23",
"w  c #1F1B28",
"e  c #201C29",
"r  c #1E2423",
"t  c #1F2C24",
"y  c #1F3522",
"u  c #212A26",
"i  c #25222B",
"p  c #28262E",
"a  c #252C2A",
"s  c #203E25",
"d  c #27302C",
"f  c #272331",
"g  c #2B2734",
"h  c #2B2B34",
"j  c #302C36",
"k  c #342E3F",
"l  c #2C3333",
"z  c #2E3C34",
"x  c #303B37",
"c  c #33323C",
"v  c #38353F",
"b  c #333C39",
"n  c #144314",
"m  c #164B16",
"M  c #1B431C",
"N  c #1B4F1C",
"B  c #175217",
"V  c #175917",
"C  c #1A551A",
"Z  c #1A5A1B",
"A  c #1D631D",
"S  c #1E6B1F",
"D  c #1E4F20",
"F  c #27402A",
"G  c #205721",
"H  c #2C4130",
"J  c #36403E",
"K  c #206521",
"L  c #206E20",
"P  c #217421",
"I  c #247B24",
"U  c #372F44",
"Y  c #363240",
"T  c #3A3543",
"R  c #3C344B",
"E  c #413C4C",
"W  c #413751",
"Q  c #443B54",
"!  c #473E58",
"~  c #483E59",
"^  c #3B4542",
"/  c #46424F",
"(  c #474253",
")  c #4D4955",
"_  c #4C435C",
"`  c #4E495A",
"'  c #50465E",
"]  c #514A5D",
"[  c #4E4461",
"{  c #524766",
"}  c #534A65",
"|  c #584F67",
" . c #554A6A",
".. c #584E6A",
"X. c #575164",
"o. c #5A5366",
"O. c #5A5865",
"+. c #5C536C",
"@. c #5E5A6C",
"#. c #5B4F73",
"$. c #5E5471",
"%. c #615A6F",
"&. c #605673",
"*. c #645B74",
"=. c #665D79",
"-. c #685F79",
";. c #686176",
":. c #6C647B",
">. c #6F687E",
",. c #70677F",
"<. c #268326",
"1. c #268B26",
"2. c #298C29",
"3. c #2A922A",
"4. c #2A9D2A",
"5. c #2DA42D",
"6. c #2FA92F",
"7. c #30A630",
"8. c #31AD31",
"9. c #33B033",
"0. c #6F6780",
"q. c #716781",
"w. c #736B84",
"e. c #776E88",
"r. c #786F89",
"t. c #777086",
"y. c #797483",
"u. c #7A728B",
"i. c #7F7A8D",
"p. c #7E7591",
"a. c #7F7891",
"s. c #80778F",
"d. c #80788E",
"f. c #817694",
"g. c #837B93",
"h. c #857A99",
"j. c #897E9C",
"k. c #85818E",
"l. c #868092",
"z. c #8A8495",
"x. c #8B819D",
"c. c #8E8A9A",
"v. c #928C9D",
"b. c #95919C",
"n. c #8D83A1",
"m. c #9187A4",
"M. c #9389A6",
"N. c #958AA9",
"B. c #988EAD",
"V. c #998FAE",
"C. c #9793A0",
"Z. c #9A95A3",
"A. c #9D99A4",
"S. c #9A92AB",
"D. c #9C96AA",
"F. c #9D93B3",
"G. c #A09DA6",
"H. c #A29FA8",
"J. c #A19AAE",
"K. c #A49EB0",
"L. c #A599BB",
"P. c #A6A3AC",
"I. c #A9A7AD",
"U. c #AAA9AF",
"Y. c #AAA5B1",
"T. c #ADABB1",
"R. c #B4B2B6",
"E. c #B4B4B6",
"W. c #B7B7B8",
/* pixels */
"9.9.8.9.9.9.9.8.9.9.9.9.9.9.8.9.9.9.9.9.9.9.8.9.9.9.9.9.9.9.9.8.9.9.9.9.9.9.9.9.9.8.8.8.9.9.9.9.",
"9.9.6.6.9.9.9.5.6.9.9.9.5.8.2.C C B C V C V <.8.9.9.6.7.9.9.9.5.6.9.9.8.5.8.9.9.8.6.9.9.8.8.6.8.",
"5.8.9.9.6.5.9.9.8.7.5.8.8.8.A @ @ @ @ + @ @ K 6.5.8.8.9.8.5.9.9.9.6.5.9.8.8.6.6.9.8.8.6.8.9.8.9.",
"5.8.8.8.8.6.9.8.8.8.8.I n n F O.+.o.O.X.o.X.H V 5.8.8.8.8.6.9.8.9.6.8.8.8.8.6.8.8.8.8.6.8.8.8.9.",
"9.6.5.9.9.9.6.5.8.8.3.M q q ` V.V.V.B.B.V.N.X.r I 4.5.8.9.9.6.5.9.9.9.5.5.9.9.9.5.6.9.9.8.5.8.9.",
"9.9.6.9.9.9.9.6.8.3.m ^ :.:.u.B.B.V.B.N.V.N.i.O.9 S 7.8.8.9.8.8.8.9.9.9.8.9.9.9.8.8.9.9.9.8.8.9.",
"9.9.6.6.9.6.9.6.4.K u %.F.F.B.N.N.M.N.N.N.M.V.j.$ m 5.6.8.8.9.6.6.9.9.9.5.8.9.8.8.6.6.8.8.6.6.8.",
"5.9.9.9.6.5.9.9.B a >.M.N.B.N.N.N.N.N.M.N.N.N.f.& C 6.9.8.5.9.8.9.6.5.9.9.9.5.6.9.9.8.5.8.9.9.9.",
"6.9.6.9.9.8.8.6.n i i.F.B.D.D.N.M.N.M.M.N.N.x.u.v y A 7.8.8.8.6.9.8.8.8.6.9.8.8.6.6.9.6.6.6.9.9.",
"6.6.5.9.9.9.5.4.n p u.V.D.T.Y.B.N.N.N.N.N.M.g.q.*.c # <.8.8.6.7.9.9.9.5.6.9.9.9.6.8.9.9.9.5.9.9.",
"9.9.6.8.9.9.3.C z X.q.j.V.J.Y.Y.Y.Y.Y.v.s.f.q.*.=.[ U 8 P 8.9.8.8.9.9.9.8.8.9.9.9.6.8.9.9.9.6.9.",
"6.9.6.6.9.8.P   X.h.q.u.n.n.D.R.R.R.I.k.=.:.=.&.$.*.$.i 7 <.2.3.6.8.8.9.5.8.8.8.8.6.9.8.9.6.6.9.",
"5.8.9.9.6.5.I o } h.f.e.q.q.h.D.K.Z.g.q.&.=.*.&.&.&.&.] x > > Z 7.5.5.9.9.9.5.6.9.9.9.5.9.9.9.9.",
"8.8.6.8.8.4.A 3 @.j.j.r.:.:.r.j.j.f.:.*.&.&.&.&.&.&.&.$.Q i i y I 2.3.5.6.9.6.9.6.6.9.6.6.5.6.9.",
"9.8.6.9.6.n d ;.f.h.h.f.p.f.r.:.:.-.*.&.&.&.&.&.&.&.$.{ @.r.g.O.2 @ n 3.5.8.9.9.6.8.9.9.9.6.9.9.",
"9.9.6.6.9.> p u.n.h.h.h.h.h.p.q.w.=.| ....&.&.&.&.&.$._ *.N.L.a.( T b Z A P 5.9.8.6.8.9.9.8.6.9.",
"6.9.6.6.7.< j r.j.h.h.f.h.h.h.f.f.q.' _ ] &.&.&.&.&.&.' -.m.N.M.j.x.>.a @ 1 <.8.8.7.9.8.6.8.6.9.",
"5.9.9.2.C x +.p.h.h.h.h.h.h.h.h.u.=._ _ _ ] } } &...} =.i.m.M.V.F.L.x.@.) / M I 8.9.8.5.8.9.9.9.",
"8.6.5.A . &.j.h.h.h.h.h.h.h.h.f.,.&. .{ { _ _ _ +.| | j.N.N.N.N.M.M.N.V.F.g.T 9 1.5.8.9.8.5.8.9.",
"9.8.8.S   @.j.h.h.h.h.h.h.h.j.f.:.+.{ { { { _ { _ *.u.m.N.M.N.N.N.N.N.N.S.n.q.^ m 3.9.9.9.6.9.9.",
"9.8.3.G e =.j.h.h.h.h.h.h.h.h.p.:.&.{ { { { { { ' >.N.N.N.N.N.N.N.N.N.N.N.B.V.$.* V 3.9.9.8.5.9.",
"5.5.6 l -.f.h.h.h.h.h.h.h.h.r.:.=...{ { { { {  .*.f.N.N.N.N.N.M.m.N.M.N.N.M.g.=.R 3 m 5.8.8.8.9.",
"5.7.O v h.j.h.h.h.h.h.h.h.u.:.$....... .{ { {  .q.g.M.N.N.M.N.M.N.N.N.N.M.f.>.$.[ 0 : 5.8.8.8.9.",
"8.4.# c p.h.f.h.h.h.h.h.f.q.*.$.} ] &. .{ { { ..:.f.M.N.N.N.N.N.N.N.N.N.g.>.+. ._ 0 : 8.8.5.8.9.",
"<.Z x ] :.,.e.g.j.j.h.p.0.=.&.$._ ' &. .{ { }  .:.g.N.N.N.N.N.N.N.N.M.h.q.$.} { [ U t Z 3.8.9.9.",
"Z X *.:.%.%.:.u.a.h.h.e.*.&.&.$.} { @. .{ { {  .:.f.n.m.N.N.N.N.N.B.x.e.$.} { { { { R o S 6.7.9.",
"B X *.w.:.:.:.:.;.q.g.e.*.&.&.&.+.} } }  .{ { ..:.u.i.i.j.N.N.N.V.x.u.&.} { { { { { R   K 8.8.9.",
"C X *.i.g.z.y.&.+.=.r.e.;.&.$.&.&.+._ _ [ [ _ } >.w.q.q.u.x.m.n.n.u.*. .{ } { { {  .R   S 8.8.9.",
"V X &.c.T.E.Z.t.0.>.;.>.w.=.$.&.*.+.{ ! W Q Q _ q.t.e.e.e.t.u.r.t.=. .{ { { { { {  .R   S 4.8.9.",
"Z X %.z.P.P.G.v.b.s.;.;.:.:.&.| } } ~ ! Q Q W ! q.u.r.r.t.w.w.w.w.+.[ [ { { { { { { Q r D <.6.8.",
"V X %.i.g.i.v.U.W.P.i.*.*.q.=._ ! W Q ~ [ [ ! ! q.u.t.r.r.r.t.r.u. .Q [  .{ { { { { [ Q t 5 4.9.",
"m X ;.a.t.e.d.Z.G.A.A.b.k.w.@._ ~ ~ ~ [  .{ ( ! >.z.Z.A.v.u.r.i.u.{ R [  .{ { { { {  .{ w # 5.9.",
"Z % +.w.u.r.u.u.u.z.P.W.A.>.X.{ { { { { { { ! ! >.b.T.E.A.u.t.u.t.| ! [ { { { { { {  .[ w # 5.8.",
"3.A d ` u.i.u.e.w.i.c.Z.c.;.} } { { { { { { ! ! 0.g.b.C.z.u.w.e.e.0.+._ _ { { { { { { [ w # 6.9.",
"8.7.6 d %.t.u.r.r.r.r.p.t.@.X.[ { { { { { [ _ _ w.u.u.t.u.a.g.l.l.a.:.( ! { { { { {  .[ f , 1.5.",
"8.9.3.C q &.i.u.e.r.e.r.w.;.| { { { { { [ ! +.0.t.r.r.w.c.U.T.T.U.m.:._ ! { { { { { { { ! Y , S ",
"4.9.9.<.6 ^ %.r.z.z.u.t.>.@. .} { { { { [ Q $.u.r.r.u.t.z.P.P.P.P.c.:.! Q { { { { { { {  .Q . Z ",
"8.8.5.5.2.4 v w.H.H.i.;.@. .} { { { { { _ W @.u.r.r.t.u.u.g.l.g.l.g.0.( Q { { { { { { { { Q . C ",
"9.8.6.8.8.P s E l.P.A.y.+.{ [ { { { { { [ ! =.g.h.g.g.g.a.t.t.e.t.u.w.@.[ ~ { { { { { {  .! . C ",
"9.9.8.6.8.8.P , / l.U.z.+.{ { { { { { } [ R | q.0.0.0.>.w.t.p.r.u.r.r.r.+.Q [ { { {  .{ { R @ A ",
"6.9.8.8.8.6.4.S y ) k.k.o.} } [ { {  . .! w f c c c c j ` t.p.u.u.u.u.p.$.R [ { { {  .{ U r G 2.",
"5.8.8.9.6.5.9.8.B r +.:.X. .{ { { [ ~ _ R @ # @ o O @ @ l %.>.:.:.w.u.a.+.R [ { { { { R r 5 5.8.",
"8.6.5.8.9.9.5.5.5.K r R $.#. . . .Q = = 2 S <.<.<.I I 1.G r q q q X.a.a.$.( [ {  . .Q 0 N <.8.9.",
"9.9.6.9.9.9.8.8.8.3.n a R R R R R h 5 > m 5.8.8.9.9.6.9.I 6 < 5 5 J +.O.R U [ #.{ Q h 6 <.6.8.9.",
"9.9.6.6.9.9.9.6.6.6.4.M $ $ $ $ $ 5 2.2.3.9.5.9.9.9.6.6.5.3.2.<.1.M - - $ 0 R #.[ f 4 2.5.8.5.9.",
"5.8.8.8.8.6.8.8.8.8.5.I n n n 6 n S 8.7.8.9.6.9.5.8.8.8.8.5.8.8.6.P n n m 8 h U g y S 5.8.8.8.9.",
"5.8.8.9.8.5.9.8.9.6.6.8.8.8.5.5.6.6.6.6.9.9.9.9.5.9.9.9.8.6.8.8.8.6.5.6.6.3.5   ; I 8.5.8.9.8.9.",
"8.6.5.8.9.9.5.5.9.9.8.5.5.8.8.8.5.6.9.9.6.4.6.9.9.6.4.8.8.8.6.5.9.9.8.5.5.7.L B V 1.9.9.8.4.8.9."
};
