/* XPM */
static char *ef6c17283d9c4296ba2a035500865a19nCIYu0cByw8lAF3b[] = {
/* columns rows colors chars-per-pixel */
"48 48 120 2 ",
"   c None",
".  c #1D7E26",
"X  c #1B752D",
"o  c #1C7B29",
"O  c #166937",
"+  c #196B35",
"@  c #19673D",
"#  c #176839",
"$  c #196939",
"%  c #1B7132",
"&  c #206F2F",
"*  c #2D7E25",
"=  c #257C29",
"-  c #226E35",
";  c #286935",
":  c #206739",
">  c #236C38",
",  c #326A37",
"<  c #366D3B",
"1  c #3A7238",
"2  c #715D31",
"3  c #466E3C",
"4  c #4F6838",
"5  c #5C6333",
"6  c #43753A",
"7  c #4F783E",
"8  c #54723A",
"9  c #626635",
"0  c #686637",
"q  c #616A38",
"w  c #686A39",
"e  c #756334",
"r  c #796636",
"t  c #716E37",
"y  c #7A6937",
"u  c #7E6738",
"i  c #736B39",
"p  c #7D6C39",
"a  c #67743F",
"s  c #79763F",
"d  c #826D3B",
"f  c #85723D",
"g  c #89743E",
"h  c #8C7640",
"j  c #8E7941",
"k  c #907641",
"l  c #947C44",
"z  c #987D46",
"x  c #1E861E",
"c  c #1D881D",
"v  c #21861E",
"b  c #21891E",
"n  c #1E8322",
"m  c #1E8921",
"M  c #218421",
"N  c #218A24",
"B  c #22922C",
"V  c #249633",
"C  c #249A34",
"Z  c #259C3B",
"A  c #299B39",
"S  c #26A13E",
"D  c #28A03D",
"F  c #43862D",
"G  c #3DCE3C",
"H  c #3ED334",
"J  c #3ED039",
"K  c #44D32E",
"L  c #40CF39",
"P  c #43D232",
"I  c #45D932",
"U  c #49DD33",
"Y  c #41D038",
"T  c #46DE3D",
"R  c #4BE435",
"E  c #4EEC37",
"W  c #4CE639",
"Q  c #4EEB39",
"!  c #50EF3C",
"~  c #51F337",
"^  c #52F43B",
"/  c #54FA3B",
"(  c #279E40",
")  c #299F42",
"_  c #26A442",
"`  c #28A345",
"'  c #29A846",
"]  c #2AA74B",
"[  c #27AC48",
"{  c #2AAC4D",
"}  c #2BB14E",
"|  c #2BAD51",
" . c #2BB355",
".. c #2CB956",
"X. c #2CB65A",
"o. c #2CBC5C",
"O. c #30BD5C",
"+. c #2DBE62",
"@. c #30BD61",
"#. c #37CB47",
"$. c #3ACC43",
"%. c #35C74E",
"&. c #38C54D",
"*. c #36C94B",
"=. c #38C949",
"-. c #2FC457",
";. c #2DC15C",
":. c #33C552",
">. c #38C551",
",. c #30C359",
"<. c #2BC061",
"1. c #54F840",
"2. c #898643",
"3. c #938245",
"4. c #9A8147",
"5. c #9D8349",
"6. c #A2864B",
"7. c #A5894C",
"8. c #AA8B4E",
"9. c #AB8D50",
/* pixels */
"                                  P P P P K K K K K H K K K P P P                               ",
"                            P P P K P P I P R R U R R I I K P I K K K P                         ",
"                          P K K K K R ! E Q ^ ^ ~ / ~ ^ ^ R R E W P K P K L                     ",
"                      P $.P P P K U R ~ ^ / / / / / / / ^ ! ~ ^ ^ R K K K L $.                  ",
"                    L L L P K P R E ~ / ^ / / 1./ / / / 1./ ^ 1.^ W U K P H J P                 ",
"              .. .o.*.G J K P K R R / ~ / / / ^ / / / / / / / ^ ^ Q Q P P P Y L                 ",
"            _  .+.+.:.$.G P P K U ^ ^ / ^ / / / / ^ 1.^ / / 1.^ / Q U K P H P $.L =.@.          ",
"        v M ' X.+.+.*.$.L K K K E ~ ^ ^ / ~ ^ / ~ Q ^ ^ ^ ~ ! 1.! ! R K K K H $.L ,.<.          ",
"      c M B A | o.@.&.G $.P L P R R ! ! ^ ^ ! ~ ~ Q / ! ^ E E ~ R U U P H K P P $.,.<.<.        ",
"    M M N _  .| X.>.$.G P $.G K P $.W ^ ^ ^ ~ / / ^ R P R E ^ ^ R K K K K K G G G :.+.<.} N     ",
"  n . N _ `  .@.+.;.-.$.G J J $.$.Y T W R ~ ! U W ^ U P K K R ! R K P K K P $.%.%.%.<.+.;.C x   ",
"% o o n ] |  .X.o.+.;.$.$.#.*.J Y L $.L K W P P L U I P K K K I I P K H K G G #.;.+.@.+.o.C x   ",
"+ . x o Z Z  .X.o.+.+.<.%.P $.P P $.$.J P Y P $.J P K $.L K G Y J G K $.J #.G J %.<.<.X.} [ m   ",
"% . c = n Z | @.o...;.<.$.$.L G =.G %.#.G G L L J J G L Y Y L =.$.G J $.J $.:.%.-.o.X.` M B m n ",
"X X o n n Z A {  . .<.+.+.:.G =.G *.%.G J #.:.,.G G ,.=.G G &.@.-.#.:.<.:.;.+.+.;. . .[ m x x x ",
"  % o . n m . Z | +.X.@.+.;.;.%.P =.+.:.$.%.@.O.$.=.+.O.,.,.+.+.+.o.O.+.+.+.o. .o.' ] S x c x x ",
"  + o . v n m ' X. . .o.;.<.@.<.,.;.+.+.<.,.@.+.O.+.+.+.+.<.+.+... .+.<...+.+.o.X. ._ m x n n n ",
"  + o . v n B `  .X...o.;.+.+.+.+.+.+.+.+.<.+.<.o. .+.;.+.X.+.+.X.+.;.<. .[  . .'  ._ c m . o n ",
"    + X . M B _ Z {  .+.o. .+.+.<.+.o.+.+.@.@...} o.;. . . .+.| +. .o.{ X. .Z | ] [ V c M M o   ",
"    # + o = m B n Z o.+.| X.o.} X.+. .o.o.o.o.D B  . .o.[ _ X.| [ S } { ` S m m V B c m n n X   ",
"    $ + + . . . n C } [ { V C } O.o.<.} [ ( { N c V  .o.V c V X.C n B A Z m m n n x n . . o .   ",
"        + + X = b N m N V M N { ] { _ m N _ S N c N ] ] m c m B n c m v n n m n n X n X $ $     ",
"        + $ $ o n c n m b x v B V Z b c v v c M M b M N x n c m c m m m c n . n . o X + $ $     ",
"          + $ % o . m c x . n M b m M M x c x n b n . x x n n x n o . n n . X + O + O # +       ",
"          + + $ + n n o n . . . c . . c c = . n n n m x n c . x M n % + o n % $ $ + + $ +       ",
"              @ + X % $ X n . M x . x x x x v x n . . n . . n n n o % # $ @ $ $ @ $             ",
"                $   + $ o . X $ X . c . . c = o n . . . + % o . o - : $ $ $ +   @               ",
"                      +   + + < 7 = X . . . + $ . m . + O # + + 1 w 0 , $ $                     ",
"                          #   p j 8 $ & M 6 $ $ % M F 6 > : : ; q d r 9                         ",
"                            f f y i 5 5 t e 4 3 a 2.3.f s 9 5 9                                 ",
"                            p           r 2 g g 8.8.z y y                                       ",
"                                        y f g j 9.6.k p e                                       ",
"                                        f 4.f 6.z z 5.d                                         ",
"                                        j 7.6.9.7.8.4.y                                         ",
"                                        h 5.6.7.l 7.7.h                                         ",
"                                        d f 6.5.r z z h                                         ",
"                                        2 d 8.6.p d k p                                         ",
"                                        y e 4.j u f 6.p                                         ",
"                                        h r l j 2 l 7.f                                         ",
"                                      h d d 5.h r j z p                                         ",
"                                      g d y 7.4.f 2 k k                                         ",
"                            y       j 6.z u 5.5.l d 6.6.g                                       ",
"                        r j f j f f l 4.z g 5.7.d d 4.j 5.z                                     ",
"                        l k g 3.d d j k f d 5.z f f h r d 4.f                                   ",
"                                  f f f l f j 4.u   y f g f z f                                 ",
"                                        f z g 4.h         d g                                   ",
"                                          j l f 5.z                                             ",
"                                              y g                                               "
};
